<svg xmlns="http://www.w3.org/2000/svg" viewBox="0 0 432.5581 517.4419">
  <defs>
    <style>
      .svg-element__primeContrastClr {
        fill: #2a4c71;
      }
    </style>
  </defs>
  <g>
    <path class="svg-element__primeContrastClr" d="M236.4263,360.7117,117.647,335.2761,0,438.4766V480.814a36.6279,36.6279,0,0,0,36.6279,36.6279H395.93a36.6279,36.6279,0,0,0,36.6279-36.6279V337.0771l-71.32-64.3278ZM401.5581,480.814a5.6343,5.6343,0,0,1-5.6279,5.6279H36.6279A5.6343,5.6343,0,0,1,31,480.814V452.52l95.3829-83.67,103.5522,22.1748,13.2627,2.84,11.0867-7.8135,104.5748-73.7,42.6988,38.5125Z"/>
    <path class="svg-element__primeContrastClr" d="M142.9183,87.0452a65.2834,65.2834,0,0,0-46.811,20.4024C84.09,120.0153,77.8822,136.1051,78.6278,152.7539c1.5807,35.29,29.8206,62.9343,64.29,62.9343a65.2837,65.2837,0,0,0,46.8108-20.4021c12.0176-12.5676,18.2252-28.6577,17.48-45.3066C205.6283,114.6892,177.3884,87.0452,142.9183,87.0452Zm0,97.643c-18.68,0-32.5129-15.2678-33.3215-33.3215-.8059-17.9951,15.8917-33.3215,33.3215-33.3215,18.6807,0,32.513,15.2679,33.3217,33.3215C177.0458,169.3618,160.3481,184.6882,142.9183,184.6882Z"/>
    <path class="svg-element__primeContrastClr" d="M432.5579,145.1321h0c0-.1005-.0065-.2-.0075-.3006-.0041-.4248-.0108-.85-.0318-1.2723-.0166-.3328-.0471-.6634-.074-.9947-.0154-.189-.0236-.379-.0424-.5674a31.8023,31.8023,0,0,0-9.1587-19.3454L309.9039,9.312a31.7832,31.7832,0,0,0-11.7594-7.4475c-.0479-.0172-.097-.0312-.145-.0483-.4377-.1543-.8777-.3022-1.3221-.4373-.0929-.0283-.1874-.0511-.28-.0786-.4013-.1179-.8034-.2333-1.2095-.3356-.1381-.0348-.2782-.0621-.4168-.0951-.3631-.0863-.726-.1728-1.0924-.2463-.18-.0361-.3619-.063-.5426-.0962-.3287-.06-.6568-.1226-.9877-.1724-.2-.03-.4017-.05-.6024-.0765-.3149-.0411-.6292-.0857-.9459-.1176-.2124-.0212-.4263-.0324-.6394-.0495-.3067-.0246-.6127-.0528-.9208-.0685-.2244-.0115-.45-.0123-.6753-.019C288.0857.0153,287.808.001,287.5289,0V.0029c-.0378,0-.0753-.0029-.1131-.0029H36.6279A36.6279,36.6279,0,0,0,0,36.6279V375.5151L105.0845,280.89,223.42,306.2605l141.8076-99.94,67.33,60.7292V145.1423Zm-31,52.21L385.991,183.3008,367.6067,166.719,347.37,180.981,216.6526,273.105l-105.07-22.5264L96.1045,247.26,84.3407,257.853,31,305.8845V36.6279A5.6343,5.6343,0,0,1,36.6279,31H287.4158a.7672.7672,0,0,1,.1131.0225v77.4817a36.6279,36.6279,0,0,0,36.6279,36.6279h77.3993l.002.01Z"/>
  </g>
</svg>
