<svg xmlns="http://www.w3.org/2000/svg" xmlns:xlink="http://www.w3.org/1999/xlink" viewBox="0 0 199.01 58.27"><defs><style>.cls-1{fill:none;}.cls-2{fill:#fff;}.cls-3{clip-path:url(#clip-path);}</style><clipPath id="clip-path"><rect class="cls-1" width="45.91" height="58.13"/></clipPath></defs><g id="Ebene_2" data-name="Ebene 2"><g id="Ebene_1-2" data-name="Ebene 1"><path class="cls-2" d="M119.56,30.89c-.11-.14-.2-.27-.32-.41l-.32-.4q-.45-.54-1-1c-.31-.31-.63-.61-1-.89a14.88,14.88,0,0,0-1.92-1.42,13.84,13.84,0,0,0-1.92-1.07,16.59,16.59,0,0,0-3-1.08,17.06,17.06,0,0,0-1.89-.37,15.38,15.38,0,0,0-1.93-.16h-1q-.49,0-1,.06l-.31,0a1.76,1.76,0,0,0-.33,0c-.46.06-.92.14-1.36.22a17.68,17.68,0,0,0-2.6.77,16.41,16.41,0,0,0-2.9,1.46,15.13,15.13,0,0,0-2.16,1.58c-.35.3-.69.61-1,.94s-.6.63-.87,1a16.76,16.76,0,0,0-3.48,6.66c-.09.32-.16.64-.23,1s-.12.64-.16,1a13.69,13.69,0,0,0-.16,1.92,4.43,4.43,0,0,0,0,.52h1.93c0-.18,0-.34,0-.52a15.4,15.4,0,0,1,.18-1.92c.06-.32.12-.64.2-1s.15-.64.24-1a15.15,15.15,0,0,1,4-6.55,8.79,8.79,0,0,1,.86-.77c.29-.25.61-.49.92-.71a15.66,15.66,0,0,1,1.93-1.16,14.84,14.84,0,0,1,2.9-1.1,15.32,15.32,0,0,1,1.69-.35l.32-.05.32,0h.11l.86-.06h1a15.22,15.22,0,0,1,1.92.16,13.25,13.25,0,0,1,1.91.43,14.67,14.67,0,0,1,3.06,1.25,15.47,15.47,0,0,1,3.84,3A14.64,14.64,0,0,1,118,32a12.74,12.74,0,0,1,1,1.43c.11.18.22.38.32.57s.21.41.32.62a15,15,0,0,1,1.49,6.54H123A17,17,0,0,0,119.56,30.89Z"/><path class="cls-2" d="M158,30.89c-.1-.14-.2-.27-.32-.41s-.21-.26-.31-.4q-.47-.54-1-1c-.32-.31-.64-.61-1-.89a15.6,15.6,0,0,0-1.92-1.42,15.1,15.1,0,0,0-1.92-1.07,16.38,16.38,0,0,0-4.86-1.45,15.22,15.22,0,0,0-1.93-.16h-1q-.51,0-1,.06l-.32,0a1.84,1.84,0,0,0-.33,0c-.46.06-.91.14-1.36.22a17.55,17.55,0,0,0-2.59.77,16.16,16.16,0,0,0-2.91,1.46,15.72,15.72,0,0,0-2.16,1.58c-.35.3-.68.61-1,.94s-.6.63-.88,1a16.89,16.89,0,0,0-3.48,6.66c-.08.32-.16.64-.22,1s-.13.64-.17,1a15.38,15.38,0,0,0-.16,1.92,4.43,4.43,0,0,0,0,.52h1.93c0-.18,0-.34,0-.52a17.56,17.56,0,0,1,.18-1.92c.06-.32.13-.64.2-1s.15-.64.25-1a15.05,15.05,0,0,1,4-6.55,8.69,8.69,0,0,1,.85-.77c.3-.25.61-.49.93-.71a14.83,14.83,0,0,1,1.92-1.16,15.26,15.26,0,0,1,4.59-1.45l.33-.05.31,0h.11l.86-.06h1a15.06,15.06,0,0,1,1.92.16,13.69,13.69,0,0,1,1.92.43,15.13,15.13,0,0,1,3.06,1.25,15.85,15.85,0,0,1,1.92,1.26,15.09,15.09,0,0,1,1.92,1.75c.34.37.66.75,1,1.14a14.26,14.26,0,0,1,1,1.43c.1.18.22.38.31.57s.22.41.32.62a15,15,0,0,1,1.5,6.54h1.91A17,17,0,0,0,158,30.89Z"/><path class="cls-2" d="M168.26,34.25c.1.14.2.27.32.41s.21.26.31.4q.47.54,1,1c.32.31.64.61,1,.89a15.6,15.6,0,0,0,1.92,1.42,15.1,15.1,0,0,0,1.92,1.07,16.38,16.38,0,0,0,4.86,1.45,15.22,15.22,0,0,0,1.93.16h1q.51,0,1-.06l.32,0a1.84,1.84,0,0,0,.33,0c.46-.06.91-.14,1.36-.22A17.55,17.55,0,0,0,188,40a16.16,16.16,0,0,0,2.91-1.46A15.72,15.72,0,0,0,193.08,37c.35-.3.68-.61,1-.94s.6-.63.88-1a16.89,16.89,0,0,0,3.48-6.66c.08-.32.16-.64.22-1s.13-.64.17-1a15.38,15.38,0,0,0,.16-1.92,4.43,4.43,0,0,0,0-.52h-1.93c0,.18,0,.34,0,.52a17.56,17.56,0,0,1-.18,1.92c-.06.32-.13.64-.2,1s-.15.64-.25,1a15.05,15.05,0,0,1-4,6.55,8.69,8.69,0,0,1-.85.77c-.3.25-.61.49-.93.71a14.83,14.83,0,0,1-1.92,1.16A15.26,15.26,0,0,1,184.13,39l-.33,0-.31,0h-.11l-.86.06h-1a15.06,15.06,0,0,1-1.92-.16,13.69,13.69,0,0,1-1.92-.43,15.13,15.13,0,0,1-3.06-1.25,15.85,15.85,0,0,1-1.92-1.26,15.09,15.09,0,0,1-1.92-1.75c-.34-.37-.66-.75-1-1.14a14.26,14.26,0,0,1-1-1.43c-.1-.18-.22-.38-.31-.57s-.22-.41-.32-.62a15,15,0,0,1-1.5-6.54h-1.91A17,17,0,0,0,168.26,34.25Z"/><g class="cls-3"><path class="cls-2" d="M12.42,15a16.61,16.61,0,0,0-3.15,5.42A14.37,14.37,0,0,0,8.63,23a10.34,10.34,0,0,1,.68-3.8A9.72,9.72,0,0,1,12.42,15Z"/><path class="cls-2" d="M26.52,8.64a9.3,9.3,0,0,0-2,3.19A19.61,19.61,0,0,1,26,9.73a14.92,14.92,0,0,1,4.84-3.62A9.43,9.43,0,0,0,26.52,8.64Zm6.33,1.44a1.79,1.79,0,0,0-1.25-.74c-1.25-.13-2.5,1.05-5,4.93-1.13,1.75-2.63,4.1-4.2,7.12a21.66,21.66,0,0,0,6.25-4.11C30.23,15.71,33.74,11.78,32.85,10.08Zm0,0a1.79,1.79,0,0,0-1.25-.74c-1.25-.13-2.5,1.05-5,4.93-1.13,1.75-2.63,4.1-4.2,7.12a21.66,21.66,0,0,0,6.25-4.11C30.23,15.71,33.74,11.78,32.85,10.08ZM26.52,8.64a9.3,9.3,0,0,0-2,3.19A19.61,19.61,0,0,1,26,9.73a14.92,14.92,0,0,1,4.84-3.62A9.43,9.43,0,0,0,26.52,8.64Zm0,0a9.3,9.3,0,0,0-2,3.19A19.61,19.61,0,0,1,26,9.73a14.92,14.92,0,0,1,4.84-3.62A9.43,9.43,0,0,0,26.52,8.64ZM27,45.26A15.06,15.06,0,0,1,22.21,49a8.73,8.73,0,0,0,4.31-2.62,10,10,0,0,0,2-3.27A17.74,17.74,0,0,1,27,45.26Zm5.88-35.18a1.79,1.79,0,0,0-1.25-.74c-1.25-.13-2.5,1.05-5,4.93-1.13,1.75-2.63,4.1-4.2,7.12a21.66,21.66,0,0,0,6.25-4.11C30.23,15.71,33.74,11.78,32.85,10.08ZM27,45.26A15.06,15.06,0,0,1,22.21,49a8.73,8.73,0,0,0,4.31-2.62,10,10,0,0,0,2-3.27A17.74,17.74,0,0,1,27,45.26ZM26.52,8.64a9.3,9.3,0,0,0-2,3.19A19.61,19.61,0,0,1,26,9.73a14.92,14.92,0,0,1,4.84-3.62A9.43,9.43,0,0,0,26.52,8.64Zm6.33,1.44a1.79,1.79,0,0,0-1.25-.74c-1.25-.13-2.5,1.05-5,4.93-1.13,1.75-2.63,4.1-4.2,7.12a21.66,21.66,0,0,0,6.25-4.11C30.23,15.71,33.74,11.78,32.85,10.08Zm0,0a1.79,1.79,0,0,0-1.25-.74c-1.25-.13-2.5,1.05-5,4.93-1.13,1.75-2.63,4.1-4.2,7.12a21.66,21.66,0,0,0,6.25-4.11C30.23,15.71,33.74,11.78,32.85,10.08ZM26.52,8.64a9.3,9.3,0,0,0-2,3.19A19.61,19.61,0,0,1,26,9.73a14.92,14.92,0,0,1,4.84-3.62A9.43,9.43,0,0,0,26.52,8.64ZM27,45.26A15.06,15.06,0,0,1,22.21,49a8.73,8.73,0,0,0,4.31-2.62,10,10,0,0,0,2-3.27A17.74,17.74,0,0,1,27,45.26Zm5.88-35.18a1.79,1.79,0,0,0-1.25-.74c-1.25-.13-2.5,1.05-5,4.93-1.13,1.75-2.63,4.1-4.2,7.12a21.66,21.66,0,0,0,6.25-4.11C30.23,15.71,33.74,11.78,32.85,10.08ZM27,45.26A15.06,15.06,0,0,1,22.21,49a8.73,8.73,0,0,0,4.31-2.62,10,10,0,0,0,2-3.27A17.74,17.74,0,0,1,27,45.26ZM26.52,8.64a9.3,9.3,0,0,0-2,3.19A19.61,19.61,0,0,1,26,9.73a14.92,14.92,0,0,1,4.84-3.62A9.43,9.43,0,0,0,26.52,8.64Zm0,0a9.3,9.3,0,0,0-2,3.19A19.61,19.61,0,0,1,26,9.73a14.92,14.92,0,0,1,4.84-3.62A9.43,9.43,0,0,0,26.52,8.64Zm6.33,1.44a1.79,1.79,0,0,0-1.25-.74c-1.25-.13-2.5,1.05-5,4.93-1.13,1.75-2.63,4.1-4.2,7.12a21.66,21.66,0,0,0,6.25-4.11C30.23,15.71,33.74,11.78,32.85,10.08Zm0,0a1.79,1.79,0,0,0-1.25-.74c-1.25-.13-2.5,1.05-5,4.93-1.13,1.75-2.63,4.1-4.2,7.12a21.66,21.66,0,0,0,6.25-4.11C30.23,15.71,33.74,11.78,32.85,10.08ZM26.52,8.64a9.3,9.3,0,0,0-2,3.19A19.61,19.61,0,0,1,26,9.73a14.92,14.92,0,0,1,4.84-3.62A9.43,9.43,0,0,0,26.52,8.64Zm0,0a9.3,9.3,0,0,0-2,3.19A19.61,19.61,0,0,1,26,9.73a14.92,14.92,0,0,1,4.84-3.62A9.43,9.43,0,0,0,26.52,8.64Zm6.33,1.44a1.79,1.79,0,0,0-1.25-.74c-1.25-.13-2.5,1.05-5,4.93-1.13,1.75-2.63,4.1-4.2,7.12a21.66,21.66,0,0,0,6.25-4.11C30.23,15.71,33.74,11.78,32.85,10.08Zm0,0a1.79,1.79,0,0,0-1.25-.74c-1.25-.13-2.5,1.05-5,4.93-1.13,1.75-2.63,4.1-4.2,7.12a21.66,21.66,0,0,0,6.25-4.11C30.23,15.71,33.74,11.78,32.85,10.08ZM26.52,8.64a9.3,9.3,0,0,0-2,3.19A19.61,19.61,0,0,1,26,9.73a14.92,14.92,0,0,1,4.84-3.62A9.43,9.43,0,0,0,26.52,8.64Z"/><path class="cls-2" d="M41.68,29.11a18.46,18.46,0,0,0,4.23-12C45.91,7.68,39.22,0,31,0H6.13A6.39,6.39,0,0,0,0,6.63V51.54a6.4,6.4,0,0,0,6.13,6.64H31c8.26,0,14.95-7.68,14.95-17.11A18.38,18.38,0,0,0,41.68,29.11Zm-9-10.34a78.49,78.49,0,0,1-7.21,6.33c-.89.74-1.86,1.52-3,2.4l-2.13,1.7c-.29.22-.45.35-.57.43a2.11,2.11,0,0,0-.4.4c-4.92,5.28-6.09,15.23-2.86,17.72a3.43,3.43,0,0,0,.88.48c2.06.74,5.12-.22,6.86-1.92a21,21,0,0,0,3.67-4.8c.68-1.4,1.61-2.54,3.14-1.71,1.73.92,1.37,2.54.64,4a19.11,19.11,0,0,1-6.57,7.55,12.82,12.82,0,0,1-4.47,2,6.87,6.87,0,0,1-3,0,8.84,8.84,0,0,1-6.49-6.24c-.93-3.8.92-9.82,1.65-11.61a2.9,2.9,0,0,0,.2-2c-.24-.78-.81-1.35-2.18-1.87a5.69,5.69,0,0,1-2.74-2.1,8.08,8.08,0,0,1-.92-4.8,14.44,14.44,0,0,1,1.57-6c1.29-2.57,3.67-5.5,5-5a2.19,2.19,0,0,1,.92.83,2.84,2.84,0,0,1,.49,1.44,2.7,2.7,0,0,1-.65,1.53c-1.25,1.53-4.07,7-2.82,9a2,2,0,0,0,2.18.69c1.13-.3,1.65-1.7,1.85-2.18.32-.83.69-1.66,1-2.49a61.69,61.69,0,0,1,7.17-12.35c4.2-5.58,8.19-6.94,11.21-4S37.25,13.75,32.65,18.77Z"/><path class="cls-2" d="M30.88,6.15A14.57,14.57,0,0,0,26,9.78a13.15,13.15,0,0,0-1.53,2.09,10.24,10.24,0,0,1,2-3.18A8.7,8.7,0,0,1,30.88,6.15Z"/><path class="cls-2" d="M28.58,17.28c-.49.47-1.15,1-2.44,2-1.92,1.53-3.54,2.74-4.65,3.54.71-1.32,1.75-3.21,3.09-5.47s1.79-2.86,1.94-3.1c2.54-3.88,3.79-5.06,5-4.93a1.53,1.53,0,0,1,1.25.74C33.74,11.78,30.23,15.71,28.58,17.28Z"/><path class="cls-2" d="M28.46,43.16a9.83,9.83,0,0,1-2,3.28,8.73,8.73,0,0,1-4.31,2.62,14.69,14.69,0,0,0,4.76-3.76A15.49,15.49,0,0,0,28.46,43.16Z"/></g><path class="cls-2" d="M66.8,56.25l-1-.07-.25,0h-.06l-.32,0a14.61,14.61,0,0,1-1.65-.34,7.45,7.45,0,0,1-1-.3,9.94,9.94,0,0,1-1-.35,15.22,15.22,0,0,1-8.31-8.45c-.13-.32-.25-.64-.35-1s-.19-.62-.27-1a13.27,13.27,0,0,1-.34-1.92,13.79,13.79,0,0,1-.09-1.71v-.51a15.22,15.22,0,0,1,.19-1.92c.05-.32.12-.65.2-1a9.62,9.62,0,0,1,.24-1,15.09,15.09,0,0,1,4-6.56c.28-.27.56-.53.86-.77s.6-.48.92-.7a13,13,0,0,1,1.93-1.16,14.84,14.84,0,0,1,2.9-1.1,13.32,13.32,0,0,1,1.69-.35l.32-.05.31,0H66L66.8,26h1a13.32,13.32,0,0,1,1.92.16,12.14,12.14,0,0,1,1.92.42,15.51,15.51,0,0,1,3.06,1.26,16.2,16.2,0,0,1,1.92,1.25A16,16,0,0,1,78.5,30.8c.34.37.67.75,1,1.14a12.87,12.87,0,0,1,1,1.44c.1.18.22.38.31.57s.22.41.33.61a15,15,0,0,1,1.49,6.54h1.92a17,17,0,0,0-3.41-10.21,3.29,3.29,0,0,0-.33-.41c-.09-.13-.21-.27-.31-.4-.3-.36-.63-.71-1-1.06s-.64-.6-1-.88a14,14,0,0,0-1.92-1.42,15.73,15.73,0,0,0-1.92-1.08,16.84,16.84,0,0,0-3-1.07,15.39,15.39,0,0,0-1.89-.37A13.83,13.83,0,0,0,67.88,24h-1c-.33,0-.67,0-1,.05l-.31,0-.34,0c-.45.06-.91.13-1.36.22a16.74,16.74,0,0,0-2.59.77A16.46,16.46,0,0,0,58.4,26.6a15.92,15.92,0,0,0-2.15,1.59,11.24,11.24,0,0,0-1,.94c-.31.31-.6.63-.88,1a16.74,16.74,0,0,0-3.47,6.66c-.09.31-.17.64-.23,1a8,8,0,0,0-.16,1,12.23,12.23,0,0,0-.16,1.92,4.35,4.35,0,0,0,0,.51,13.79,13.79,0,0,0,.09,1.71,13.25,13.25,0,0,0,.3,1.92c.06.34.15.65.23,1s.2.65.31,1a17.14,17.14,0,0,0,8.66,9.79c.35.17.7.33,1.06.47a10.38,10.38,0,0,0,1.06.39,14,14,0,0,0,2.23.57c.23,0,.47.1.71.13l.23,0,.28,0h0a1.65,1.65,0,0,0,.31,0c.32,0,.64.06,1,.07h.6V56.26Z"/><rect class="cls-2" x="88.81" y="41.11" width="1.92" height="17.07"/><rect class="cls-2" x="121.05" y="41.11" width="1.92" height="17.07"/><rect class="cls-2" x="127.25" y="41.2" width="1.92" height="17.07"/><rect class="cls-2" x="159.49" y="41.2" width="1.92" height="17.07"/><rect class="cls-2" x="180.97" y="41.2" width="1.92" height="17.07"/></g></g></svg>