<svg width="46" height="59" viewBox="0 0 46 59" fill="none" xmlns="http://www.w3.org/2000/svg">
<g clip-path="url(#clip0_302_52)">
<path d="M12.4157 15.0138C11.4079 16.1485 10.1583 17.938 9.27144 20.4257C8.94895 21.3422 8.7474 22.2151 8.62646 23.0007C8.62646 22.1278 8.70709 20.7312 9.31175 19.2037C10.1986 16.8905 11.6901 15.5811 12.4157 15.0138Z" fill="white"/>
<path d="M26.5247 8.64165C25.396 9.82006 24.7913 11.0421 24.5092 11.8277C24.9123 11.173 25.4363 10.4747 26.041 9.73277C27.734 7.8124 29.5883 6.72129 30.8783 6.11026C30.0318 6.32848 28.1775 6.93951 26.5247 8.64165ZM32.8535 10.0819C32.5311 9.4709 31.7248 9.38361 31.6039 9.33997C30.3543 9.20903 29.1046 10.3874 26.565 14.2718C25.4363 16.0176 23.9448 18.3744 22.3727 21.3859C25.3557 20.0766 27.3712 18.4617 28.6209 17.2833C30.2333 15.7121 33.7404 11.7841 32.8535 10.0819ZM32.8535 10.0819C32.5311 9.4709 31.7248 9.38361 31.6039 9.33997C30.3543 9.20903 29.1046 10.3874 26.565 14.2718C25.4363 16.0176 23.9448 18.3744 22.3727 21.3859C25.3557 20.0766 27.3712 18.4617 28.6209 17.2833C30.2333 15.7121 33.7404 11.7841 32.8535 10.0819ZM26.5247 8.64165C25.396 9.82006 24.7913 11.0421 24.5092 11.8277C24.9123 11.173 25.4363 10.4747 26.041 9.73277C27.734 7.8124 29.5883 6.72129 30.8783 6.11026C30.0318 6.32848 28.1775 6.93951 26.5247 8.64165ZM26.5247 8.64165C25.396 9.82006 24.7913 11.0421 24.5092 11.8277C24.9123 11.173 25.4363 10.4747 26.041 9.73277C27.734 7.8124 29.5883 6.72129 30.8783 6.11026C30.0318 6.32848 28.1775 6.93951 26.5247 8.64165ZM26.9681 45.2596C25.3154 47.2236 23.5014 48.3583 22.2114 49.013C23.058 48.7948 24.9123 48.1838 26.5247 46.3943C27.6131 45.2159 28.1775 43.9502 28.4999 43.121C28.0565 43.8193 27.5728 44.5612 26.9681 45.2596ZM32.8535 10.0819C32.5311 9.4709 31.7248 9.38361 31.6039 9.33997C30.3543 9.20903 29.1046 10.3874 26.565 14.2718C25.4363 16.0176 23.9448 18.3744 22.3727 21.3859C25.3557 20.0766 27.3712 18.4617 28.6209 17.2833C30.2333 15.7121 33.7404 11.7841 32.8535 10.0819ZM26.9681 45.2596C25.3154 47.2236 23.5014 48.3583 22.2114 49.013C23.058 48.7948 24.9123 48.1838 26.5247 46.3943C27.6131 45.2159 28.1775 43.9502 28.4999 43.121C28.0565 43.8193 27.5728 44.5612 26.9681 45.2596ZM26.5247 8.64165C25.396 9.82006 24.7913 11.0421 24.5092 11.8277C24.9123 11.173 25.4363 10.4747 26.041 9.73277C27.734 7.8124 29.5883 6.72129 30.8783 6.11026C30.0318 6.32848 28.1775 6.93951 26.5247 8.64165ZM32.8535 10.0819C32.5311 9.4709 31.7248 9.38361 31.6039 9.33997C30.3543 9.20903 29.1046 10.3874 26.565 14.2718C25.4363 16.0176 23.9448 18.3744 22.3727 21.3859C25.3557 20.0766 27.3712 18.4617 28.6209 17.2833C30.2333 15.7121 33.7404 11.7841 32.8535 10.0819ZM32.8535 10.0819C32.5311 9.4709 31.7248 9.38361 31.6039 9.33997C30.3543 9.20903 29.1046 10.3874 26.565 14.2718C25.4363 16.0176 23.9448 18.3744 22.3727 21.3859C25.3557 20.0766 27.3712 18.4617 28.6209 17.2833C30.2333 15.7121 33.7404 11.7841 32.8535 10.0819ZM26.5247 8.64165C25.396 9.82006 24.7913 11.0421 24.5092 11.8277C24.9123 11.173 25.4363 10.4747 26.041 9.73277C27.734 7.8124 29.5883 6.72129 30.8783 6.11026C30.0318 6.32848 28.1775 6.93951 26.5247 8.64165ZM26.9681 45.2596C25.3154 47.2236 23.5014 48.3583 22.2114 49.013C23.058 48.7948 24.9123 48.1838 26.5247 46.3943C27.6131 45.2159 28.1775 43.9502 28.4999 43.121C28.0565 43.8193 27.5728 44.5612 26.9681 45.2596ZM32.8535 10.0819C32.5311 9.4709 31.7248 9.38361 31.6039 9.33997C30.3543 9.20903 29.1046 10.3874 26.565 14.2718C25.4363 16.0176 23.9448 18.3744 22.3727 21.3859C25.3557 20.0766 27.3712 18.4617 28.6209 17.2833C30.2333 15.7121 33.7404 11.7841 32.8535 10.0819ZM26.9681 45.2596C25.3154 47.2236 23.5014 48.3583 22.2114 49.013C23.058 48.7948 24.9123 48.1838 26.5247 46.3943C27.6131 45.2159 28.1775 43.9502 28.4999 43.121C28.0565 43.8193 27.5728 44.5612 26.9681 45.2596ZM26.5247 8.64165C25.396 9.82006 24.7913 11.0421 24.5092 11.8277C24.9123 11.173 25.4363 10.4747 26.041 9.73277C27.734 7.8124 29.5883 6.72129 30.8783 6.11026C30.0318 6.32848 28.1775 6.93951 26.5247 8.64165ZM26.5247 8.64165C25.396 9.82006 24.7913 11.0421 24.5092 11.8277C24.9123 11.173 25.4363 10.4747 26.041 9.73277C27.734 7.8124 29.5883 6.72129 30.8783 6.11026C30.0318 6.32848 28.1775 6.93951 26.5247 8.64165ZM32.8535 10.0819C32.5311 9.4709 31.7248 9.38361 31.6039 9.33997C30.3543 9.20903 29.1046 10.3874 26.565 14.2718C25.4363 16.0176 23.9448 18.3744 22.3727 21.3859C25.3557 20.0766 27.3712 18.4617 28.6209 17.2833C30.2333 15.7121 33.7404 11.7841 32.8535 10.0819ZM32.8535 10.0819C32.5311 9.4709 31.7248 9.38361 31.6039 9.33997C30.3543 9.20903 29.1046 10.3874 26.565 14.2718C25.4363 16.0176 23.9448 18.3744 22.3727 21.3859C25.3557 20.0766 27.3712 18.4617 28.6209 17.2833C30.2333 15.7121 33.7404 11.7841 32.8535 10.0819ZM26.5247 8.64165C25.396 9.82006 24.7913 11.0421 24.5092 11.8277C24.9123 11.173 25.4363 10.4747 26.041 9.73277C27.734 7.8124 29.5883 6.72129 30.8783 6.11026C30.0318 6.32848 28.1775 6.93951 26.5247 8.64165ZM26.5247 8.64165C25.396 9.82006 24.7913 11.0421 24.5092 11.8277C24.9123 11.173 25.4363 10.4747 26.041 9.73277C27.734 7.8124 29.5883 6.72129 30.8783 6.11026C30.0318 6.32848 28.1775 6.93951 26.5247 8.64165ZM32.8535 10.0819C32.5311 9.4709 31.7248 9.38361 31.6039 9.33997C30.3543 9.20903 29.1046 10.3874 26.565 14.2718C25.4363 16.0176 23.9448 18.3744 22.3727 21.3859C25.3557 20.0766 27.3712 18.4617 28.6209 17.2833C30.2333 15.7121 33.7404 11.7841 32.8535 10.0819ZM32.8535 10.0819C32.5311 9.4709 31.7248 9.38361 31.6039 9.33997C30.3543 9.20903 29.1046 10.3874 26.565 14.2718C25.4363 16.0176 23.9448 18.3744 22.3727 21.3859C25.3557 20.0766 27.3712 18.4617 28.6209 17.2833C30.2333 15.7121 33.7404 11.7841 32.8535 10.0819ZM26.5247 8.64165C25.396 9.82006 24.7913 11.0421 24.5092 11.8277C24.9123 11.173 25.4363 10.4747 26.041 9.73277C27.734 7.8124 29.5883 6.72129 30.8783 6.11026C30.0318 6.32848 28.1775 6.93951 26.5247 8.64165Z" fill="white"/>
<path d="M41.6816 29.111C44.3018 26.0122 45.9143 21.8223 45.9143 17.1524C45.9143 7.68147 39.2226 0 30.9589 0H6.12728C2.74115 0 0 2.96784 0 6.63399V51.5444C0 55.2105 2.74115 58.1784 6.12728 58.1784H30.9589C39.2226 58.1784 45.9143 50.4969 45.9143 41.0697C45.9143 36.3997 44.3018 32.1661 41.6816 29.111ZM32.6519 18.7672C31.7248 19.8147 29.548 21.7351 25.4363 25.0957C24.5494 25.8377 23.582 26.6233 22.4936 27.4962C21.4455 28.3254 20.7602 28.8928 20.3571 29.1983C20.0749 29.4165 19.9136 29.5475 19.7927 29.6348C19.5508 29.8093 19.5105 29.8966 19.3896 30.0276C14.4717 35.3086 13.3026 45.2596 16.5275 47.7473C16.8097 47.9655 17.0919 48.0965 17.4144 48.2274C19.4702 48.9693 22.5339 48.0092 24.2672 46.307C26.7665 43.8193 27.9355 41.5061 27.9355 41.5061C28.6208 40.1095 29.548 38.9747 31.0798 39.804C32.8132 40.7205 32.4504 42.3354 31.7248 43.8193C30.1526 46.9617 27.9759 49.4931 25.1541 51.3698C23.6626 52.3736 22.1711 53.072 20.6796 53.3775C19.954 53.552 18.9059 53.6393 17.6965 53.3775C14.8345 52.7664 11.9724 50.2787 11.2065 47.1363C10.2793 43.3392 12.1336 37.3162 12.8592 35.5268C12.9802 35.2213 13.343 34.392 13.0608 33.5628C12.8189 32.7772 12.2546 32.2098 10.884 31.686C9.67465 31.206 8.74749 30.5076 8.14283 29.5911C7.21567 28.1945 7.17536 26.536 7.21567 24.7902C7.25599 23.9609 7.37692 21.6041 8.7878 18.8109C10.0778 16.2358 12.4561 13.3116 13.7461 13.7917C13.9879 13.879 14.391 14.1845 14.6732 14.621C14.7538 14.7519 15.1569 15.3629 15.1569 16.0612C15.1166 16.8469 14.6732 17.3706 14.512 17.5888C13.2623 19.1164 10.4406 24.6156 11.6902 26.536C12.1739 27.2343 13.1817 27.4525 13.867 27.2343C14.9957 26.9288 15.5197 25.5321 15.7213 25.0521C16.0438 24.2228 16.4066 23.3936 16.7694 22.5643C18.7043 18.1562 21.0827 14.0099 23.9448 10.2129C28.1371 4.62634 32.1279 3.27335 35.1512 6.19755C38.1342 9.25268 37.2474 13.7481 32.6519 18.7672Z" fill="white"/>
<path d="M30.8782 6.1539C29.5479 6.76493 27.7339 7.85604 26.0409 9.77641C25.3959 10.4747 24.9121 11.2167 24.509 11.8714C24.8315 11.0858 25.4362 9.82005 26.5246 8.68529C28.1773 6.9395 30.0316 6.32848 30.8782 6.1539Z" fill="white"/>
<path d="M28.5805 17.2833C27.3712 18.4617 25.3556 20.1202 22.3323 21.3859C23.9044 18.4181 25.3556 16.0176 26.5246 14.2718C29.0642 10.3874 30.3139 9.20904 31.5635 9.33997C31.6844 9.33997 32.4907 9.42726 32.8132 10.0819C33.7403 11.7841 30.2332 15.7121 28.5805 17.2833Z" fill="white"/>
<path d="M28.4597 43.1646C28.1775 43.9939 27.5728 45.2159 26.4844 46.438C24.872 48.2274 23.0177 48.8384 22.1711 49.0566C23.5014 48.402 25.2751 47.2672 26.9278 45.3032C27.5728 44.5612 28.0566 43.8193 28.4597 43.1646Z" fill="white"/>
</g>
<defs>
<clipPath id="clip0_302_52">
<rect width="45.9143" height="58.1347" fill="white"/>
</clipPath>
</defs>
</svg>
