<svg xmlns="http://www.w3.org/2000/svg" viewBox="0 0 53.4923 41.4281">
    <defs>
        <style>
            @media (prefers-color-scheme: light) {
                path {
                    fill: #282826;
                }
            }
            @media (prefers-color-scheme: dark) {
                path {
                    fill: white;
                }
            }
        </style>
    </defs>
    <g>
    <path
          d="M35.4093,0a5.4679,5.4679,0,0,0-2.1942,1.0894,5.7282,5.7282,0,0,0-.8064.8351C31.3236,3.3279,30.7961,5.39,30.7961,8.2282V40.9825a.685.685,0,0,0,.1638.4456H20.0982a8.8248,8.8248,0,0,0,2.3736-.9366c1.9139-1.18,2.9767-4.0745,2.7115-7.3808V20.331c-.0547-.0414-.1125-.082-.1735-.1213a3.0479,3.0479,0,0,0-1.3532-.4587,1.9228,1.9228,0,0,0,1.399-.47,1.4166,1.4166,0,0,0,.1277-.1447V8.2333a11.053,11.053,0,0,0-.8252-4.3355A6.2666,6.2666,0,0,0,22.3916.95,5.7627,5.7627,0,0,0,20.3271,0H35.4093Z"/>
    <path
          d="M13.4688.0169A7.7152,7.7152,0,0,0,9.94,2.0923C7.844,4.3069,7.8869,7.191,7.8869,9.1781c0,6.6541,2.8437,10.2185,8.4562,10.61a14.8235,14.8235,0,0,0-3.3485.6585,8.6848,8.6848,0,0,0-4.0774,2.9749A11.1469,11.1469,0,0,0,6.726,30.6261c0,3.4926.9066,6.2425,2.6947,8.1735a8.93,8.93,0,0,0,4.7542,2.6284A20.86,20.86,0,0,1,6.554,40.1436a10.8355,10.8355,0,0,1-4.8753-3.5671A8.8583,8.8583,0,0,1,0,31.2083a9.3947,9.3947,0,0,1,.7618-3.8232c1.11-2.5261,3.0674-3.8138,4.8888-5.0056a19.5764,19.5764,0,0,1,5.9816-2.6,32.4561,32.4561,0,0,1-4.5693-2.23,13.3684,13.3684,0,0,1-2.58-1.789,8.6348,8.6348,0,0,1-2.5864-3.8057A7.5434,7.5434,0,0,1,1.54,9.6683a8.7431,8.7431,0,0,1,.944-3.9933A9.5045,9.5045,0,0,1,5.1672,2.4841,10.8968,10.8968,0,0,1,9.0409.6956,16.4706,16.4706,0,0,1,13.4688.0169Z"/>
    <path
          d="M53.4923,25.37V41.4281H42.1589A9.7307,9.7307,0,0,0,45.22,40.1049a13.87,13.87,0,0,0,4.1221-4.2781A35.5592,35.5592,0,0,0,51.13,32.5457a28.7666,28.7666,0,0,0,1.4823-3.9568c.2954-.9746.59-2.0517.88-3.2186"/>
    </g>
</svg>