<?xml version="1.0" standalone="no"?>
<svg version="1.0" xmlns="http://www.w3.org/2000/svg"
 width="848.000000pt" height="848.000000pt" viewBox="0 0 848.000000 848.000000"
 preserveAspectRatio="xMidYMid meet">
<g transform="translate(0.000000,848.000000) scale(0.100000,-0.100000)"
fill="#000000" stroke="none">
<path d="M2017 7514 c-1 -1 -40 -5 -87 -9 -47 -4 -92 -8 -100 -10 -91 -13
-130 -21 -221 -41 -117 -26 -325 -86 -394 -113 -16 -6 -43 -17 -60 -23 -57
-22 -197 -99 -283 -156 -93 -61 -270 -229 -339 -322 -42 -57 -117 -171 -118
-180 0 -3 -5 -12 -10 -20 -20 -31 -54 -110 -47 -110 4 0 2 -4 -4 -8 -6 -4 -21
-38 -33 -77 -13 -38 -25 -77 -28 -85 -4 -8 -6 -18 -5 -22 1 -4 -2 -18 -8 -32
-5 -13 -11 -44 -14 -68 -3 -23 -8 -61 -12 -83 -20 -122 -5 -337 34 -486 24
-92 97 -256 143 -320 10 -15 19 -32 19 -37 0 -6 3 -12 8 -14 4 -1 21 -23 37
-48 17 -24 77 -92 135 -150 133 -133 274 -241 443 -337 34 -19 76 -43 92 -53
91 -51 161 -89 274 -145 131 -65 157 -77 304 -140 89 -38 97 -49 42 -58 -16
-3 -68 -17 -115 -33 -47 -15 -87 -28 -90 -29 -4 0 -37 -12 -95 -35 -83 -32
-120 -48 -193 -82 -46 -21 -87 -38 -92 -38 -4 0 -13 -7 -20 -15 -7 -8 -21 -15
-31 -15 -11 0 -19 -5 -19 -11 0 -5 -4 -7 -10 -4 -5 3 -10 3 -10 -2 0 -4 -34
-26 -75 -48 -41 -22 -75 -43 -75 -47 0 -5 -5 -8 -11 -8 -13 0 -182 -111 -187
-122 -2 -5 -8 -8 -13 -8 -11 0 -182 -128 -248 -186 -144 -126 -265 -278 -342
-430 -28 -57 -51 -105 -50 -109 1 -3 -5 -18 -13 -33 -16 -32 -56 -164 -62
-207 -2 -16 -6 -35 -8 -42 -29 -75 -29 -453 0 -592 15 -75 64 -233 75 -246 5
-5 9 -19 9 -32 0 -13 4 -23 10 -23 5 0 13 -12 16 -27 4 -16 10 -30 13 -33 3
-3 15 -23 26 -45 11 -22 22 -42 25 -45 3 -3 18 -25 32 -50 15 -25 42 -63 60
-85 39 -46 204 -213 233 -235 71 -54 110 -86 113 -92 2 -5 8 -8 14 -8 5 0 30
-14 54 -31 54 -37 208 -116 284 -147 131 -51 397 -131 494 -148 17 -2 38 -7
46 -9 8 -2 29 -7 45 -10 17 -2 39 -7 50 -9 11 -2 43 -7 70 -10 28 -4 64 -9 80
-12 99 -16 465 -29 425 -15 -14 5 -65 21 -113 35 -161 49 -334 145 -473 262
-111 94 -146 132 -261 289 -76 104 -193 381 -219 520 -9 45 -12 60 -15 60 -1
0 -3 9 -5 20 -1 11 -5 31 -8 44 -5 22 -8 46 -22 156 -22 185 -22 637 0 674 2
3 7 27 11 51 18 127 77 305 151 455 62 123 64 127 119 209 22 33 45 66 50 75
26 40 127 145 209 219 62 56 192 140 291 188 52 25 100 47 107 48 7 1 18 4 23
8 9 5 100 32 148 43 10 2 27 7 37 10 22 7 50 13 104 21 22 3 43 7 47 10 8 4
101 16 146 18 49 2 25 13 -42 19 -72 7 -110 14 -190 33 -33 8 -70 17 -83 20
-94 20 -308 123 -408 197 -104 77 -274 258 -274 292 0 3 -8 14 -18 25 -36 39
-117 215 -156 340 -44 139 -49 162 -62 245 -3 25 -15 92 -19 115 -20 106 -28
647 -11 790 5 41 9 83 10 93 0 9 3 17 6 17 3 0 5 10 6 23 5 113 101 359 188
481 65 91 185 209 280 274 63 43 168 105 188 111 4 1 28 10 54 21 25 11 57 23
70 26 40 10 36 22 -7 20 -22 0 -41 -2 -42 -2z"/>
<path d="M3290 7501 c194 -64 334 -172 449 -345 78 -118 175 -364 207 -526 3
-14 9 -41 14 -60 4 -19 11 -57 14 -85 4 -27 9 -66 12 -85 7 -49 8 -1893 0
-1916 -9 -28 -69 -65 -139 -85 -34 -10 -55 -18 -47 -19 8 -1 23 -3 32 -5 23
-4 119 -50 141 -67 18 -13 18 -62 19 -1111 1 -605 5 -1100 10 -1103 4 -3 5
-10 2 -16 -4 -6 -8 -38 -9 -72 -2 -34 -6 -84 -10 -111 -4 -28 -8 -62 -10 -77
-15 -109 -76 -296 -132 -403 -35 -67 -102 -161 -152 -212 -43 -45 -148 -123
-164 -123 -6 0 -18 -6 -26 -13 -14 -12 -141 -68 -166 -74 -5 -1 -37 -11 -70
-22 l-60 -19 849 -1 c804 -1 848 0 840 17 -10 20 -11 5419 -1 5507 4 33 9 83
12 110 3 28 10 75 17 105 6 30 13 62 14 70 2 13 20 83 29 115 1 6 3 12 3 15 0
3 14 35 30 72 17 36 28 69 25 72 -4 3 -1 6 5 6 7 0 12 6 12 13 0 27 106 176
169 237 78 76 118 110 130 110 5 0 16 6 23 14 17 17 112 66 130 67 7 0 31 9
53 19 39 18 16 19 -1135 19 -1149 0 -1174 0 -1120 -18z"/>
<path d="M8462 3428 c-7 -29 -21 -87 -32 -128 -12 -41 -23 -86 -26 -99 -3 -13
-9 -32 -15 -42 -5 -10 -8 -22 -8 -26 1 -4 0 -15 -4 -23 -3 -8 -10 -31 -16 -50
-127 -443 -272 -777 -508 -1169 -172 -286 -350 -485 -601 -671 -153 -114 -287
-183 -467 -240 l-90 -29 893 0 892 -1 0 1265 c0 696 -2 1265 -4 1265 -2 0 -8
-24 -14 -52z"/>
</g>
</svg>
