<svg xmlns="http://www.w3.org/2000/svg" viewBox="0 0 2064.52 950.84"><defs><style>.cls-1{isolation:isolate;}.cls-2{fill:#fff;}</style></defs><g id="Ebene_2" data-name="Ebene 2"><g id="Ebene_1-2" data-name="Ebene 1"><g id="Ebene_2-2" data-name="Ebene 2"><g id="Ebene_1-2-2" data-name="Ebene 1-2"><g class="cls-1"><g class="cls-1"><path class="cls-2" d="M712.75,659.31c47.54,0,79.92,31.18,79.92,78s-32.38,77.81-79.92,77.81H637.42l0-2.22h2.82a14.26,14.26,0,0,0,14.25-14V674.23c0-7.16-6.81-12.73-14.17-12.73h-2.82l0-2.21ZM669,808.31h43.74c38.15,0,63.23-28.42,63.23-71S750.67,666,712.75,666H669Z"/></g><g class="cls-1"><path class="cls-2" d="M867.22,681.54c28,0,45.24,13.56,45.24,36,0,18.87-14.63,34.64-34.6,36.65,4.85,2.2,12.37,10.68,17.14,17.44,0,0,10.27,13.94,19.47,24.26,9.06,10.15,15.29,16.8,27.64,16.9v2.24h-7c-24.62,0-34.34-11.2-41.32-19.59-2.52-3-20.06-28.3-21.81-30.48-6-7.55-13.74-15-22.55-15V748s5.49.1,12.76-.09c12.31-.31,26.33-.43,32.72-19.14A38.69,38.69,0,0,0,896.45,716c-.47-16.68-11.69-26.47-29.59-27.37-12.51-.64-23.48-.08-25.59-.2V800.78a12.32,12.32,0,0,0,12.64,12.06h3l0,2.23H811.45l0-2.23h3a12.34,12.34,0,0,0,12.64-11.76V695.35c-.22-6.6-5.56-11.58-12.64-11.58h-3l0-2.23Z"/><path class="cls-2" d="M1041.39,815.07H951l0-2.22h3.06c7.17,0,12.57-5.25,12.84-11.82V695.42c0-6.63-5.62-11.65-12.85-11.65H951l0-2.23h65c9-.06,21-2,24.86-3.49v25.19l-2.42,0v-3.42a11,11,0,0,0-11.16-11.44H981.13V745h38c6.17-.13,9-4.3,9-9.44v-2.83l2.42,0v31.26l-2.42,0v-2.83c0-5-2.69-9.08-8.5-9.43H981.13v56.62h34.8c21.38-.29,29-10.72,35.31-25.12h2.41Z"/><path class="cls-2" d="M1140.91,758.44c6.86,5.76,10,15.26,10.08,23.91.17,19.85-17.43,35.83-39.39,35.83-13.19,0-30.28-3.22-38.39-10.49-1.4-5.92-.83-19,2.21-27.63H1078c-2,20.05,11.53,32,31.16,31.44,18.4-.52,29.66-10.11,29.66-24.57,0-6.93-2.38-12.6-8.11-17.62L1086.18,735c-8.28-7.07-10.52-16.32-10.63-24.05-.27-18.08,16.19-32.49,36.79-32.49,10.19,0,17,.91,22,2.06h7.44l.34,24.21h-2.55c0-12.33-8.25-19.67-25.71-19.67-14.87,0-26.83,9.39-26.75,21.22,0,5.72,1.77,11.92,8.75,17.53Z"/><path class="cls-2" d="M1173.07,805.94a10,10,0,1,1,10,10A10,10,0,0,1,1173.07,805.94Z"/><path class="cls-2" d="M1377.11,779.12l-13,35.94h-92.25l0-2.22h2.81a14.25,14.25,0,0,0,14.25-14V675.52a14.27,14.27,0,0,0-14.25-14h-2.82l0-2.22h48.68l0,2.22h-2.82a14.26,14.26,0,0,0-14.25,14V808.25h31.91c23.58,0,32.64-12.19,39.51-29.14Z"/><path class="cls-2" d="M1513.39,799.87c4.53,9.15,11.23,13,17.17,13h1.69v2.23h-45.72v-2.2h1.77c5.07,0,10.78-4.84,7.87-13.36L1484,769.89h-56.3l-12.25,29c-3.4,8.9,2.45,14,7.65,14h1.77v2.2h-42.4v-2.22h1.76c5.92,0,12.88-3.79,17.45-12.86l46.07-98.63c-.06,0,8.11-17.1,8.57-22.93h2.1Zm-32.12-36.66-25-60.9-25.73,60.9Z"/></g><g class="cls-1"><path class="cls-2" d="M1696.7,681.54l0,2.22H1693a12.17,12.17,0,0,0-12.37,11.14v94.89a218.36,218.36,0,0,0,2.11,28.39h-2.12L1564.85,708.36v92.86a12.15,12.15,0,0,0,12.39,11.63H1581l0,2.22h-42.06l0-2.22h3.7a12.16,12.16,0,0,0,12.4-11.63V706a185.69,185.69,0,0,0-2.14-27.8l2.39.11,115.48,108.84V694.88a12.18,12.18,0,0,0-12.37-11.12h-3.7l0-2.23Z"/></g><g class="cls-1"><path class="cls-2" d="M1850.87,789.5c-10.36,13.1-32,28.67-63.38,28.67-44-.23-73-26.75-73-69.88,0-43.32,29.07-69.87,72.92-69.87,20.51,0,36.95,4.31,51.95,13.47l4.9,31.43h-2c-6.46-26-24-38.24-55.1-38.24-34,0-56.63,24-56.63,63.22,0,39,22.76,63.2,56.9,63.2,18.53,0,35-5.72,48.91-19.29l.37-29.57c.07-5.6-3.86-8.75-10.36-8.74h-3.17v-2.23h40.81v2.23h-3c-6.5,0-10.17,3.13-10.14,8.82Z"/></g></g><g class="cls-1"><g class="cls-1"><path class="cls-2" d="M849.48,526.8a18,18,0,0,0,18,17.7h3.56l0,2.82H785.6l0-2.82h3.57a18,18,0,0,0,18-17.7V370.63a18,18,0,0,0-18-17.57h-3.59l0-2.82h85.51l0,2.82h-3.57a18,18,0,0,0-18,17.52Zm219.34,68.38c-45.89,23.65-89.61,8.44-136.07-49.56l-74.22-91.2,66.86-88.28c4.74-6.3,1.08-13.4-6.7-13.4H916v-2.49h64.57v2.54h-1.23a41.15,41.15,0,0,0-30.7,13.61l-54.86,65.14,76.57,95.14c33.86,44.57,61.22,63.71,98.16,65.68Z"/><path class="cls-2" d="M1172.6,528.19c6.09,11.52,15.73,16.32,24,16.32H1199v2.82h-89.7v-2.79h2.47c7.27,0,15.18-6.41,10.89-17.67l-13.86-34.79h-66.07l-14.4,34.79c-4.62,11.26,3.5,17.67,10.77,17.67h2.47v2.79H981.19v-2.82h2.53c8,0,17.71-4.67,23.69-15.86l65.1-147.15c2-4.29,13.16-28.69,13.85-36.89h2.53Zm-68.55-48-27.54-69.12-28.84,69.12Z"/><path class="cls-2" d="M1425.94,350.26l0,2.82h-5.19a17.39,17.39,0,0,0-17.38,16.83V515.36c0,21.21,3.26,35.92,3.26,35.92H1404L1261.76,415.82V527.54a17.39,17.39,0,0,0,17.38,17h5.2l0,2.82H1199l0-2.82h5.2a17.38,17.38,0,0,0,17.38-17V381.21c0-20.92-3.28-35.16-3.28-35.16h2.78l142,135.4V370.14a17.39,17.39,0,0,0-17.38-17.07h-5.19l0-2.81Z"/><path class="cls-2" d="M1611.46,490.68l-10.22,56.65H1445.8l0-2.62,103.22-182.82H1481c-17.36.21-28.35,11.53-28.31,28.75v3.3l-2.84.05v-49.1c5.33,2.25,22.12,5.12,34.14,5.07h89.55c11.32,0,26.51-1.9,29.83-3.64v2.44L1498.91,535.53H1558c24.65,0,43.18-17.61,50.6-44.86Z"/></g><g class="cls-1"><path class="cls-2" d="M1789.52,489.89l-13,57.45H1630.76l0-2.82h3.56a18,18,0,0,0,18-17.7V370.77a18.05,18.05,0,0,0-18-17.7h-3.56l0-2.81h85.53l0,2.81h-3.56a18.05,18.05,0,0,0-18,17.7V535.3h37c28.12,0,46.38-17.47,55.1-45.41Z"/></g><g class="cls-1"><path class="cls-2" d="M1961.24,489.9l-13,57.44H1802.48l0-2.81h3.56a18,18,0,0,0,18-17.7v-157a18,18,0,0,0-18-16.81h-3.56l0-2.79h108c12.14-.12,28.35-2.92,33.58-5.13v49.23l-2.84-.05V391c0-16.95-10.62-28-27.51-28.73h-47.36v81.92h37.32c13.83-.27,23.91-10.42,23.87-24.13v-2.44l2.76,0v65.07l-2.76,0V480.2c0-13.6-9.89-23.7-23.52-24.12h-37.67V535.3h37c28.12,0,46.37-17.47,55.1-45.41Z"/></g><g class="cls-1"><path class="cls-2" d="M2064.52,547.33H1979l0-2.82h3.57a18,18,0,0,0,18-17.7V370.64a18,18,0,0,0-18-17.59h-3.56l0-2.81h85.52l0,2.81h-3.57a18,18,0,0,0-18,17.53V526.81a18,18,0,0,0,18,17.7h3.56Z"/></g></g><path class="cls-2" d="M450.65,229c-3.75-2.5-7.69-4.74-11.36-7.35-2.09-1.49-3.75-3-6.17-.54-2,2.07-1.28,3.82.27,5.5,3.07,3.34,4.64,6.43-.73,9.06-.49.24-1.15.92-1.1,1.32,1.37,12.18-9.81,17.46-14.42,26.33-1.64,3.18-2,5.81,2.44,6.76.58.13,1.16.32,1.75.42,4.44.79,6.21,8,11.34,5.76,4.66-2,3.64-7.81,4.95-12,1.22-3.92,3.62-2.88,6.41-1.89,6.94,2.45,8.41-.54,5.9-6.55-1.69-4.08-3.85-8-6-12.36,1.91-.3,3.37-.46,4.81-.76,4.44-.93,9.85-1.56,10.37-7C459.59,230.61,453.7,231.05,450.65,229Z"/><path class="cls-2" d="M418.21,223.35a8.66,8.66,0,0,1,4-6.72,16.39,16.39,0,0,0,5.84-8.92c1-4.53,2.45-10.7-1.59-12.54-5-2.27-10.27,3.23-15.84,3.92-.37,0-1.06,2-.76,2.33,5.51,6.26-2.09,8.64-3.34,12.89-2.17,7.34-7.12,8.19-13,8.36a14.81,14.81,0,0,0-11.8,5.62,16.87,16.87,0,0,1-4.24,3.27c-1.93,1.22-6.46-3-6.14,1.95.26,4,5.13,5.61,8.25,7.82,3.59,2.55,4.84-1.05,5.81-3.31,1.94-4.55,3.9-2.89,6.75-.86,10.39,7.41,10.49,7.31,12.74-4.69,5-1.76,7,7.24,11.77,3.69C420.87,233,418.21,227.71,418.21,223.35Z"/><path class="cls-2" d="M311.39,55.48a22.53,22.53,0,0,1,9,4.19c6.35,4.56,12.56,2.25,17.84-1.62A13.4,13.4,0,0,0,342,41.83c-2.27-6.42-8-8.25-14.32-8.39-4.24.94-8.45.86-10.31,6.5-1.05,3.17-4.91,5.47-7.67,8C305.78,51.51,305.08,54.29,311.39,55.48Zm21.74-13.6c5,3.36,6.06,6.58,3.72,10.68l-.15.31a7.38,7.38,0,0,1-10,3h0C329,51.52,332.71,47.91,333.13,41.88Z"/><path class="cls-2" d="M285.7,200.44a76.45,76.45,0,0,0,8.36,5.29c2.32,1.14,5.39,2.87,7.57.82s-.6-4.42-1.58-6.36a18.8,18.8,0,0,1-.7-14c1.6-6.06-.69-8.83-7.1-6.82-1.35.42-2.81,2.29-4,1-7.85-8.38-16.68,1.61-24.87-1.43-1.69-.62-3,1.57-2.44,5.21,1.08,3.81,6.31,6.16,8.85,10.62C272.21,199,274.33,205,281,199,282.78,197.47,284.25,199.47,285.7,200.44Z"/><path class="cls-2" d="M398.41,268.05c-1,.6-2.59,1.8-3.2,1.47-10.33-5.8-17.21,5.67-26.46,5.18-4.44-.24-4.15,3-2.89,5.55a40.57,40.57,0,0,0,12.47,12.91c2.4,1.91,3.88.58,3.89-2.31a43.73,43.73,0,0,1,0-8.09c.55-2.74,2.38-4.57,4.95-1.51,3.23,3.87,6.3,10.49,11.32,8.73,5.23-1.83,4.38-9.83,7.05-14.74a8.13,8.13,0,0,0,.38-2.73C405.5,267.59,403.68,265,398.41,268.05Z"/><path class="cls-2" d="M342.45,190.57c1.67-.77,3.37-1.51,3.47-3.64.08-1.82-1.42-2.64-2.8-3.13a27.37,27.37,0,0,1-13.66-12.63c-1.95-3.16-4.12-6.76-8.09-6.25-5,.65-1.17,6.64-1.9,6.87-5.15,1.65-3.66,9.3-9.65,10-2.1.24-4.94.6-5.82,4.12,5.65,2.85,11.69,5.16,14.93,11.72,1.77,3.58,4.48.37,4.67-1.87.64-7.66,4.95-6.61,10-4.93A11.69,11.69,0,0,0,342.45,190.57Z"/><path class="cls-2" d="M269.3,134.61c-.64-1.84-.87-3.85-2.08-4.15a2.68,2.68,0,0,0-1.55.26c-2.56,1.17-2.13,3.62-1.19,5.48,1.91,3.76,4.22,7.33,6.39,11,1.83,3.09,4.27,1.89,6.17.42,4.26-3.29,6.59-1.58,9.48,2.18s6.72,10.6,10.35,8.16a22.64,22.64,0,0,0,9.45-17.45c-.43-1.17-.6-3.32-1.75-4.34-.44-.39-.79-.64-1.2-.59-1.39.19-1,3.87-2.93,7-1.73,2.81-5.41,5.3-7.66,4.44-1.79-.68-1.33-3-4.45-8.65-2.3-4.17-3.39-4.46-3.95-4.45-1.13,0-1.5,1.23-3.47,3.22s-4.23,4.28-6.42,4C271.43,140.57,269.41,134.91,269.3,134.61Z"/><path class="cls-2" d="M312.56,224.56a2.82,2.82,0,0,0-4.84-2.79c-4.52,7.41-12.09,5.89-18.85,6.49-3.34.3-6.72,0-8.26,3.8a8.62,8.62,0,0,0,.58,1.78c2.87,4.65,28,15.85,33.29,15,3.68-.62,3.66-3.18,2.27-5.26A28,28,0,0,1,312.56,224.56Z"/><path class="cls-2" d="M349.64,270c-4.67,1.48-10.67-3.18-16.66.16-3,1.68-4.12,3.56-1.87,5.11,3.7,2.54,2,15.65,12.17,6.77.31-.27,3.47,2.84,5.38,4.27s3.09,5.18,6.46,4.06c3.65-1.22,3.07-4.77,3.25-7.72.1-1.51,0-3,0-5.19C360.56,269.85,359.4,266.89,349.64,270Z"/><path class="cls-2" d="M262.15,50a2.48,2.48,0,0,0,3.23,1.37c5.27-1.23,6.89-6.66,9-10.07s-2.95-7.73-6.37-10.63A11.88,11.88,0,0,0,257.72,28c-1.63.32-1.49,1.9-1.28,4.25,1.68,5.27,3.6,11.51,5.69,17.7Z"/><path class="cls-2" d="M335,226.7c-2.58,2,1.28,4.75,3.86,5.22a48.61,48.61,0,0,1,13.78,5.65c1.86-8.64-4.21-14.63-5.32-21.76-.06-.43-.86-1.13-1.22-1.07C339.52,215.87,339.46,223.2,335,226.7Z"/><path class="cls-2" d="M711.65,298.7l-13.26-26.9c-1.7-3.49-3.92-6.76-1.09-10.94.87-1.31,1.4-2.75-2.57-3.84-8.37-2.27-17-1.4-25.11-4.45H692.2c-24.46-3.18-49,3.75-73.38-1.22,10.6-4.84,21.58,2.53,31.7-1.18-10.25-.78-20.93-1.83-31.65-2.31-5.8-.26-8.2-2.44-7.72-8.32q1.74-21.24,3.05-42.56c.65-11.42,11.81-16.7,15.17-26.55.22-.61,2.18-.65,3.32-1,14-3.44,17.91-15.91,8.5-26.73-1.36-1.57-4.58-2.61-3.62-4.75,3.75-8.24-3.05-12.9-5.8-18.88-3.53-7.58-9.76-8.41-15.56-3.57a9,9,0,0,1-11.12.91c-.23-.1-.46-.21-.7-.3a17.54,17.54,0,0,0-22.93,9.46,16.43,16.43,0,0,1-14.08,10.86A16.69,16.69,0,0,0,552.25,151a13.82,13.82,0,0,1-7.07,10.07,649.11,649.11,0,0,0-66,43.38A19.61,19.61,0,0,1,463,209.15c1.92-9,10.25-10.86,17.75-14.87A91.63,91.63,0,0,1,470,189.57c-2.53-1.53-4.62-4.32,0-5.67,12.25-3.49,11.64-13.12,11.29-22.67-.08-1.7.53-3.88-1.78-4.58-2.05-.65-3.54.79-4.67,2.14-10.46,12.69-22.89,9-36.75,4.4,4-4.4,7.41-8.15,10.76-12,1.23-1.39,2.27-3.36.92-4.84-.7-.78-2.92-.7-4.23-.3a28.73,28.73,0,0,1-15.3.78c-13-3.4-23.76,1.35-34,8.59a13.29,13.29,0,0,1-10,4.14V146.85c-14.39,8.06-28.91,5.71-35.19-5.59,4.84-.78,9.64.31,14.48-.48,6.45-1.09,13.73,2.18,20.27-2.39.26-.18,1.09.35,1.62.65,4.57,2.62,6.67.79,7.28-3.92.48-3.62,1.17-7.2,1.57-10.82.65-6-4.76-14,1.17-17.7,5.28-3.35,12.95.35,19.58.87a26.33,26.33,0,0,1,3.62.53c25.77,5.06,41.59-.57,40.46-31.66a12.61,12.61,0,0,1,6.1-13.25c2-1,5.06-1.61,4.19-5-.7-2.7-3.27-3.18-5.62-3.92-13.7-4.5-23,.87-29.17,19.18-4.62,13.73-13.43,19.1-27.17,19.23a10.4,10.4,0,0,1-7.12-1.44c-1-.94-1-1.94-1.81-6.59-1.27-7.43-1.59-7.65-1.17-8.78,1.26-3.34,4.54-2.51,7-6.35A9.55,9.55,0,0,0,408,60.26a22.88,22.88,0,0,1-1.22-10.69c1-6.62-2.14-9.85-8.68-9.5a27.15,27.15,0,0,1-22-9c-12.16-13.17-26.94-15-43.34-11.56a32.17,32.17,0,0,1-22.89-3.18A168.64,168.64,0,0,0,271.86,0h-1.79c-4,3.92-1.66,7.72.22,11.47,2.18,4.49,1.13,6.19-3.93,5.23-5.36-1-10.72-2-16.13-2.66-9.2-1-10.42.57-7.28,9.07,4.8,13.21-.39,21.8-13.91,21.06-9.15-.48-9,3.44-6.76,9.68,1.05,2.83,2.49,5.53,3.71,8.28.7,1.57,2.44,3.84.13,4.67-8.67,3.22-4.88,8-1.09,11.51,11.21,10.33,9.6,21,1.84,32.22-3.62,5.14-2.53,8.8,2.57,12.07,2.35,1.49,6.71,1.88,5.8,5.89-.79,3.31-4.58,3.57-7.46,4.23-10.9,2.44-12.08,5.58-5.1,14.65a35.33,35.33,0,0,0,4.19,4.79,5.81,5.81,0,0,1,1,.92,5.41,5.41,0,0,1-.47,7.62h0c-5.93,7.54-3.79,20.32,5,22,12.72,2.4,8.8,9.07,6.93,16.35a46,46,0,0,1-4.54,11.82c-1.35,2.22-2.22,4.62-.3,6.71a6.39,6.39,0,0,0,6.8,1.22c2-.61,4-1.52,6-2.09,2.4-.65,4.93-3.84,7.28-.87,1.84,2.31.62,5.23-.48,7.8-2.09,5-5.31,9.51-5,15.35.26,4.71.83,8.68,7.28,7.06,4.54-1.17,6,1.53,6.06,5.45.09,3.36,0,6.67.22,10s-.57,7.41,2.92,8.94c2.84,1.22,4.32-2.62,6.63-3.93s4.58-3.83,7.37-1.92c2.62,1.83,1.66,5,1.44,7.63A39.45,39.45,0,0,1,276.51,286c-3.32,6.49.3,7.8,5.45,6.67a81.78,81.78,0,0,0,13-5.28c-3.92,13.39-6.36,25.81,2.05,38.11,1.09-1.74,1.83-2.4,1.92-3.18v-.09a8.12,8.12,0,0,1,8.95-7.2h.05c5.1.3,3.4,5.4,4,8.63a13,13,0,0,0,6.5,10.33,13.83,13.83,0,0,1,6.62,9.2,308.31,308.31,0,0,1,10.47,52.45c.56,3.75.56,7.06-4,8.85a11.07,11.07,0,0,0-6.41,11.16,120.72,120.72,0,0,0,.26,18.14,5.73,5.73,0,0,1-3.62,7.06c-3.35,1.66-6.58,3.49-9.81,5.36-.56.35-1.13.66-1.7,1-.78.48-1.57.91-2.35,1.39H308c-22.67,13.91-41.77,32.4-61.17,50.58-13.69,12.82-25,28.16-41.29,38.15a55.65,55.65,0,0,1-34.31,9.9c-12.43-1.09-24.33-3.88-31.66-17.66-2,16.91,6,27.42,15.7,37s22.37,13.17,37.5,14.34a109.69,109.69,0,0,1-55.64,24.73,46.07,46.07,0,0,1-20.66-1.84A291.78,291.78,0,0,1,76.8,588.2c-6-3.09-16.52-5.93-15.78-11.25,1.13-7.93,11.51-9.5,19.22-11a74,74,0,0,0,44-26.9,73,73,0,0,1,17.22-16c26.86-16.87,37.14-42.72,39.54-72.85a31,31,0,0,0-11.42-26.51c-3-2.7-6.32-5.49-10.46-3.49-3.88,1.88-3.32,6.15-3,9.68a90.18,90.18,0,0,1-10,47.44,36.08,36.08,0,0,1-42.81,19.75c.78-4.19,4.66-5.23,7.45-7.19,22.63-15.92,33.71-37.28,32.05-65.23C141,394,127,376.57,100.3,373.47a170.69,170.69,0,0,0-24.46-.26c-3.14.09-7.76.13-8.46,3.8-.65,3.44,3.18,5.45,6.19,7a42.64,42.64,0,0,1,22.5,30.26c2.31,9.81.09,13.91-9.11,17.74-12.3,5.06-24.72,9.86-36.76,15.53A82.58,82.58,0,0,0,.63,516.39c-2.83,24,4.67,46.83,7.5,70.2,3,25.2,9.46,48.4,34.1,61.21a10,10,0,0,1-7.2,4.93l-.26.46,45.81,7.3C64.79,667,33.35,683,14.84,716.84-13.45,768.57.1,840.77,50.84,894.75c3.3,6.12,5.58,13.11,2.9,18.75-3.44,7.28-12.57,7-12.81,9.43C40,932.27,170.46,969,228,934.09c14-8.49,49.45-39.13,54.61-45.7,2.41-3.07,3.91-7.93,9.52-7.63,6.36.35,6.31,5.75,8.17,9.24,4.76,9.15,8.46,18.62,13.53,27.66a45.61,45.61,0,0,0,14.66,16.93,41.24,41.24,0,0,1,1.53-6.1,38.5,38.5,0,0,1-.14-9.29c8,7.9,18.89,15.07,28.48,19.75,7.56,3.69,28.58,14,52.6,11.51,16.22-1.66,37.07-9.45,42.91-19.12a13.44,13.44,0,0,1,7.68-6.59c3.54-1.16,7.87-.89,13.54.16,18.61,3.84,37.59,3.65,54.69-.55,7.5-2,14.74-5.73,28.75-14.06,26.65-15.84,28-24.12,44.58-26.1,12.77-1.53,26.66,1.65,27.18-.93.28-1.37-2.87-3.3-5.83-5.09a47.42,47.42,0,0,0-13.59-5.51c-13.24-3-46.34-5.38-66.34,1.1a95,95,0,0,1-16.89,3.77c-6.86.76-8.29-.08-11.88,1.19-.94.34-3,1.15-4.39.45A84.82,84.82,0,0,0,507,868.93c-3-5.77-4.49-8.75-7.27-11.71-5.1-5.43-14-10.39-24.51-11.76-9.76-1.27-16,1.22-24.33,4.54-2.23.89-4.29,1.93-4.1,3.39.13,1.06,1.53,2.22,4.65,3.48a11.7,11.7,0,0,1,7.47,5.9c1.19,6.46-2.47,12.41-9.45,15.36-7.46,2.72-13.35-.47-18.78-4.85a33.91,33.91,0,0,1-9.77-13.19c-2.45-5.57-19.7-44.8-45-59.49-8.15-4.74-23.74-13-55.45-10.75a59.7,59.7,0,0,1-22.34-2.61,168.9,168.9,0,0,0-44.75-7.12c-29.81-1.27-50.05,10.76-65.08,29-13.1,15.87-15.48,25.12-32.66,41.76-3.95,3.82-7.4,6.73-9.67,8.57-6.9-4.47-33.77-23-39.17-55.84-1.36-8.24-4-24.37,5.65-39.25,0,0,7.51-11.57,38.94-22.12,1.38-.46,3.9-1.15,5.36,0,.86.69,1.27,2.09,1.1,4.64A62.08,62.08,0,0,0,159,762.21c2.66,13.91,5.36,27.51-13.39,32.7l-.24.07a4.51,4.51,0,0,0-2.93,3l6.41,4.25c19.11-.53,33.22-9.77,43.89-25.39,7.46-10.91,8.31-10,11.84-13.35,15-14.35,28.21-9.48,45.56-18.66,23.55-12.45,18-31.31,34.93-35.83,20.56-5.48,48.38,16.93,61.89,35.75,7.75,10.81,10.4,19.89,23.32,30.91,5.94,5.06,13.64,11.63,25.11,14,5.79,1.18,12.88,1.34,24.38,1.62,4.9.11,7.35.17,9.74.08C439.88,791,449,789,460,786.61l2.93-.64a37.33,37.33,0,0,0-2.73-10.53,38.07,38.07,0,0,0-6.61-10.24,35.53,35.53,0,0,0-5.34-4.69c-4.14-3-8.11-15.1-9-51.16a41.49,41.49,0,0,0-2-17.06,34.55,34.55,0,0,1-3-6.4,75.37,75.37,0,0,1-2.13-8.1,12.49,12.49,0,0,0-1.28-4.27c-1.06-1.78-1.85-1.81-2.56-3.41a7.4,7.4,0,0,1-.21-5.12c.8-2.39,2.35-2.25,3.19-4,1.66-3.51-3.19-6.19-3.19-12.37,0-4.41,2.47-5.66,1.28-8.32-1.46-3.23-5.84-3-6.19-5.54-.19-1.42,1-2.72,3.2-5.12,2.67-2.91,4.4-3.4,4.48-5.12.06-1.43-1.11-1.69-1.28-3.62-.2-2.23,1.25-3,1.06-4.27-.52-3.6-12.44-4.81-12.36-5.33a16.48,16.48,0,0,0,3.83-.43c2.61-.87,5-3.42,4.48-4.9-.33-1-1.76-.81-5.54-2.35-2.93-1.18-4.61-1.89-4.91-3.2-.37-1.63,1.87-2.21,2.35-4.47.85-4.07-5.47-6.57-4.7-10.45.5-2.5,3.65-4.17,4.14-6.5a12,12,0,0,0,.16-3.22,1.15,1.15,0,0,0-.05-.41c-1.33-7.37-11.71-10.48-23.34-15.25-13.13-5.38-56.41-24.58-64.83-29.86a8.72,8.72,0,0,0-6.45-1.54,5.11,5.11,0,0,0-3.76,3.18,4.47,4.47,0,0,0,.29,2.58,67.15,67.15,0,0,0,2.31,6.8s.13.34,1.87,5.67a195,195,0,0,1,9.15,81,102.5,102.5,0,0,1-13.65,40.94,94.32,94.32,0,0,1-10.78,14.36,69.59,69.59,0,0,1,7.8,1.85,77,77,0,0,1,41.38,32c9.3,15.08,11.67,31.66,9.79,32.43-1.67.69-5.34-11.69-18.13-26a109.84,109.84,0,0,0-33.45-25.11,78.76,78.76,0,0,0-27.72-6.11c-22.55-.65-35.32,9.29-39,4.84-4.84-5.84,17.22-22.8,25.59-57.42A82.23,82.23,0,0,0,278,606.89c-3.62-26-23-38.63-17.66-55.94a26.14,26.14,0,0,1,6.8-10.81,42.36,42.36,0,0,0-13.34,14,45.8,45.8,0,0,0-3.71,35.23,47,47,0,0,1-4.44-8.89,40.7,40.7,0,0,1-1.18-24.81,63.4,63.4,0,0,1,17-27.08c23.46-23.8,53.67-27.77,83.15-34.92,17.52-4.23,34.57-9.15,47-23.46,4.19-4.79,4.71,1,6.76,2.93,1.57-2.84,3-5.41,4.84-8.68,3.49,6,.57,10.64-2.44,16A111.26,111.26,0,0,0,424,469.51a120.86,120.86,0,0,1,18-8.79c15.56-5.58,21.67-3,29.12,11.77.44-1.53.87-2.88,1.4-4.58A29.86,29.86,0,0,0,498,487.8c-11.7-16.8-15.41-25.16-16.48-29.7a42.41,42.41,0,0,0-3.09-11.33,39.47,39.47,0,0,1-2.27-6.59h-.09a23.12,23.12,0,0,1,1.66-16.44c4.1-8.63,1.26-13.69-7.19-15.82-8.2-2.1-8.77-6.67-6.63-13.61,1.74-5.62,5.71-6.71,10.46-9.41,9.33-5.37,11.73-1.57,15.22,5.36,1.13,2.18,3.57,6.58,6.84,3.14,7.55-7.89,8.94-1.62,11.34,4,1.22,2.83,2.92,7.28,6.84,3,4.89-5.23,7.29-3.53,11.17,1.4,2.79,3.53,7.58,14,12.29.22,1.35-4,6.54-3.71,10.46-3.1,1.23.18,3.19,1.75,3.23,2.7.09,4.28-4,3.75-6.54,4.67-6.32,2.35-7.41,7.37-3.57,11.38,7.06,7.32,12.86,15.56,19.66,23a13.18,13.18,0,0,0,4.71,2.66,6,6,0,0,0,6.84-.31c1.88-1.78.61-3.83-.17-5.84-1.79-4.71-1.92-8.24,4.88-8.37,8.72-.18,11.25-5.32,6.89-13.13-1.09-1.87-4-3.05-2.53-6.32,6.85.09,13,.65,16.53,8.2,2.13,4.75,8,7.24,11.29,3.66,7.93-8.76,13.56-5.54,20.27,1,3.88,3.75,5.67,1.18,5.76-3.35a26.46,26.46,0,0,0-7.42-19c-1.79-1.91-4.76-3.48-3.14-6.71,1.48-3.05,4.66-2.31,7.28-2,2.4.27,4.71,1,7.11,1.49,3.31.65,7,5.14,9.72,1.91,3.14-3.61-.7-7.84-2.31-11.64a11.74,11.74,0,0,0-7-6.71,9.48,9.48,0,0,1-5.67-5.45c-4.14-9.64-10.6-12.43-20.8-9.55-2.4.7-4.75,2.88-7.85.87,2-5.58,6.63-4.05,10.6-4.05,1.7,0,3.88.78,4.8-1.4a4.78,4.78,0,0,0-1.79-5.62,21.9,21.9,0,0,0-14.17-5.32c-2.7,0-6,.74-8-.52-9.72-6.2-17.31-2-24.5,4.36-6.63,5.84-14.3,8.85-22.63,5.53a156.23,156.23,0,0,1-71.55-56.28,18.21,18.21,0,0,1-3-7.59c-.53-3.31-6.63-10,4.1-8.11,2,.35,2.57-2.35,2.18-4.19a8.07,8.07,0,0,1,2.13-7.49c6.67-7.77,13.34-15.44,22-25.47-2.88,7.76,6.93,8.11,3.44,14.74-5.36,10.11-7.76,21.58-14.43,31.22a19.38,19.38,0,0,0-1.38,2.68,21,21,0,0,0,11,27.53,35.35,35.35,0,0,0,20.58,1.31A20,20,0,0,0,538.9,294.5c-5.18-10.64-10-21.4-15.56-31.82-3.75-7-1.22-8.11,5.4-7.68,40.81,2.62,81.67,4.84,122.43,7.76,11.3.79,22.63.53,34,1a11,11,0,0,1-.39,2.79q-9.27,15.13-18.62,30.17c-8.37,13.6-6,25.33,6.89,34.53a27.39,27.39,0,0,0,34.4-1.61C717.23,321.07,718.41,312.35,711.65,298.7ZM366.78,693.76c-6.57-5.69-16.38-11.39-31.08-16.45a52.43,52.43,0,0,1,25.16,3.23,51.44,51.44,0,0,1,24.31,19.8c6,9.7,3.16,13.45,11.52,30.71a69.27,69.27,0,0,0,8.53,14.5,58.92,58.92,0,0,0,21.9,16.84,49.88,49.88,0,0,1-24.46-8.73,52.25,52.25,0,0,1-15.36-17.49c-6.62-11.34-6.64-19.15-8.95-26C376.66,705.13,373.34,699.45,366.78,693.76ZM142.55,508.55a247,247,0,0,0-35.36,34.13,51.23,51.23,0,0,1-37.28,16.44,26.35,26.35,0,0,1,1.48-5c3.67-9.15,10.42-10.9,16.18-20.66,2.22-3.8,4.14-7.11,2.88-9-2.4-3.53-16-1.35-24.42,6.15-13.17,11.77-9,33-11.38,33.09-2.61.13-13-26.25-2-49.92s38.24-33.4,40.55-30.65S76.85,502,80.55,507.2c2,2.88,8.55-3.23,22.41-.35A98.38,98.38,0,0,0,142.55,508.55ZM96.77,431.81a28.63,28.63,0,0,0,8.15-12.34c4-14.08-7.11-30.65-19.44-36.54-4.54-2.18-7.42-2.22-7.33-2.83.22-1.92,27-5.58,40.85,8.37l.25.21a20.19,20.19,0,0,1,1.89,28.48h0c-10.68,15.52-34.92,23.46-42.55,25.68A43.35,43.35,0,0,0,96.77,431.81ZM29,501.48c3.92-25.5,28.78-40.59,39.15-46.87,3.27-2-.13-2.83,14.65-7.45,18.8-5.93,36.19-14,45.7-33a3.72,3.72,0,0,1,3.35-2.57,30.07,30.07,0,0,1,2.53,28.56c-4.23,8.76-13.17,11.33-26.33,16.52-12,4.71-23.5,9.27-33.58,14.36s-18.68,10.73-24.72,17.6c-6.84,7.76-14.3,21.54-13.34,47.44A52.76,52.76,0,0,1,29,501.48ZM359.3,917.54c18.48,15.05,38.16,27.1,65.42,23.85-22.72,12.29-51.94,1.71-65.45-23.85Zm26.36-2.43a133.2,133.2,0,0,0,53,8.38c-16.82,5.7-37.92,2.37-53-8.38ZM512.1,886.67a24,24,0,0,1,5.68.29c9.64,1.07,19-.55,26.32-4.55,11.69-5.78,26.25-7.94,41.11-6.1-11.12,2.31-19.6,7.68-28.49,12.56-12.19,6.7-27.81,9.41-43.88,7.59-3.39-.34-9.18.43-9.6-3.18.32-3.69,4-6.41,8.83-6.61Zm-98.5,12.45c17.59-4.86,33.84-11.18,45.15-22.58,6-6.13,11.22-12.66,4.33-21.55-1.81-2.34-.42-2.8,2.11-3.25,11.91-1.93,25,3.39,30.71,12.46-7.28-1.46-14.79-3.78-19.92,1.28-1.05,1.06-2.74,2.23-1.21,3.7a7.58,7.58,0,0,0,4.36.87c6.8-.4,13.63.92,17,5.8,3.86,5.65-1.68,9.36-5.88,12.84A79.62,79.62,0,0,1,459,903.35c28.12-1.37,57.31,9.41,84.85,3-15.37,12.11-35.31,16.65-58.09,11.18-18.9-4.53-37.08-9.92-56.48-7.82,2.32-1.24,4.74-2.45,7-3.73,11.79-6.55,23.63-13.09,35.26-19.79,2-1.1,5.17-2.91,1.8-5a3.1,3.1,0,0,0-1.68-.56c-1.69,0-2.8,1.83-3.84,2.87-9.1,8.13-20.6,14.48-33.76,18.65-10.87,3.69-23.64,4.07-36,1.08,6.46-1.71,11-2.86,15.47-4.11Zm-63.53-74c2.21-1.18,1.35-2.79,3.66-3.79s4.11.46,8.52-.34c2.5-.46,2.35-1,5.16-1.5a21.25,21.25,0,0,1,6.66-.07,28,28,0,0,1,6.71,1.87c5.09,3.07,8.66,7.36,10.12,12.19a137.38,137.38,0,0,1,5.33,12.79l-.29-.07c.22.44.45.88.68,1.32l.07.22.07.06c.61,1.13,1.54,2.78,2.72,4.73,5.33,8.84,7.82,10.52,7.71,14.13a9.59,9.59,0,0,1-4.35,7.57c-1.25.75-3.19,1.38-15.33-.69-5.89-1-6.3-1.3-7.33-.81-5.16,2.46-1,12.86-6.85,18-4.38,3.92-8.84-.11-14.63,3.48-8.54,5.29-6.32,18.65-10.44,19.31-3.5.55-4.58-9.21-14.09-20.35-2.78-3.26-16.85-19.74-30.14-21.81-1.4-.22-5.26-.83-6.39-3.08-.62-1.23,0-2.86,1.88-5.16,9.17-11,19.19-21.5,29.46-31.88a17,17,0,0,1,11.12-6.13c4-.25,7.08,1.48,9.9,0Zm-174,10.12A280.11,280.11,0,0,1,209.6,796.7c4.07-4.7,10.7-7.76,18-8.31-32.92,23.52-48.7,55.48-72.6,83.41a76.88,76.88,0,0,0,12.08-11.5c16.83-18.89,31-39,49.55-57.16,17.28-16.9,49.3-19.66,69.84-12.8,6.76,2.26,12.37,4.1,5.61,11,25.75-6.67,25.75-6.67,34.72-2.57-4.21,1.26-8.11,2.26-11.92,3.52-19.14,6.29-36,14.68-47.8,28.47-15,17.47-26.9,37-52.71,47.66C227,877.19,238.29,872,245.59,864a254.13,254.13,0,0,0,23.9-28c9.87-14,26.93-24.31,47.09-28.35,7.72-1.49,15.78-3.49,24.7-.88-1.13,1.27-2.31,2.49-3.56,3.64A740.14,740.14,0,0,0,249.08,892c-11,12.43-26.16,22.35-43.94,28.69-38.07,13-77.6,11.65-117.68,7.51,1-2.49,3.3-2.41,5.21-2.72C115.11,922,135,912.21,148.48,898c10.87-11,21.44-22.3,32-33.52,14.83-15.75,27.76-32.53,44.69-47.17,10.88-9.38,23.9-13.44,40.14-10,2.2.46,4.2,2.11,6.71.73-8-9.92-19.39-12.49-32.62-7.12-11.72,4.75-19.34,12.68-26.85,20.76-25,26.59-49.45,53.41-75.8,79.23-17.89,17.51-42.84,21.42-69.35,22.8,45-20.38,51.71-24.48,73.15-46.28a469.56,469.56,0,0,0,35.54-42.22Zm72.14-112.85a6.67,6.67,0,0,1-4.49,3.66c-18.88,6.54-37.27,13.87-50.92,29.74a44.87,44.87,0,0,1,2.92-8.24,49.9,49.9,0,0,1,6.5-10.51,74.5,74.5,0,0,0-19.67,26.77,46.83,46.83,0,0,1-7.67,13.3A42.51,42.51,0,0,1,169,783c-.88-9.13-3.21-18-3.21-26.68,0-9,2.52-17.61,11.84-25.81-8-.11-19.26,0-32.66,1.13-21.85,1.81-32.95,2.83-41.4,8.76-17.12,12-19,35.74-19,36.88-2.12,32.91,28.79,72.87,45,84.75,1.85,1.36,8.12,6,7.91,11.2-.12,2.83-3.23,5.55-9.51,11.06a100.11,100.11,0,0,1-7.82,6.44c-10.88,7.56-26.47,8.65-30.44,8.67-21.06.11-48.5-28.38-61-59.87C7,785.51,26,714.5,70.76,685.42a89.07,89.07,0,0,1,18.86-9.28s40.46-21.84,127.27,2.36a40.59,40.59,0,0,1,16.65,7.1c5.1,3.93,13,12.34,11.56,19.67a15.22,15.22,0,0,0-.7,5.19,14.34,14.34,0,0,0,3.44,8,6.6,6.6,0,0,1,.39,3.9Zm-1.16-125.57h.55c5-.74,8.9-11.82,8.55-27.86a34,34,0,0,1,5.19,14.17s-.79,11.68-.92,13c-1,10.38-17.31,25.25-41.07,33-36.32,11.91-67.93,0-68.23,1.7s27.29,14.26,60.56,9.38a113.71,113.71,0,0,0,58-27.73c.47,16.3-1.66,36.27-14.92,46.08-17.35,12.82-42.38-.17-81.88-7.23A306.89,306.89,0,0,0,76,649.81a54,54,0,0,1-26.51-8.5c-1.87-1.31-8.94-6.24-8.15-11.08a11.44,11.44,0,0,0,.65-4.14c-.3-2.83-2.39-4.8-5.84-8-3.84-3.57-5.06-3.66-5.45-5.45-.61-2.92,2.18-4.71,1.13-6.84s-3.74-1.4-4.44-3.4c-.48-1.4.78-2,.87-4.28.09-3.4-2.79-5.32-2.14-6.19.26-.39,1.18-.56,5.85,1.18,5.4,2,7.06,3.31,7.41,3,1.13-1.13-17.88-16.83-26.86-36-4.88-10.5-8.72-26.24-4.23-49.39a7.23,7.23,0,0,1,3.62,6.49c3.66,15.83,9.2,30.87,20.75,42.73,27.82,28.56,60.52,49.27,100.54,53.85,37.3,4.28,75.8,7.85,101.8-30.17.82,1.65,6.64,13.17,12.07,13.17ZM626.81,156.43a7.72,7.72,0,0,1-8.89-2.83,8.13,8.13,0,0,1,9.11,0,1.39,1.39,0,0,1,.35.41A1.77,1.77,0,0,1,626.81,156.43Zm6.45-12.56a7.44,7.44,0,0,1,7.67,7.2c.57,3.93-1.43,6.85-5.79,9.42-1.79-3.93-3.75-7.63-5.19-11.56-.92-2.61.13-5,3.22-5.05Zm-11.38-24a4.71,4.71,0,0,1,6,2.75c1.7,3.4,5.06,6.28,4.1,10.64-.13.65-1.22,1.09-2,1.74a69.32,69.32,0,0,1-11.9-9.55c-2.26-2.81,1.06-4.72,3.8-5.6Zm-2.35,17.84c1-.83,3.18.3,3.23,1.57a8.51,8.51,0,0,1-6,9.06,9.57,9.57,0,0,1,2.77-10.65ZM399.87,97.31a89.31,89.31,0,0,0,16.83.57,32.11,32.11,0,0,0,17.17-4.52A28.05,28.05,0,0,0,444,78.74a111.77,111.77,0,0,1,3.49-11.16c2-4.41,4.71-8.5,11.51-7.24a40.32,40.32,0,0,0-5,21.93,20.74,20.74,0,0,1-5.78,15.2c-1.71,1.58-5.06,4-15.62,4.6a102.36,102.36,0,0,1-25.88-2.53A130.69,130.69,0,0,0,384.11,98c-6.21.22-12.4.43-18.57.89-7.34.54-13.58,1.51-18.42,2.3a88.24,88.24,0,0,1,14.42-3.72A151.3,151.3,0,0,1,399.87,97.31Zm-23.29,10.16a5.18,5.18,0,0,1-1.47,2.64c-2,1.52-3.25,0-4-1.57-2.89-5.69-4.82-3.2-6.91.56-2.54,4.57-7.26,5.18-11.68,5.89a4,4,0,0,1-.59.07,4.54,4.54,0,0,1-4.79-4.28h0a14.13,14.13,0,0,1,1.27-2.44c2.54-3.25,22.45-7,26.21-5.08A3.33,3.33,0,0,1,376.58,107.47ZM353.19,85.21c1.1-1.88,4.25-2,6.27-2,2.19,0,5.72-.06,7.27,2.14.89,1.25.35,2.09,1.37,3.25,1.64,1.86,4.61,1.43,4.62,1.7a38.43,38.43,0,0,1-9.66,1.24h-.55c-3.15-1.37-8.48,1-9.55-3.81A3.3,3.3,0,0,1,353.19,85.21ZM337.31,417.42a51.33,51.33,0,0,1,0,8.94c-.22,3,1.35,7.81-3.23,7.85-4,0-3.62-4.58-4-7.76-.08-1.18,0-2.35,0-4.88,0-.48.05-2.27.18-4.06.3-3,.65-6.63,4.58-6.45,2.19.11,2.65,1.29,2.65,2.71C337.52,415,337.19,416.36,337.31,417.42ZM352,428.54c-.61,4.71-3.53,4-6.62,2.7-4.36-1.87-3-5.71-2.18-8.58,1.17-4,.13-9.47,5.58-11.43a2.34,2.34,0,0,1,3.08,1.21,2.4,2.4,0,0,1,.19.79c.34,2.4.61,4.75.87,6.85C352.61,423.18,352.35,425.88,352,428.54Zm34.44-14.26q-.54,4.91-1.44,9.81c-1,5.41-3.92,7.72-8.76,4.1-4.32-3.22-7.37-3.31-10.16,1.57a4.17,4.17,0,0,1-4.53,2.36c-2.53-.7-2.49-3.1-2.57-5.19-.09-1.79-.14-3.62-.05-5.41v-.79c0-4.22-.76-9,4.66-10.63,5.84-1.79,4.4,5.45,8.06,7.1,2.57-1.22,1.92-3.35,2.36-5,1-3.84,3-7.06,7.37-6.23C385.48,406.74,386.92,410.23,386.44,414.28Zm26.3,9.25c-2,4.58-5.8.87-8.77.56a11,11,0,0,0-7.54,2,6.79,6.79,0,0,1-3.49,1.41c-2.14,0-2.91-2.58-2.66-7.39a78.36,78.36,0,0,1,2.1-10.5C393.2,407,396,404,398,408.12c3.71,7.72,6.89,3.93,9.24-.17,3.75-6.54,6.15-3,7.72.83A19.19,19.19,0,0,1,412.74,423.53Zm-9.23-26.44c-9.15-2-24.29-2-50.59,6.73,13-10.68,15.69-19.23,15.56-25.25-.17-8.5-6-11.64-6.19-24.72,0-5.79,1-9.85-1.74-12.55-3.18-3.1-7.67-.83-11.08-4.49a8.12,8.12,0,0,1-2-8.37c1.79-3.36,7.15-1.79,10-6,1.4-2.09.79-3.53,2.23-4.36,2.18-1.26,5.11.95,9.07,2.7A34.87,34.87,0,0,0,389,323.3c6.27-1.54,8.07-5.11,11.09-3.84,3.81,1.61,2.15,7.81,6.4,10.24,4,2.3,7.31-2.23,12.79-.43,4.56,1.5,7,6.18,9.81,11.52,3.79,7.22,2.49,9.54,6,12.79s5.51,1.68,10.24,5.12,8.8,9.34,7.25,12.37c-1.38,2.7-6.14.85-8.1,3.84-2.54,3.87,3.7,9.74,1.22,13.55-1.35,2.07-3.81,1.24-9.75,3.24a51.49,51.49,0,0,0-9.81,5c-8.43,4.3-18.25,1.35-22.63.39Zm42.36,17.15c-1.09,3.14-2.53,6.15-3.44,9.33-3.58,12.51-14.48-3.31-19.23,5-.57,1-2.31,0-2.92-1.09a10.13,10.13,0,0,1-1.61-4.1,21.54,21.54,0,0,1,.74-7.1c1.48-4.89,3.22-11.34,8.76-11.3,3.2,0,3.74,1.73,3.74,4s-.63,5.35.75,7.34c3-1.49,2.71-4,3.66-5.76,1.53-2.75,2.45-7,7-4.84C446.92,407.35,447.09,410.8,445.87,414.24Zm19.62-2.09c.87.65,2.31.56,3.45.87,3.53.91,7.45,1.66,6.58,6.76a23.75,23.75,0,0,1-2.41,7.67,10.09,10.09,0,0,1-6.27,4.88c-5.71,1.62-3.83-5-6.45-6.67-2.57.13-3.4,2.53-5.14,3.58-5,2.92-8.51-.09-8.11-4.23a23.87,23.87,0,0,1,7.76-16.7C459.39,404.73,462.27,409.75,465.49,412.15ZM568,429.33c-.13,1.87.39,5.1-2.79,4.4h0a7.1,7.1,0,0,1-5.22-7.15c.56-1.88,1.65-3.58,4.27-3.31C567.91,423.66,568.26,426.49,568,429.33Zm62.08-16.92c-2.79-1.35-5-2.31-7.06-3.45-3-1.61-4-2.83-4-3.73,0-1.7,3.75-2.27,5.74-2.15,4.36.22,6.24,3.92,5.32,9.33Zm4.75-33.53c3.36.48,7.2,1.88,7.55,5.19.43,3.88-3.45,1.48-5.58,2.05h0c-2.61-1.44-7.84,1.57-8.15-3.84-.13-3,3.35-3.79,6.18-3.4ZM481,310c3.84,3.4,7.37,7.15,10.9,10.9a146.78,146.78,0,0,0,48.88,37c13.64,5.89,27,6.63,38.76-4.79a16.69,16.69,0,0,1,3.75-2.53,8.72,8.72,0,0,1,11.94,2.88c3.79,4.44,1.44,6.62-2.7,8.67a4.75,4.75,0,0,0-2.31,5.5c.61,2.87,2.92,3.66,5.41,4A25.68,25.68,0,0,0,608,369.42a25.82,25.82,0,0,1,14.12-2.35c1.7.35,3.88.35,4.45,2.48.61,2.53-1.22,4-3.19,4.89-6.36,2.7-12.68,5.66-20,4.18a14.85,14.85,0,0,0-13,2.57c-1.52,1.31-4,2.31-3.4,4.84.57,2.23,3,1.44,4.58,2.05,7.06,2.57,14.39,1.09,21.62,1.31,2.14,0,4.54.13,5.63,2.22,1.3,2.4-.61,4-2.27,5.28a33.83,33.83,0,0,0-9.16,13.34c-10-10.33-22-7.76-33.26-8.11a5.7,5.7,0,0,0-4.93,3.62c-1.44,3,1.61,3.18,3.18,4.27,2.09,1.49,4.31,3,4,6.41-5.5.61-8.55-4.23-13.25-4-4.28.17-8.55,5.32-13.08.48,1.26-2.53,3.7-2.31,5.53-3,7.89-3.32,8.9-9.68,2.1-15a20.14,20.14,0,0,0-17.32-2.74,59.3,59.3,0,0,1-8.63.39c3.1-4.32,3-6.5,2.36-7.67-1.44-2.75-6.2-.88-10.6-4.8-2.23-2-1.92-3.23-4.71-5.32-2.44-1.83-3.14-1.26-5.93-3-3.79-2.36-3.66-4.19-7.06-6.46a28.73,28.73,0,0,0-7.46-2.7c-5.53-2.18-4.92-5.14-11.51-10.64a50.79,50.79,0,0,0-16.74-9.76,15.17,15.17,0,0,1-6.41-3.36c-2.05-1.88-1.87-2.88-3.35-4.66-4.27-5.15-10.77-2.66-17-8.46a6.27,6.27,0,0,1-2-2.79c-1-3.14,1.44-6.63,3-9.51,2.7-4.92,4.54-.56,6.72,1.09A19.44,19.44,0,0,0,467.86,318c.95-4.44-7-8-.88-12.25S477.1,306.51,481,310Zm14-89.12c-.35,2.09-3.05,2.83-5.23,2.79-4.62,0-5.67,2.53-7.81,6.45-3.35,6.06-1.61,14.39-5.8,18.14-4.92,4.36-3.92,6.89-2,11.29a14.11,14.11,0,0,1,1.3,5.34,5.29,5.29,0,0,1-4,5.43c-4.71,1.53-5.23,4.49-5.32,8.16-.17,10.5-7.45,18.22-9.63,29.51-5.89-12.6-5.89-12.6-15-3.4-5.93,5.93-9.9,5.93-14.7-1-4.23-6.15-7.67-7.68-11.86-.35a9,9,0,0,1-5.66,4c-7.81,2.45-16.4-6.23-23.68,1.84a13.22,13.22,0,0,1-2.83-1.84c-10.12-7.1-10.12-7.1-13,5.11-3.44-.35-4.71-3.49-6.93-5.37-5.67-4.75-8.2-3.83-9.37,3.45-.31,2.09-.4,5.1-2.36,5.45a6.86,6.86,0,0,1-7.11-4.76c-3.44-11.11-8.15-5.71-13-1.48-1.09,1-2.18,2.1-3.93,1.66-3.79-9.9-8.72-11.6-19.44-7-2.31,1-4.45,4.71-7.06,2.36-2.45-2.23.61-4.93,1.43-7.33,4-11.59-1.78-23.24-11.9-23.58a112.64,112.64,0,0,0-.13-15.26c-.87-6.63-4.49-10.73-11.86-7.68-7.72,3.27-8.76.31-8-6.89,1.31-12.29.91-12.34-10.73-9.81.35-9.33,2.84-18.57,1.05-27.86-2-10.46-3.88-11.2-13.21-4a54,54,0,0,0,2.35-28.56c-1-4.71-3-9.9-8.54-3-1.14,1.39-2.09,3.53-4.14,2a8.46,8.46,0,0,1-2.79-4.4,15.76,15.76,0,0,1,2.57-10.38c1.79-4.4,3-9.07-.79-12.73-5.66-5.28-2.87-8,1.79-12a26.06,26.06,0,0,0,10.6-22.46c-4.63,1.48-7.72,8.94-11.86,4.67-3.58-3.75.26-9.07,2.66-13.26.3-.52.65-1,.91-1.57,4-7.67,5.23-14.86-3.09-20.84-2.1-1.48-4.41-3.35-3.75-6.62,2.35-1.66,4.75-.35,7.1-.48,2-.13,4.71,1,5.71-1.36,1.4-3.22-1.83-4.09-3.74-5.18A26.22,26.22,0,0,1,231,57.6c-1.35-2.62-2-5.72,2.13-6.24,7.72-1,15.92-9.85,23.11,2.57C254.29,45.26,252,38.15,250,31c-1.79-6.46,0-9.77,7.59-9a47.56,47.56,0,0,1,25.24,9.12c1.57,1.22,3.62,4.53,5.8,1.39,6.67-9.76,16.57-7.93,25.51-6.54a66.27,66.27,0,0,0,25.94-1,29.83,29.83,0,0,1,30.6,9.2c6.5,7.24,13.43,13.21,24.12,11.77,1.91-.26,3.92.4,4.09,2.58.31,3-2.31,3.22-4.36,3.18-5.71-.09-11.46-.74-17.22-.61-4.62.09-12.25-.74-11.94,4.75.3,7.06,7.23,3.4,11.64,2.84a8.19,8.19,0,0,1,1.78-.31c2.71.35,5.93-1.61,7.37,3,1.22,3.7,3,6.76-.35,10.38a19.78,19.78,0,0,1-19.83,6,74.91,74.91,0,0,0-14.35-2.22,13,13,0,0,0-14.39,10.81,33.32,33.32,0,0,0-.32,23.78,20,20,0,0,0,5.62,8.16,24.14,24.14,0,0,0,15.08,4.38,78.71,78.71,0,0,0,22.2-1c1.41-.33,5.39-1.35,7.21.63a3.42,3.42,0,0,1,.86,1.91c.4,2.56-4.92,4.49-6.7,5.18-15,5.82-38.29,1-53.58-2.2a5,5,0,0,1-2.8-1.26c-2.3-2.38-.47-7.31-2.48-10-1.05-1.44-2.53-2.53-3.49-4-3.35-5.32-1.65-13.43-9-16.74,0-.18.87-2.14,1.09-3.27.26-1.44.83-3.84.26-4.19-6.62-4.23-5-10.24-4.05-16.22.22-1.48.13-3.27-1.57-3.88-1.88-.65-2.53,1-3.18,2.4-3.19,6.5-11,12.43-2.31,20.45.91.83-.18,3.53.3,5.23,1.88,6.89.44,15.52,6.58,20.19s12,8,9.73,17c-.26.92,1.26,3,2.39,3.45,4.45,2,6.33,6.36,9.55,9.28,3.45,3.19,7.76,11.91,13.43,1.44,1.53-2.83,3.62-1,5.19.44a38.88,38.88,0,0,0,22,9.85c7,.79,7.72,4.06,3,8.64-5.8,5.62-4.36,10.46.74,15.52,7.63,7.5,8,11.2,1.27,19.09-3.23,3.84-4.06,6.41,1.79,7.2a33.79,33.79,0,0,1,15.6,6.76c1.31.91,3,2.87,4.71,1.09s.35-3.67-.74-4.89c-6.58-7.45-3.66-11.6,4.49-14.47,1.88-.66,4.58-1.44,4.28-4s-3-2.58-5-3.23a60.07,60.07,0,0,1-20.89-10.73c-4.93-4.31-4.93-8.54,2-10.42a87.83,87.83,0,0,0,22.58-11.46,41.7,41.7,0,0,1,21.58-6.11c2,0,4.49,0,5.41,2.36s-.92,4-2.22,5.58a37.43,37.43,0,0,1-11.51,7h-.08a7.56,7.56,0,0,0-3.76,10c2,4.36,5.71,3.13,9.33,1.52,6.93-3.14,14.3-6.76,21.76-5.67a45.87,45.87,0,0,0,28.12-2.35,11.53,11.53,0,0,1-8.94,7.72c-7,1.39-8.5,8.89-14.91,11.77-5.93,2.66-1.4,21.23,5.1,24.68a23.42,23.42,0,0,0,17.53,2.57A28.15,28.15,0,0,1,490,216.65c2.11.91,5.51,1.22,5,4.27Zm8.81,65.7c-.52.26-.7.44-.83.35-.43-.26-.3-1.79,3.27-11.51a43.15,43.15,0,0,1,5.41-11.81,27.59,27.59,0,0,1,2.74-3.27c-.39,12-.56,20.49-.39,22.62a2,2,0,0,1-.35,1.57c-.56.74-1.52.53-3.7.7a14.63,14.63,0,0,0-6.1,1.39ZM536.73,308a16.72,16.72,0,0,1-30.56,5.43,16.6,16.6,0,0,0,11.94.85c3.45-1.22,4.56-3.32,8.53-5a20.51,20.51,0,0,1,10.14-1.24Zm-4.93-19a37.5,37.5,0,0,0-7-2.66,39,39,0,0,0-6.24-1.09,76.64,76.64,0,0,1-.61-10.6,74.55,74.55,0,0,1,1.17-13c6.8,14.64,12.21,26.31,12.73,27.42Zm67.49-83.5a260,260,0,0,1-3.66,33.4,8,8,0,0,1-.15,1.2,7.28,7.28,0,0,1-8.61,5.65h0c-25.86-1.18-51.71-2.18-77.57-3.23,14.61-6,29.83-11,42.25-23.5,4.23,8.07,6.85,5.36,9.33-1.92,1.44-4.14,3.8-8.11,9.2-3.4,3.1,2.7,4.54,0,4.67-2.57.43-7.5,3.62-10.25,11.2-8.11a12.22,12.22,0,0,0,7.89-1.53c5.07-2.46,5.68-.14,5.5,4.08Zm-13-14.25a58.43,58.43,0,0,1-9.06-.79,37.11,37.11,0,0,0-31,8.2c-6.06,5.1-12,11.9-20.27,12.9a20.62,20.62,0,0,0-18,12.19c-5.41-7.89-13.95-10.89-21.81-16.65,2.49-2,4.1-3.27,5.8-4.54A436.51,436.51,0,0,1,534.55,175c10-5.75,21.28-10.77,23.2-24.76.52-3.93,15-10.82,18.66-9.42,6.1,2.44,1.65,8,3,12,.39,1.13.35,2.4.65,3.57,1.14,4.67-.52,6.59-5.14,4.84-6.58-2.52-9.51,0-10.64,6.5A104.35,104.35,0,0,1,561,178.11c-1.09,3.66-3.27,8.28,2.92,9.2,5.62.83,6.19-3.36,6.14-7.72-.12-7.41,3.06-10.51,10.73-8.55,3,.79,6.84,2.23,7.93-3,.57-2.44,1.44-4.93,4.76-4.14a9,9,0,0,1,6.49,4.4,15.68,15.68,0,0,1-13.56,23.07Zm5.59-54.63c-2.83-.35-4.62-2-4-4.84a12.08,12.08,0,0,1,12.86-10.25c2.22.44,5.1-.39,5.76,2.92a54.57,54.57,0,0,1-14.57,12.24Zm15,.65a9.37,9.37,0,0,1,4.49,11.16c-4.58-1.87-7.67-4.49-7.93-9.2-.08-1.37,2.31-2.63,3.49-1.89ZM605.7,240.42Q608.4,202.14,611,164c1.43.13,2.87.22,4.27.35q-3.45,38.17-7,76.3c-.8,0-1.68-.06-2.55-.11ZM693.64,269h0c6.58,13.77,12.94,27.07,13.12,27.38a31.08,31.08,0,0,0-6.37-2.49,29.8,29.8,0,0,0-6.76-1.09,84.16,84.16,0,0,1-.74-10.64,90.93,90.93,0,0,1,.8-13.09Zm-24,29c2.58-5,5.54-10.33,9-15.91,3.36-5.32,6.71-10.16,10-14.48.26,8.5.52,12.78.74,15.13a58.89,58.89,0,0,0,.26,6.37c.22,1.26.56,2.35,0,3.09-.39.44-.87.61-3.27,1-1.57.26-2.4.39-2.74.43a85.44,85.44,0,0,0-13.87,4.43Zm37.81,26.12a20.92,20.92,0,0,1-9.47,7.64,23.34,23.34,0,0,1-18.38-1.28c8.82.71,12.74-1.49,14.67-3.77s2.16-5.21,5.8-8a12.57,12.57,0,0,1,5.81-2.35c1.63-.33,2.68-.25,3.34.36a1.65,1.65,0,0,1,.49.82c.86,2.62-.89,4.72-2.19,6.64Z"/><path class="cls-2" d="M504.87,600.51a61.49,61.49,0,0,1,17.47-6.09,28.46,28.46,0,0,0-7.66-4.43s-1.18-.45-2.36-.78c-3.6-1-19.73,5.38-36.75,30.65,0,0-18.3,27.16-22.41,70.54a20.84,20.84,0,0,0,.61,8.46,26.69,26.69,0,0,0,5.84,10.25s3.44,4.4,11,15.13a69.08,69.08,0,0,1,9.81,16.65,39.93,39.93,0,0,1,.83,21.46,38.21,38.21,0,0,0-1.7-14.64,42.39,42.39,0,0,0-4.18-8.82,82.94,82.94,0,0,0-13.59-15.21,82.31,82.31,0,0,1-11.24-15.07c-.31,1.41-.81,3.79-1.25,6.77a108.44,108.44,0,0,0,.3,30,21.61,21.61,0,0,0,2,8.18,41.46,41.46,0,0,0,4.75,7A64.17,64.17,0,0,1,462,770.72a35.71,35.71,0,0,1,2.8,14.82A28.46,28.46,0,0,0,487,763.26a8.81,8.81,0,0,1,.43-1.41,69.74,69.74,0,0,0,1.34-18c-1.06-18.76-10.17-42.35-21.22-48.5,0,0-7.89-4.4-8.29-8.8l-.26-3.44a131.56,131.56,0,0,1,14.5-46.63C480,624.31,487.83,609.55,504.87,600.51Z"/><path class="cls-2" d="M278.52,672.32a9.43,9.43,0,0,0-3.27,5.2,37.41,37.41,0,0,0,22.22-4.77c12.16-7.35,15.8-20.58,18.76-31.35,1.49-5.45,3.56-14.89,2.61-39.48,0,0-2.28-58.57-18.81-69.93a5,5,0,0,0-3.62-1c-2.05.43-3.18,2.78-3.65,3.93,2.59,4.22,7.51,3.7,10.73,7.62a30,30,0,0,1-13.71-3.43c-1.66-.74-3.2-.55-4,1.22-1,2.39,1.11,3,2.21,3.9a67.39,67.39,0,0,0,17.12,9.36,29.31,29.31,0,0,1-20.9-6.78c-1.5-1.13-3.37-3-4.74-1.08-2,2.82.9,4.15,2.25,5.5a81.47,81.47,0,0,0,19,13.06C290,565.4,282.41,557.42,274,551.43c1.6,7.26,6.59,10.72,11.12,14.33s9.65,6.37,15.33,10c-8.61.88-14.48-4.2-20.7-8.32,1.18,6.6,1.18,6.6,21.5,20.68a73.88,73.88,0,0,1-8.84-2A80.65,80.65,0,0,1,284,582c.53,5.33.53,5.33,15.86,16.72-3.2,1.34-5.91-1-8.83-1.27-1.47-.14-3.4-3-4.3.58a4.68,4.68,0,0,0,2.27,5.24c3.35,2.06,6.79,4,10.85,6.3a7.19,7.19,0,0,1-6,.17c-1.77-.47-4.12-2.6-5.14.68a5.32,5.32,0,0,0,2.75,5.89c2.2,1.4,4.52,2.58,7,4-2.26,3.88-8-2.91-8.38,3.35-.34,5.86,5.44,5.2,8.34,7.75-.2.42-.32,1.15-.65,1.32-2.54,1.35-7.21-3.38-7.67,1.53-.56,6,6.4,4.43,8.88,8.17a6.49,6.49,0,0,1-1.14.73c-3.06,1.2-7.88-4.29-8.8.18-1.23,6,6,4.56,8.53,8.3-3.58,2.76-7.11-2.45-10.65-.15a16.81,16.81,0,0,0,7.36,7.6c-3,2.26-6.28-1.38-9.94.12,1.61,4.92,5.88,4,8.1,7-3.4,2.75-6.93-1.93-10.37-.2a5.22,5.22,0,0,0,1,2.54,5.39,5.39,0,0,0,3.05,1.94A9.71,9.71,0,0,0,278.52,672.32Z"/><path class="cls-2" d="M428.47,543.56c27.45,11.6,56.44,13.5,85.54,14.64,4.26.16,4.6-2.1,3.65-5.48a21.48,21.48,0,0,0-5-9c-6.73-6.64-45.44-44.19-51.12-54.74-1.71-3.18-4.25-5.89-5.75-9.17a7.21,7.21,0,0,0-3.2-4.05,6.29,6.29,0,0,0-4.69.21c-9.24,3.47-18.82,6.11-27.77,10.25A192.47,192.47,0,0,1,399,493.4c-10.57,3.25-20.69,5.88-30.24,8,9.4,4.09,17.73,7.7,26,11.37,5.14,2.26,10.2,4.74,15.37,6.94,5.44,2.32,9.75,4.9,9.29,12.48C419.07,538.17,423.6,541.49,428.47,543.56Z"/><path class="cls-2" d="M447,643.53a43.75,43.75,0,0,0,1.4,7.61c1,6.37.06,10.55.5,10.63,1.06.18,3-18,12.11-38.48a151.55,151.55,0,0,1,12-20.43,34.9,34.9,0,0,1,8.9-9.89c2.95-2.09,4.91-2.62,4.77-3.46-.28-1.7-8.69-3.47-15,.33a15.28,15.28,0,0,0-5.52,5.93c-3.39,6.58.45,11.3-2.72,14.83-2.86,3.18-6.84.33-9.56,3.3-3.81,4.16,2.28,10.4-1.32,19C450.51,637.75,447.23,638.62,447,643.53Z"/><path class="cls-2" d="M554.36,576.36c-5-12.65-22.92-32.31-38-38.5a95.24,95.24,0,0,1,32.28,39.36c-18.38-1.16-33.79-2.89-45.29-4.41a396.07,396.07,0,0,1-87.15-25,19,19,0,0,1-8.39-5.83c-4.12-5.31-1.63-9.17-4.83-14.36-1.69-2.74-7.25-5.15-18.29-9.88-1.83-.78-7.19-3.08-15.9-6.37-7.88-3-11.82-4.46-12.85-4.69-12.55-2.93-25,.09-29.12,5.54a4.69,4.69,0,0,0-1.23,3.86c.62,2,3.78,2.62,5.63,3.44,21.56,9.55,43,19.34,64.89,28.14,35.95,14.44,72.26,27.85,111,32.87a401.22,401.22,0,0,0,42.57,2.83C555.49,583.46,556.35,581.45,554.36,576.36Z"/></g></g></g></g></svg>