<svg xmlns="http://www.w3.org/2000/svg" viewBox="0 0 801.48 384.5"><defs><style>.cls-1{fill:#346c9a;}.cls-2{fill:#fff;}</style></defs><g id="Ebene_2" data-name="Ebene 2"><g id="Ebene_1-2" data-name="Ebene 1"><path class="cls-1" d="M173.05,266c-2.78-4.17-21.13-31.73-36.39-36.55,13.5,9.88,26.8,29.86,29.18,33.43,28.66,43,24.08,82.44,34.34,83.25a6.15,6.15,0,0,0,3.81-1.23C196.54,339.44,198.49,304.23,173.05,266Z"/><path class="cls-1" d="M57.6,314.4c-7.77-31.68,7-46.79-5-81.52-7.22-21-13.81-19-23.89-41.28-12.37-27.37-23.87-77.86-2-107.31,13.59-18.29,25.32-8.67,70.67-33,41.85-22.48,50.17-40.51,67.68-36.12,9.65,2.42,17,10.38,22.53,20C181.4,19.77,172,4.31,157.52.69c-18.3-4.59-27,14.26-70.76,37.76C39.36,63.91,27.08,53.86,12.88,73-10,103.77,2,156.56,15,185.18c10.53,23.3,17.43,21.21,25,43.15,12.49,36.32-2.92,52.11,5.2,85.23,10.26,41.85,48.6,72.69,59.31,66.89a4.72,4.72,0,0,0,2.1-2.34C91.77,373,65.65,347.24,57.6,314.4Z"/><path class="cls-2" d="M132.21,234.8a12.2,12.2,0,0,0-7.3-.24c-18.06,5.57-17.24,62.05-16.92,83.6.62,42.26,8.88,61.29,2.34,65.49,3.17,1,5.8,1.15,7.61.2,7.18-3.75-1.36-22.71-2-65.69C115.64,296.88,114.83,241.53,132.21,234.8Z"/><path class="cls-2" d="M81.4,94h55.22v7L99.36,158.61h37.26v14H80.48v-8.54L116.92,108H81.4Z"/><path class="cls-2" d="M186.2,117.27h12v55.38h-11.8l-.62-8.09c-2.87,6.52-10.78,9.66-16.42,9.78-15,.11-26.07-10-26.07-29.43,0-19.1,11.59-29.1,26.38-29,6.77,0,13.24,3.49,16.11,9Zm-30.38,27.64c0,10.55,6.67,16.85,15,16.85,19.71,0,19.71-33.59,0-33.59C162.49,128.17,155.82,134.35,155.82,144.91Z"/><path class="cls-2" d="M221.31,94V124.8c4.51-6.41,10.06-8.32,15.8-8.32,14.37,0,20.74,10.68,20.74,27v29.2H245.33V143.56c0-10.11-4.83-14.38-11.5-14.38-7.39,0-12.52,6.85-12.52,15.16v28.31H208.78V94Z"/><path class="cls-2" d="M305.68,172.65v-29c0-8.43-4.21-14.83-12.21-14.83-7.7,0-12.94,7.08-12.94,15.5v28.31H268.11V117.16H279.3l.82,7.53c5.14-5.51,10.27-8.32,16.63-8.32,11.91,0,21.45,9.78,21.45,27.19v29.09Z"/><path class="cls-2" d="M369.12,117.27h12v55.38H369.32l-.61-8.09c-2.88,6.52-10.78,9.66-16.43,9.78-15,.11-26.07-10-26.07-29.43,0-19.1,11.6-29.1,26.38-29,6.78,0,13.24,3.49,16.12,9Zm-30.39,27.64c0,10.55,6.68,16.85,15,16.85,19.71,0,19.71-33.59,0-33.59C345.41,128.17,338.73,134.35,338.73,144.91Z"/><path class="cls-2" d="M403.3,117.27l.92,6.4c3.9-6.85,9.14-7.86,14.27-7.86s10.27,2.25,13,5.28L425.88,133a11.92,11.92,0,0,0-9-3.6c-6.57,0-12.63,3.82-12.63,14v29.2H391.7V117.27Z"/><path class="cls-2" d="M475.46,117.27v6.52l-23.3,35.38h23.5v13.48H433.07v-5.73l24.22-37.18H434.91V117.27Z"/><path class="cls-2" d="M500.81,101.66v15.72h14v11.8H500.71v23.93c0,5.28,2.67,7.86,6.57,7.86a13.18,13.18,0,0,0,6.05-1.69L516.82,171a26.08,26.08,0,0,1-10.36,2.36c-11,.45-18.17-6.41-18.17-20.22V129.18h-9.44v-11.8h9.44V103.12Z"/><path class="cls-2" d="M525.65,195.79V117.16h4.93V130.3a23.92,23.92,0,0,1,22-13.93c13.76.56,24.64,10.67,24.64,28.54,0,18.64-11.5,28.75-25.77,28.75-8.62,0-16.62-4.6-20.94-13.81v35.94Zm46.5-50.88c0-15.62-9.24-23.26-20.74-23.26-11.8,0-20.52,9.78-20.52,23.37s8.93,23.36,20.52,23.36S572.15,160.52,572.15,144.91Z"/><path class="cls-2" d="M594.22,117.16l.2,9.88c3.19-7.52,10.37-10.44,16.84-10.44a18.51,18.51,0,0,1,10.88,3.25l-2.26,4.5a15.25,15.25,0,0,0-8.62-2.59c-9.45.12-16.73,8.43-16.73,18.54v32.35h-5V117.16Z"/><path class="cls-2" d="M678.49,117.16v55.49h-5V160.86c-4.93,8.65-12.52,12.69-20.73,12.69-14.17,0-25.77-11.68-25.77-28.64s11.6-28.43,25.77-28.43a22.67,22.67,0,0,1,20.73,12.81V117.16ZM632,144.91c0,13.92,9.24,23.25,20.74,23.25,28.22,0,28.22-46.4,0-46.4C641.23,121.76,632,131,632,144.91Z"/><path class="cls-2" d="M710,139.85l15.09-22.69h6.06v.22L713,143.89l19.61,28.54v.22h-6L710,147.83l-16.63,24.82h-6v-.22L707,143.89l-18.17-26.51v-.22h6Z"/><path class="cls-2" d="M748.7,99.07a4.07,4.07,0,1,1-8.11,0A4.07,4.07,0,1,1,748.7,99.07ZM742,116.93v55.72h5V116.93Z"/><path class="cls-2" d="M796.22,127.27c-5.13-4.94-10.16-5.84-15.8-5.84-7.91-.11-15.5,3.14-15.3,10.22.21,7.41,9,8.87,15.4,10.11,9,1.69,21.45,3.37,20.94,16.29-.31,12.24-11.91,15.5-20.84,15.5s-17.75-3.71-22.17-11.12l3.7-3.6c4.21,6.63,11.8,9.44,18.58,9.44,6.15,0,15.49-1.8,15.8-10.56.21-8-8.21-9.55-16.52-11-9.86-1.79-19.61-3.82-19.71-14.94-.1-10.89,9.85-15.61,20.12-15.5,7.39,0,13.85,2.25,18.89,7.41Z"/><path class="cls-2" d="M249.75,256.36a21.47,21.47,0,0,1-15.19,6.26c-14.05,0-21.38-9.83-21.44-21.09S220.27,220,234.56,220a21.46,21.46,0,0,1,15.19,6.25l-2.21,1.91a18.2,18.2,0,0,0-13-5.31c-12.15,0-18.4,8.58-18.34,18.59.12,9.76,6.31,18.22,18.34,18.22a18.63,18.63,0,0,0,13-5.3Z"/><path class="cls-2" d="M283.75,232.72v29.42h-2.92v-6.25a13.76,13.76,0,0,1-12,6.73,15.13,15.13,0,0,1,0-30.26,13.35,13.35,0,0,1,12,6.79v-6.43Zm-27,14.71c0,7.39,5.36,12.33,12,12.33,16.38,0,16.38-24.6,0-24.6C262.13,235.16,256.77,240.05,256.77,247.43Z"/><path class="cls-2" d="M294.41,232.72l.12,5.24c1.84-4,6-5.54,9.77-5.54a11.5,11.5,0,0,1,6.31,1.73l-1.31,2.38a9.5,9.5,0,0,0-5-1.37,9.78,9.78,0,0,0-9.71,9.83v17.15h-2.92V232.72Z"/><path class="cls-2" d="M317.93,220.45v41.69H315V220.45Z"/><path class="cls-2" d="M377.43,256.36a21.47,21.47,0,0,1-15.19,6.26c-14.06,0-21.38-9.83-21.44-21.09S348,220,362.24,220a21.46,21.46,0,0,1,15.19,6.25l-2.21,1.91a18.22,18.22,0,0,0-13-5.31c-12.15,0-18.4,8.58-18.34,18.59.12,9.76,6.31,18.22,18.34,18.22a18.65,18.65,0,0,0,13-5.3Z"/><path class="cls-2" d="M386.6,220.45V238.2c2.38-4.23,6.49-5.84,10.6-5.9,8.21,0,12.32,5.3,12.32,13v16.85h-2.86V245.29c0-6.08-2.85-10.19-9.46-10.19-6.2,0-10.49,4.77-10.49,10.9v16.14H383.8V220.45Z"/><path class="cls-2" d="M419.89,232.72,420,238c1.85-4,6-5.54,9.77-5.54a11.48,11.48,0,0,1,6.31,1.73l-1.31,2.38a9.48,9.48,0,0,0-5-1.37,9.78,9.78,0,0,0-9.71,9.83v17.15h-2.92V232.72Z"/><path class="cls-2" d="M444.36,223.13a2.35,2.35,0,0,1-4.7,0C439.66,220,444.36,220,444.36,223.13Zm-3.87,9.47v29.54h2.92V232.6Z"/><path class="cls-2" d="M471.93,238.08c-3-2.62-5.89-3.1-9.17-3.1-4.58-.06-9,1.67-8.87,5.42.12,3.93,5.24,4.71,8.93,5.36,5.24.9,12.45,1.79,12.15,8.64-.18,6.49-6.91,8.22-12.09,8.22s-10.3-2-12.86-5.9l2.14-1.9c2.44,3.51,6.85,5,10.78,5,3.58,0,9-.95,9.17-5.6.12-4.23-4.76-5.06-9.59-5.84-5.71-.95-11.37-2-11.43-7.92s5.72-8.27,11.67-8.22a15.43,15.43,0,0,1,11,3.94Z"/><path class="cls-2" d="M488.19,223.85v8.87h10v2.44h-10v17.93c0,4,.83,6.79,5.42,6.79a11,11,0,0,0,4.53-1.19l1,2.38a12.91,12.91,0,0,1-5.54,1.49c-6.25,0-8.28-3.69-8.28-9.47V235.16h-6.25v-2.44h6.25v-8.57Z"/><path class="cls-2" d="M508.8,223.13a2.36,2.36,0,0,1-4.71,0C504.09,220,508.8,220,508.8,223.13Zm-3.87,9.47v29.54h2.91V232.6Z"/><path class="cls-2" d="M544.47,232.72v29.42h-2.92v-6.25a13.76,13.76,0,0,1-12,6.73,15.13,15.13,0,0,1,0-30.26,13.35,13.35,0,0,1,12,6.79v-6.43Zm-27,14.71c0,7.39,5.36,12.33,12,12.33,16.38,0,16.38-24.6,0-24.6C522.85,235.16,517.49,240.05,517.49,247.43Z"/><path class="cls-2" d="M555.25,232.72V238c2.26-4.05,6.37-5.72,10.48-5.77,7.86,0,13.28,4.82,13.28,13v17h-2.92V245.23c0-6.67-4.11-10.25-10.48-10.19-6.08.06-10.3,4.65-10.3,10.72v16.38h-2.92V232.72Z"/><path class="cls-2" d="M606.76,220.45V259.1h23.46v3H603.54V220.45Z"/><path class="cls-2" d="M665.24,232.72v29.42h-2.92v-6.25a13.76,13.76,0,0,1-12,6.73,15.13,15.13,0,0,1,0-30.26,13.35,13.35,0,0,1,12,6.79v-6.43Zm-27,14.71c0,7.39,5.36,12.33,12,12.33,16.38,0,16.38-24.6,0-24.6C643.62,235.16,638.26,240.05,638.26,247.43Z"/><path class="cls-2" d="M676,232.72V238c2.26-4.05,6.37-5.72,10.48-5.77,7.86,0,13.28,4.82,13.28,13v17h-2.92V245.23c0-6.67-4.11-10.25-10.48-10.19-6.07.06-10.3,4.65-10.3,10.72v16.38h-2.92V232.72Z"/><path class="cls-2" d="M731,231.53,733,233.2l-2.86,3.33A14.48,14.48,0,0,1,725.8,259c5.18,1.85,8,5.48,8,10.55,0,7.92-6.19,11.73-14,11.73s-13.94-4.29-13.94-11.73h2.92c0,6,5.12,8.87,11,8.87S731,275.84,731,269.59s-5.65-8.82-11.13-8.82c-8.52,0-13.82-6.37-13.82-14.23,0-9.17,6.19-14.35,13.82-14.35a15,15,0,0,1,8.34,2.67Zm-22.09,15c0,6.07,4.17,11.31,10.9,11.31a11.29,11.29,0,0,0,11-11.31c0-7.45-5-11.44-11-11.44S709,238.86,709,246.54Z"/><path class="cls-2" d="M229.27,278.18a8.14,8.14,0,0,0-4.6-1.72,137.11,137.11,0,0,1-17.8,72.35,4.87,4.87,0,0,0,3.19,2.07c7.1.6,14.85-23.41,17.78-34.83a139.62,139.62,0,0,0,4.22-28.86A9.06,9.06,0,0,0,229.27,278.18Z"/></g></g></svg>