<svg xmlns="http://www.w3.org/2000/svg" viewBox="0 0 279.35 104.56"><defs><style>.cls-1{fill:#fff;}</style></defs><g id="Ebene_2" data-name="Ebene 2"><g id="Ebene_1-2" data-name="Ebene 1"><g id="Ebene_2-2" data-name="Ebene 2"><g id="Ebene_1-2-2" data-name="Ebene 1-2"><path class="cls-1" d="M152.12,47.23h-4.64v4.84h-3.15V35.62h7.74a5.81,5.81,0,0,1,.67,11.61C152.54,47.24,152.33,47.24,152.12,47.23Zm-4.64-2.82h4.64a2.92,2.92,0,1,0,.44-5.83h-5.08Z"/><path class="cls-1" d="M179.6,52.08V45.37h-8.06v6.71h-3.06V35.66h3.11v6.92h8V35.66h3.08V52.08Z"/><path class="cls-1" d="M210,43.94a8.4,8.4,0,1,1-8.39-8.4A8.4,8.4,0,0,1,210,43.94Zm-13.82,0a5.39,5.39,0,0,0,10.77.6q0-.3,0-.6a5.41,5.41,0,1,0-10.77-1A6,6,0,0,0,196.18,43.94Z"/><path class="cls-1" d="M223.78,38.45h-5.21V35.62H232v2.83H226.8V52.07h-3Z"/><path class="cls-1" d="M258.33,43.94a8.44,8.44,0,1,1-8.44-8.44A8.44,8.44,0,0,1,258.33,43.94Zm-13.82,0a5.39,5.39,0,0,0,10.76.6,3,3,0,0,0,0-.6,5.41,5.41,0,1,0-10.76-1A4.52,4.52,0,0,0,244.51,43.94Z"/><path class="cls-1" d="M157.92,64.58a7.62,7.62,0,0,0-5.27-2.12A6.92,6.92,0,0,0,145.39,69a4.82,4.82,0,0,0,0,.76A6.84,6.84,0,0,0,151.83,77a7.51,7.51,0,0,0,.82,0,7.36,7.36,0,0,0,5-1.89V70.49H152V69.38h6.92v6.15a8.55,8.55,0,0,1-6.2,2.66,8.45,8.45,0,0,1,0-16.89,8.64,8.64,0,0,1,6,2.47Z"/><path class="cls-1" d="M183.4,78h-1.68L176,71.75h-4.48V78h-1.28V61.54h7.24a5,5,0,0,1,5.38,4.67c0,.13,0,.25,0,.37a4.85,4.85,0,0,1-4.64,5.06,5.15,5.15,0,0,1-.68,0Zm-11.76-7.42h5.82a3.68,3.68,0,0,0,4.14-3.15,3.86,3.86,0,0,0,0-.76A3.8,3.8,0,0,0,178,62.71h-6.33Z"/><path class="cls-1" d="M206.8,78l-1.85-4h-9.81l-1.78,4H192l7.38-16.44h1.37L208.13,78Zm-2.3-5.22-4.42-10-4.4,10Z"/><path class="cls-1" d="M219.5,72.29V78h-1.28V61.54h7.21c7.14,0,7.14,10.75,0,10.75Zm0-9.57v8.39h5.93c5.48,0,5.48-8.39,0-8.39Z"/><path class="cls-1" d="M253.55,78V70.51H243.08V78h-1.17V61.54h1.26v7.83h10.46V61.54h1.28V78Z"/><path class="cls-1" d="M271.66,71.4l-6.42-9.83h1.48l5.56,8.65,5.59-8.65h1.48l-6.43,9.83V78h-1.26Z"/><path class="cls-1" d="M89.26,74.45A77.26,77.26,0,0,0,113.68,60.2,63,63,0,0,1,75.52,71.5c5.93-7.24,18.62-24.93,18.34-48.84a68.14,68.14,0,0,0-2-15.7,67.76,67.76,0,0,1-8.58,39c-2.61-7.57-11.17-29-33-40.34A61.54,61.54,0,0,0,34.14,0a52.2,52.2,0,0,1,30,26.68c-7.88-1.46-30.64-4.61-51.3,8.75A61.41,61.41,0,0,0,0,46.58a53.15,53.15,0,0,1,38.21-13c-5.18,6.17-18.57,23.86-17.69,48A63.62,63.62,0,0,0,23.67,99a58.45,58.45,0,0,1,7.62-41.08C34.14,65.55,41.73,82.6,59.65,94.8a73.24,73.24,0,0,0,20.86,9.76A55.6,55.6,0,0,1,50.07,77.77,78.18,78.18,0,0,0,89.26,74.45ZM83.23,46l0,.07-.07-.18ZM66.52,37.78c6.25.89,11.09,7.08,11.09,14.58S72.77,66,66.52,66.93c2.78-3.48,4.54-8.72,4.54-14.57S69.3,41.27,66.52,37.78ZM47,66.91c-6.17-1-10.92-7.09-10.92-14.55S40.8,38.78,47,37.81c-2.75,3.48-4.51,8.7-4.51,14.55A23.86,23.86,0,0,0,47,66.91Zm11.87,0H51.72a17.34,17.34,0,0,0,7.14-9.38Zm0-20.68a3.6,3.6,0,0,1-3,.94A3.44,3.44,0,0,1,53.37,45a3.75,3.75,0,0,1,.09-2.68c.5-1.2,1.33-1.33,1.4-2.1.06-.53-.26-1.33-2-2.43a5.88,5.88,0,0,1,4.4.61A6,6,0,0,1,60,42.77,4.21,4.21,0,0,1,58.89,46.23Z"/></g></g></g></g></svg>