<svg xmlns="http://www.w3.org/2000/svg" viewBox="0 0 501.82 179.4"><defs><style>.cls-1{fill:#fff;}.cls-2{fill:#1c9ca2;}</style></defs><g id="Ebene_2" data-name="Ebene 2"><g id="Ebene_1-2" data-name="Ebene 1"><path class="cls-1" d="M202.37,56.61l8,23.94a2.21,2.21,0,0,1,.08.4c0,.43-.27.65-.8.65h-2.52a1.34,1.34,0,0,1-.88-.2,2.27,2.27,0,0,1-.41-.85l-1.66-5.07h-9.43l-1.62,5.11a2.14,2.14,0,0,1-.41.83,1.47,1.47,0,0,1-.89.18h-2.37c-.53,0-.79-.22-.79-.65a1.92,1.92,0,0,1,.07-.4l8.1-23.94a.87.87,0,0,1,.39-.54A2.1,2.1,0,0,1,198,56h3.24a2.1,2.1,0,0,1,.76.1A.87.87,0,0,1,202.37,56.61Zm-3,4.18-3.49,10.94h7Z"/><path class="cls-1" d="M220.3,62.23a6.24,6.24,0,0,1,4.61,1.62V57a1.16,1.16,0,0,1,.23-.83,1.44,1.44,0,0,1,.92-.21h2a1.45,1.45,0,0,1,.94.21,1.22,1.22,0,0,1,.21.83V74.07A8,8,0,0,1,227.1,80a8.09,8.09,0,0,1-6,2.09,8.33,8.33,0,0,1-6-2.09,7.53,7.53,0,0,1-2.2-5.72V70.76a9.43,9.43,0,0,1,1.91-6.32A6.89,6.89,0,0,1,220.3,62.23Zm-3.13,8.57v2.77q0,4.94,3.92,4.93T225,73.57V70.83q0-5-3.89-5T217.17,70.8Z"/><path class="cls-1" d="M232.9,62.73h2.48a1.19,1.19,0,0,1,.81.22,2,2,0,0,1,.45.86l4.07,13.25,4.14-13.28a1.63,1.63,0,0,1,.45-.83,1.37,1.37,0,0,1,.85-.22h2.3c.58,0,.87.21.87.61a3.07,3.07,0,0,1-.18.69l-5.73,16.85a1.09,1.09,0,0,1-.39.61,2.06,2.06,0,0,1-.8.11h-3.09a2.12,2.12,0,0,1-.81-.11,1,1,0,0,1-.42-.61L232.22,64a3.07,3.07,0,0,1-.18-.69C232,62.94,232.32,62.73,232.9,62.73Z"/><path class="cls-1" d="M259,69.79c.56,0,1.18,0,1.89,0s1.38.09,2,.16v-.93a4,4,0,0,0-.77-2.79,3.27,3.27,0,0,0-2.4-.78,4.23,4.23,0,0,0-1.83.35,1.94,1.94,0,0,0-1,1.17,1,1,0,0,1-.36.56,1.82,1.82,0,0,1-.79.12h-2.34a1.12,1.12,0,0,1-.79-.2.74.74,0,0,1-.22-.59,3.83,3.83,0,0,1,1.12-2.63,5.87,5.87,0,0,1,2.37-1.51,11.41,11.41,0,0,1,3.85-.54,10.41,10.41,0,0,1,4.43.76,4.37,4.37,0,0,1,2.23,2.21,8.68,8.68,0,0,1,.65,3.58v7a7.5,7.5,0,0,1-.61,3,4.82,4.82,0,0,1-2.11,2.28,8.36,8.36,0,0,1-4.19.87h-1c-2.54,0-4.42-.48-5.63-1.42A5.48,5.48,0,0,1,251.62,76a6.1,6.1,0,0,1,1-3.71,5.31,5.31,0,0,1,2.66-1.89A11.71,11.71,0,0,1,259,69.79Zm.22,3.28a4.15,4.15,0,0,0-2.54.64,2.63,2.63,0,0,0-.84,2.2,2.53,2.53,0,0,0,.82,2.16,3.88,3.88,0,0,0,2.34.61h.62a3.24,3.24,0,0,0,2.52-.86,4.47,4.47,0,0,0,.75-2.92V73.28c-.79-.09-1.49-.15-2.09-.18Z"/><path class="cls-1" d="M281.25,62.23a5.56,5.56,0,0,1,4.5,1.75,7.16,7.16,0,0,1,1.47,4.77v11.8a1.14,1.14,0,0,1-.23.85,1.52,1.52,0,0,1-.92.2h-2a1.52,1.52,0,0,1-.92-.2,1.14,1.14,0,0,1-.23-.85V69.39a4.13,4.13,0,0,0-.67-2.54,2.89,2.89,0,0,0-2.43-.88A3.54,3.54,0,0,0,277.12,67a4.15,4.15,0,0,0-1,3V80.55c0,.44-.07.72-.23.85a1.52,1.52,0,0,1-.92.2h-2a1.54,1.54,0,0,1-.92-.2,1.14,1.14,0,0,1-.23-.85V63.78a1.14,1.14,0,0,1,.23-.85,1.54,1.54,0,0,1,.92-.2h1.91a1.52,1.52,0,0,1,.92.2,1.14,1.14,0,0,1,.23.85v.75a5.6,5.6,0,0,1,2.18-1.69A7.17,7.17,0,0,1,281.25,62.23Z"/><path class="cls-1" d="M299.35,78.47a3.93,3.93,0,0,0,2.43-.65,3.22,3.22,0,0,0,1.1-2.13.86.86,0,0,1,.31-.59,1.54,1.54,0,0,1,.84-.16h1.88a1.42,1.42,0,0,1,.91.2,1,1,0,0,1,.24.77A5.51,5.51,0,0,1,305.51,80a8.37,8.37,0,0,1-6.16,2.12,7.74,7.74,0,0,1-5.81-2,8.19,8.19,0,0,1-2-5.94V70.58a8.8,8.8,0,0,1,2-6.21,7.55,7.55,0,0,1,5.81-2.14,8.37,8.37,0,0,1,6.16,2.12,5.53,5.53,0,0,1,1.55,4.07,1,1,0,0,1-.24.78,1.5,1.5,0,0,1-.91.19H304a1.54,1.54,0,0,1-.84-.16.86.86,0,0,1-.31-.59,2.93,2.93,0,0,0-3.38-2.81A3.33,3.33,0,0,0,296.67,67a6.57,6.57,0,0,0-.84,3.8v2.81a6.63,6.63,0,0,0,.81,3.76A3.09,3.09,0,0,0,299.35,78.47Z"/><path class="cls-1" d="M325.38,73.32H314.94v.18a6.4,6.4,0,0,0,.88,3.83,3.5,3.5,0,0,0,2.94,1.14c1.75,0,2.82-.63,3.2-1.88a.93.93,0,0,1,1-.61h2.24a1.55,1.55,0,0,1,.86.18.75.75,0,0,1,.25.65,3.76,3.76,0,0,1-.45,1.6,5.68,5.68,0,0,1-1.06,1.53,6.45,6.45,0,0,1-2.61,1.6,10.42,10.42,0,0,1-3.51.56,7.82,7.82,0,0,1-5.9-2.16,8.46,8.46,0,0,1-2.09-6.15V71a9.22,9.22,0,0,1,2.09-6.47,9,9,0,0,1,11.79-.16c1.33,1.42,2,3.49,2,6.23v1.69a1.2,1.2,0,0,1-.21.83A1.38,1.38,0,0,1,325.38,73.32Zm-6.66-7.64a3.53,3.53,0,0,0-2.82,1,5.43,5.43,0,0,0-1,3.37h7.24a5.43,5.43,0,0,0-.83-3.33A3.13,3.13,0,0,0,318.72,65.68Z"/><path class="cls-1" d="M337.66,62.23a6.2,6.2,0,0,1,4.6,1.62V57a1.11,1.11,0,0,1,.24-.83,1.44,1.44,0,0,1,.92-.21h2a1.4,1.4,0,0,1,.93.21,1.16,1.16,0,0,1,.22.83V74.07a7.29,7.29,0,0,1-8.1,8,8.33,8.33,0,0,1-6-2.09,7.5,7.5,0,0,1-2.2-5.72V70.76a9.43,9.43,0,0,1,1.91-6.32A6.89,6.89,0,0,1,337.66,62.23Zm-3.13,8.57v2.77c0,3.29,1.3,4.93,3.92,4.93s3.89-1.64,3.89-4.93V70.83q0-5-3.89-5C335.83,65.87,334.53,67.51,334.53,70.8Z"/><path class="cls-1" d="M165.65,143.78a3.67,3.67,0,0,0,1.41,2.32,6.7,6.7,0,0,0,6.33,0,3.23,3.23,0,0,0,1-2.63,3.4,3.4,0,0,0-.83-2.36,5.89,5.89,0,0,0-2.66-1.49l-3.82-1.19a8.45,8.45,0,0,1-4.07-2.56,6.2,6.2,0,0,1-1.44-4.1v-.33a7,7,0,0,1,2.31-5.58,9.62,9.62,0,0,1,6.48-2c3,0,5.27.81,6.73,2.42a6.1,6.1,0,0,1,1.51,4.17,1,1,0,0,1-.23.78,1.53,1.53,0,0,1-.92.19h-2.05a1.43,1.43,0,0,1-.9-.18,1.1,1.1,0,0,1-.29-.72c-.22-2-1.62-3-4.21-3s-4,1.19-4,3.57a2.94,2.94,0,0,0,.79,2.21,7.33,7.33,0,0,0,2.88,1.42l3.82,1.19a7.72,7.72,0,0,1,4.08,2.61,7,7,0,0,1,1.35,4.34v.47a6.6,6.6,0,0,1-2.27,5.38,9.71,9.71,0,0,1-6.4,1.89q-4.91,0-7.17-2.27a6.3,6.3,0,0,1-1.87-4.5,1,1,0,0,1,.23-.77,1.47,1.47,0,0,1,.92-.2h2a1.54,1.54,0,0,1,.88.18A1.15,1.15,0,0,1,165.65,143.78Z"/><path class="cls-1" d="M190.71,150.55a8.3,8.3,0,0,1-6-2.11,7.84,7.84,0,0,1-2.15-5.89V139a8.4,8.4,0,0,1,2.15-6.16,8.1,8.1,0,0,1,6-2.2,8.27,8.27,0,0,1,6,2.11,7.85,7.85,0,0,1,2.16,5.89v3.52a8.41,8.41,0,0,1-2.16,6.14A8,8,0,0,1,190.71,150.55Zm0-3.64q3.89,0,3.89-4.9v-2.8q0-4.91-3.89-4.9t-3.89,4.9V142Q186.82,146.92,190.71,146.91Z"/><path class="cls-1" d="M207.66,125.45V149a1.12,1.12,0,0,1-.23.84,1.45,1.45,0,0,1-.92.2h-2a1.45,1.45,0,0,1-.92-.2,1.12,1.12,0,0,1-.23-.84V125.45a1.12,1.12,0,0,1,.23-.84,1.52,1.52,0,0,1,.92-.2h2a1.52,1.52,0,0,1,.92.2A1.12,1.12,0,0,1,207.66,125.45Z"/><path class="cls-1" d="M223.68,149v-.72a5.67,5.67,0,0,1-2.16,1.67,6.82,6.82,0,0,1-2.91.6,5.47,5.47,0,0,1-4.45-1.75A7.21,7.21,0,0,1,212.7,144V132.22a1.08,1.08,0,0,1,.24-.84,1.42,1.42,0,0,1,.91-.2h2a1.43,1.43,0,0,1,.92.2,1.08,1.08,0,0,1,.24.84v11.16a4.25,4.25,0,0,0,.64,2.54,2.79,2.79,0,0,0,2.38.88,3.36,3.36,0,0,0,2.65-1.08,4.32,4.32,0,0,0,1-2.95V132.22a1.12,1.12,0,0,1,.23-.84,1.47,1.47,0,0,1,.92-.2h2a1.45,1.45,0,0,1,.92.2c.16.13.23.41.23.84V149c0,.43-.07.71-.23.84a1.45,1.45,0,0,1-.92.2h-1.91a1.42,1.42,0,0,1-.91-.2A1.08,1.08,0,0,1,223.68,149Z"/><path class="cls-1" d="M241.75,150h-2c-2.11,0-3.57-.51-4.36-1.53a6.55,6.55,0,0,1-1.19-4.12v-9.68h-1.9a1,1,0,0,1-.72-.2,1.26,1.26,0,0,1-.18-.81v-1.51a1.26,1.26,0,0,1,.18-.81.94.94,0,0,1,.72-.2h1.9v-4.25a1.12,1.12,0,0,1,.24-.85,1.51,1.51,0,0,1,.92-.19h2a1.5,1.5,0,0,1,.91.19,1.12,1.12,0,0,1,.24.85v4.25h3.27a.94.94,0,0,1,.72.2,1.26,1.26,0,0,1,.18.81v1.51a1.26,1.26,0,0,1-.18.81,1,1,0,0,1-.72.2h-3.27v9a3.4,3.4,0,0,0,.45,2,1.75,1.75,0,0,0,1.53.63h1.29a1,1,0,0,1,.72.2,1.26,1.26,0,0,1,.18.81V149a1.36,1.36,0,0,1-.16.81C242.38,150,242.14,150,241.75,150Z"/><path class="cls-1" d="M248.85,129a2.62,2.62,0,0,1-1.79-.58,2,2,0,0,1-.66-1.58v-.76a2,2,0,0,1,.66-1.6,3.17,3.17,0,0,1,3.6,0,2,2,0,0,1,.67,1.6v.76a2,2,0,0,1-.67,1.58A2.64,2.64,0,0,1,248.85,129Zm2.12,3.2V149a1.12,1.12,0,0,1-.23.84,1.47,1.47,0,0,1-.92.2h-2a1.45,1.45,0,0,1-.92-.2c-.16-.13-.23-.41-.23-.84V132.22c0-.43.07-.71.23-.84a1.45,1.45,0,0,1,.92-.2h2a1.47,1.47,0,0,1,.92.2A1.12,1.12,0,0,1,251,132.22Z"/><path class="cls-1" d="M263.64,150.55a8.26,8.26,0,0,1-6-2.11,7.85,7.85,0,0,1-2.16-5.89V139a8.41,8.41,0,0,1,2.16-6.16,8.06,8.06,0,0,1,6-2.2,8.26,8.26,0,0,1,6,2.11,7.85,7.85,0,0,1,2.16,5.89v3.52a8.41,8.41,0,0,1-2.16,6.14A8,8,0,0,1,263.64,150.55Zm0-3.64q3.89,0,3.89-4.9v-2.8q0-4.91-3.89-4.9t-3.89,4.9V142Q259.75,146.92,263.64,146.91Z"/><path class="cls-1" d="M285.71,130.67a5.57,5.57,0,0,1,4.5,1.75,7.18,7.18,0,0,1,1.48,4.77V149a1.08,1.08,0,0,1-.24.84,1.43,1.43,0,0,1-.92.2h-2a1.42,1.42,0,0,1-.91-.2,1.08,1.08,0,0,1-.24-.84V137.84a4.18,4.18,0,0,0-.66-2.54,2.89,2.89,0,0,0-2.43-.88,3.52,3.52,0,0,0-2.72,1.06,4.2,4.2,0,0,0-1,3V149a1.08,1.08,0,0,1-.24.84,1.42,1.42,0,0,1-.91.2h-2a1.43,1.43,0,0,1-.92-.2,1.08,1.08,0,0,1-.24-.84V132.22a1.08,1.08,0,0,1,.24-.84,1.43,1.43,0,0,1,.92-.2h1.9a1.43,1.43,0,0,1,.92.2,1.08,1.08,0,0,1,.24.84V133a5.48,5.48,0,0,1,2.17-1.69A7.2,7.2,0,0,1,285.71,130.67Z"/><path class="cls-1" d="M303.24,150.55q-4.25,0-6.23-1.88a4.55,4.55,0,0,1-1.4-3.38c0-.53.32-.79,1-.79h2.23c.58,0,.9.23,1,.68a2.15,2.15,0,0,0,1,1.57,4.67,4.67,0,0,0,2.37.48,4.34,4.34,0,0,0,2.42-.5,1.85,1.85,0,0,0,.72-1.62,2.42,2.42,0,0,0-.27-1.22,2.07,2.07,0,0,0-1-.81,12.38,12.38,0,0,0-2.09-.71l-2.38-.61q-4.68-1.22-4.68-5v-.5a4.94,4.94,0,0,1,1.89-4.14,8.42,8.42,0,0,1,5.28-1.48q4.07,0,6,1.8a4.34,4.34,0,0,1,1.33,3.24.82.82,0,0,1-.23.69,1.63,1.63,0,0,1-.92.18h-1.87a1.6,1.6,0,0,1-.83-.15.81.81,0,0,1-.29-.57q-.29-2-3.42-2a3.52,3.52,0,0,0-2.08.54,1.78,1.78,0,0,0-.76,1.55,1.7,1.7,0,0,0,.65,1.41,7.29,7.29,0,0,0,2.37,1l3.06.79c3,.79,4.47,2.5,4.47,5.11V145a4.86,4.86,0,0,1-1.91,4.09A8.62,8.62,0,0,1,303.24,150.55Z"/><path class="cls-1" d="M184.66,110.18a4.25,4.25,0,0,0,1.89,2.76,7.06,7.06,0,0,0,3.85.94,5.93,5.93,0,0,0,4-1.2,4.24,4.24,0,0,0,1.4-3.42q0-3.44-3.66-4.7L187.33,103q-5.22-1.77-5.22-6.59V96.2a6.56,6.56,0,0,1,2.26-5.31A9.51,9.51,0,0,1,190.7,89a11.06,11.06,0,0,1,3.88.6,5.94,5.94,0,0,1,2.63,1.88,5.86,5.86,0,0,1,1,1.71,5.23,5.23,0,0,1,.37,1.84.73.73,0,0,1-.17.56,1,1,0,0,1-.64.15h-1.3a1.09,1.09,0,0,1-.63-.13.9.9,0,0,1-.22-.5q-.56-3.59-5.18-3.59a5.92,5.92,0,0,0-3.9,1.18,4.68,4.68,0,0,0-.56,6.09,7.19,7.19,0,0,0,3.16,1.72l4.78,1.59a7.29,7.29,0,0,1,3.68,2.59,7.19,7.19,0,0,1,1.28,4.29v.19a6.82,6.82,0,0,1-2.26,5.36,8.8,8.8,0,0,1-6.07,2c-3.08,0-5.38-.71-6.88-2.14a6.51,6.51,0,0,1-1.37-2,5.2,5.2,0,0,1-.56-2.13.75.75,0,0,1,.17-.56,1.09,1.09,0,0,1,.65-.14h1.29a1.11,1.11,0,0,1,.61.11A.76.76,0,0,1,184.66,110.18Z"/><path class="cls-1" d="M210.82,104.08c.5,0,1.12,0,1.89.07s1.53.13,2.29.23v-2.19a4,4,0,0,0-.94-2.94,4.39,4.39,0,0,0-3.09-.91,5.69,5.69,0,0,0-2.63.5,3.43,3.43,0,0,0-1.44,1.72,1.43,1.43,0,0,1-.28.5c-.08.09-.27.13-.57.13h-1.33a1.09,1.09,0,0,1-.65-.14.75.75,0,0,1-.17-.56,2.73,2.73,0,0,1,.3-1.15,4.3,4.3,0,0,1,.74-1.11,5.93,5.93,0,0,1,2.42-1.66A10.25,10.25,0,0,1,211,96c2.47,0,4.24.48,5.33,1.43s1.63,2.51,1.63,4.68v7.58a6.58,6.58,0,0,1-1.69,5q-1.68,1.64-5.31,1.63h-.55q-3.74,0-5.55-1.41a5.29,5.29,0,0,1-1.81-4.47q0-3.3,1.9-4.81T210.82,104.08Zm.22,2.44a6.46,6.46,0,0,0-3.94.89,3.63,3.63,0,0,0-1.09,3,3.16,3.16,0,0,0,1,2.63,5.89,5.89,0,0,0,3.55.81h.33a4,4,0,0,0,3.13-1,5,5,0,0,0,.94-3.39v-2.52l-2.2-.24C212.07,106.55,211.49,106.52,211,106.52Z"/><path class="cls-1" d="M230.36,89.58h1.33a.7.7,0,0,1,.52.14,1.14,1.14,0,0,1,.11.6v1a1.14,1.14,0,0,1-.11.6c-.08.1-.25.14-.52.14h-1.07a3.33,3.33,0,0,0-2.35.67,3.12,3.12,0,0,0-.69,2.29v1.52H231a.66.66,0,0,1,.52.15,1.13,1.13,0,0,1,.11.59v1a1.14,1.14,0,0,1-.11.6A.7.7,0,0,1,231,99h-3.37v16.21a.79.79,0,0,1-.16.59.94.94,0,0,1-.61.15h-1.37a.92.92,0,0,1-.61-.15.78.78,0,0,1-.17-.59V99h-2.37a.71.71,0,0,1-.5-.14,1,1,0,0,1-.13-.6v-1a1,1,0,0,1,.13-.59.66.66,0,0,1,.5-.15h2.37V94.87a5.07,5.07,0,0,1,1.5-3.91A6,6,0,0,1,230.36,89.58Z"/><path class="cls-1" d="M249.08,107.11H237.35v.71q0,6.11,5,6.1,3.15,0,4.18-2.4a1.18,1.18,0,0,1,.33-.54,1.07,1.07,0,0,1,.52-.09h1.33a1.55,1.55,0,0,1,.67.09c.1.06.15.23.15.5a3.17,3.17,0,0,1-.41,1.33,7,7,0,0,1-.92,1.41,6.3,6.3,0,0,1-2.52,1.63,9.9,9.9,0,0,1-3.44.59,7.45,7.45,0,0,1-5.74-2.19,8.78,8.78,0,0,1-2-6.21v-2.78q0-4.44,2-6.84a7.17,7.17,0,0,1,5.8-2.41q7.62,0,7.62,8.48v1.88a.81.81,0,0,1-.17.6A1,1,0,0,1,249.08,107.11Zm-6.84-8.8c-3.24,0-4.86,2.13-4.89,6.4h9.55a8.34,8.34,0,0,0-1.13-4.85A4.08,4.08,0,0,0,242.24,98.31Z"/><path class="cls-1" d="M262.77,115.92h-2a4.9,4.9,0,0,1-3.64-1.18A5.16,5.16,0,0,1,256,111V99h-2.4a.68.68,0,0,1-.5-.14,1,1,0,0,1-.13-.6v-1a.93.93,0,0,1,.13-.59.63.63,0,0,1,.5-.15H256v-4.7a.8.8,0,0,1,.17-.59.92.92,0,0,1,.61-.15h1.37a.94.94,0,0,1,.61.15.8.8,0,0,1,.16.59v4.7h3.82q.41,0,.51.15a1,1,0,0,1,.11.59v1a1.05,1.05,0,0,1-.11.6c-.07.09-.24.14-.51.14h-3.82v11.55a3.63,3.63,0,0,0,.5,2.14,1.93,1.93,0,0,0,1.65.67h1.74a.66.66,0,0,1,.52.15,1.1,1.1,0,0,1,.11.59v1.11a1.1,1.1,0,0,1-.11.59A.66.66,0,0,1,262.77,115.92Z"/><path class="cls-1" d="M268,119.66h.44a4.23,4.23,0,0,0,2.37-.58,4.67,4.67,0,0,0,1.48-2.42l.45-1.3-6.81-17.94a1.55,1.55,0,0,1-.11-.44c0-.3.19-.45.59-.45H268a.78.78,0,0,1,.53.15,1.49,1.49,0,0,1,.32.63l5.29,14.28,4.92-14.28a1.92,1.92,0,0,1,.33-.63.72.72,0,0,1,.52-.15h1.55q.6,0,.6.45a2,2,0,0,1-.11.44l-7,19.46a12,12,0,0,1-1.67,3.41,4.54,4.54,0,0,1-2,1.55,7.22,7.22,0,0,1-2.53.41H268a.65.65,0,0,1-.5-.15.93.93,0,0,1-.13-.59V120.4a1,1,0,0,1,.13-.6A.69.69,0,0,1,268,119.66Z"/><path class="cls-1" d="M320,144.89v-4.16a6.24,6.24,0,0,1,1.31-4.28,4.85,4.85,0,0,1,3.79-1.46c2.17,0,3.65.77,4.43,2.29a3.52,3.52,0,0,1,.34,1.62.25.25,0,0,1-.29.29h-.4c-.19,0-.28-.07-.3-.23a3.15,3.15,0,0,0-1.1-2.26,4.07,4.07,0,0,0-2.64-.78q-4.07,0-4.07,5v3.87a6,6,0,0,0,1,3.75,3.5,3.5,0,0,0,2.93,1.2q3.88,0,3.88-4.17v-1.41h-2.67a.26.26,0,0,1-.29-.3v-.33a.26.26,0,0,1,.29-.3h3.41a.26.26,0,0,1,.29.3v2.1a5.2,5.2,0,0,1-1.25,3.76,4.88,4.88,0,0,1-3.64,1.28,4.66,4.66,0,0,1-3.72-1.46A6.36,6.36,0,0,1,320,144.89Z"/><path class="cls-1" d="M344.67,139.19a3.39,3.39,0,0,1,2.6,1,4,4,0,0,1,.89,2.81v7a.26.26,0,0,1-.29.29h-.45a.26.26,0,0,1-.29-.29v-6.85c0-2-.85-3-2.56-3a3,3,0,0,0-2.37.93,3.8,3.8,0,0,0-.84,2.62V150a.26.26,0,0,1-.3.29h-.44a.25.25,0,0,1-.29-.29v-6.85c0-2-.86-3-2.57-3a3,3,0,0,0-2.37.93,3.8,3.8,0,0,0-.84,2.62V150a.26.26,0,0,1-.29.29h-.44a.26.26,0,0,1-.3-.29V139.78a.26.26,0,0,1,.3-.29h.42a.26.26,0,0,1,.29.29V141a2.79,2.79,0,0,1,1.27-1.34,4.36,4.36,0,0,1,2.09-.49,3.05,3.05,0,0,1,3.21,2.06,3.18,3.18,0,0,1,1.37-1.51A4.35,4.35,0,0,1,344.67,139.19Z"/><path class="cls-1" d="M351.79,145.83V135.62a.26.26,0,0,1,.3-.29h.44a.26.26,0,0,1,.29.29v5.32c.49-1.16,1.61-1.75,3.36-1.75,2.82,0,4.22,1.64,4.22,4.9v1.82a4.92,4.92,0,0,1-1.11,3.47,4.16,4.16,0,0,1-3.21,1.2,4.09,4.09,0,0,1-3.2-1.22A5.16,5.16,0,0,1,351.79,145.83Zm1-1.83v1.81q0,3.88,3.28,3.88t3.25-3.88V144q0-3.88-3.25-3.88T352.82,144Z"/><path class="cls-1" d="M373.74,135.62V150a.26.26,0,0,1-.3.29H373a.26.26,0,0,1-.29-.29v-7.16H365V150a.26.26,0,0,1-.29.29h-.46a.26.26,0,0,1-.3-.29V135.62a.26.26,0,0,1,.3-.29h.46a.26.26,0,0,1,.29.29v6.28h7.69v-6.28a.26.26,0,0,1,.29-.29h.46A.26.26,0,0,1,373.74,135.62Z"/><path class="cls-1" d="M306.87,107.48h-1.44a1.22,1.22,0,0,1-.65-.13,1.26,1.26,0,0,1-.39-.57l-5.88-12.65v20.46a.76.76,0,0,1-.17.59.92.92,0,0,1-.61.15H296.4a.94.94,0,0,1-.61-.15.8.8,0,0,1-.17-.59V89.72a.8.8,0,0,1,.17-.59.94.94,0,0,1,.61-.15h2a1.28,1.28,0,0,1,.64.13,1.21,1.21,0,0,1,.39.58l6.74,14.65,6.92-14.65a1.28,1.28,0,0,1,.38-.58,1.35,1.35,0,0,1,.65-.13h1.89a.92.92,0,0,1,.61.15.8.8,0,0,1,.17.59v24.87a.8.8,0,0,1-.17.59.92.92,0,0,1-.61.15h-1.33a.92.92,0,0,1-.61-.15.8.8,0,0,1-.17-.59V94.13l-6,12.65a1.12,1.12,0,0,1-.39.57A1.22,1.22,0,0,1,306.87,107.48Z"/><path class="cls-1" d="M329.63,103.49c.49,0,1.12,0,1.89.07s1.52.13,2.29.22V101.6a3.92,3.92,0,0,0-.94-2.94,4.39,4.39,0,0,0-3.09-.91,5.66,5.66,0,0,0-2.63.5,3.33,3.33,0,0,0-1.44,1.72,1.61,1.61,0,0,1-.28.5.85.85,0,0,1-.57.13h-1.34a1,1,0,0,1-.64-.15.67.67,0,0,1-.17-.55,2.82,2.82,0,0,1,.29-1.15,4.33,4.33,0,0,1,.75-1.11A5.86,5.86,0,0,1,326.17,96a10.21,10.21,0,0,1,3.61-.56c2.46,0,4.24.48,5.32,1.43s1.63,2.51,1.63,4.68v7.58a6.63,6.63,0,0,1-1.68,5q-1.68,1.64-5.31,1.63h-.56q-3.74,0-5.55-1.41a5.34,5.34,0,0,1-1.81-4.48,5.8,5.8,0,0,1,1.91-4.81C325,104,327,103.49,329.63,103.49Zm.22,2.44a6.46,6.46,0,0,0-3.94.89,3.6,3.6,0,0,0-1.09,3,3.15,3.15,0,0,0,1,2.63,5.92,5.92,0,0,0,3.56.81h.33a4,4,0,0,0,3.13-1.06,5,5,0,0,0,.94-3.38v-2.52c-.74-.09-1.48-.18-2.2-.24S330.29,105.93,329.85,105.93Z"/><path class="cls-1" d="M350.57,95.42a6.35,6.35,0,0,1,4.72,1.67,6.62,6.62,0,0,1,1.64,4.84v12.66a.8.8,0,0,1-.16.59.94.94,0,0,1-.61.15h-1.37a.92.92,0,0,1-.61-.15.8.8,0,0,1-.17-.59v-12a5,5,0,0,0-1-3.46,4.21,4.21,0,0,0-3.2-1.09,4.59,4.59,0,0,0-3.51,1.43,5.31,5.31,0,0,0-1.33,3.79v11.36a.8.8,0,0,1-.17.59.94.94,0,0,1-.61.15H342.8a.92.92,0,0,1-.61-.15.8.8,0,0,1-.17-.59V96.68a.78.78,0,0,1,.17-.59.92.92,0,0,1,.61-.15h1.29a1,1,0,0,1,.62.15.79.79,0,0,1,.16.59V98A6.69,6.69,0,0,1,350.57,95.42Z"/><path class="cls-1" d="M369.29,103.49c.49,0,1.12,0,1.89.07s1.53.13,2.29.22V101.6a3.92,3.92,0,0,0-.94-2.94,4.39,4.39,0,0,0-3.09-.91,5.66,5.66,0,0,0-2.63.5,3.38,3.38,0,0,0-1.44,1.72,1.43,1.43,0,0,1-.28.5.85.85,0,0,1-.57.13h-1.33a1,1,0,0,1-.65-.15.71.71,0,0,1-.17-.55,2.7,2.7,0,0,1,.3-1.15,4.3,4.3,0,0,1,.74-1.11A5.93,5.93,0,0,1,365.83,96a10.25,10.25,0,0,1,3.61-.56c2.47,0,4.24.48,5.33,1.43s1.63,2.51,1.63,4.68v7.58a6.63,6.63,0,0,1-1.69,5q-1.68,1.64-5.31,1.63h-.55q-3.74,0-5.55-1.41a5.32,5.32,0,0,1-1.82-4.48,5.8,5.8,0,0,1,1.91-4.81Q365.3,103.48,369.29,103.49Zm.22,2.44a6.46,6.46,0,0,0-3.94.89,3.6,3.6,0,0,0-1.09,3,3.16,3.16,0,0,0,1,2.63,5.89,5.89,0,0,0,3.55.81h.33a4,4,0,0,0,3.13-1.06,5,5,0,0,0,.94-3.38v-2.52c-.74-.09-1.47-.18-2.2-.24S370,105.93,369.51,105.93Z"/><path class="cls-1" d="M384.87,118.07c.52,1.13,1.82,1.7,3.92,1.7a5.73,5.73,0,0,0,3.81-1,4.79,4.79,0,0,0,1.3-3.7v-1.74a6.69,6.69,0,0,1-5.4,2.19,7.29,7.29,0,0,1-5.59-2.09,8.42,8.42,0,0,1-2-6v-3.55A8.77,8.77,0,0,1,383,97.64a7.61,7.61,0,0,1,5.85-2.22,7.92,7.92,0,0,1,5.86,2.11,8.12,8.12,0,0,1,2.09,6v11.39a8.43,8.43,0,0,1-1,4.41,5.29,5.29,0,0,1-2.78,2.24,12.75,12.75,0,0,1-4.31.64,9.73,9.73,0,0,1-5-1.16,3.44,3.44,0,0,1-1.94-3c0-.27.05-.44.15-.5a1.49,1.49,0,0,1,.66-.09H384a1,1,0,0,1,.53.09A1.29,1.29,0,0,1,384.87,118.07Zm-1-14v2.74q0,6.14,5,6.14t5-6.14v-2.74q0-6.14-5-6.14T383.87,104.08Z"/><path class="cls-1" d="M416,106.52H404.29v.7c0,4.08,1.66,6.11,5,6.11q3.15,0,4.18-2.41a1.27,1.27,0,0,1,.34-.53,1,1,0,0,1,.51-.09h1.34a1.52,1.52,0,0,1,.66.09c.1.06.15.23.15.5a3.21,3.21,0,0,1-.41,1.33,7,7,0,0,1-.92,1.41,6.18,6.18,0,0,1-2.52,1.62,9.68,9.68,0,0,1-3.44.6,7.42,7.42,0,0,1-5.73-2.19,8.74,8.74,0,0,1-2-6.21v-2.78q0-4.44,2-6.84a7.1,7.1,0,0,1,5.79-2.41q7.62,0,7.62,8.47v1.89a.77.77,0,0,1-.17.59A.92.92,0,0,1,416,106.52Zm-6.84-8.8q-4.85,0-4.89,6.4h9.55a8.34,8.34,0,0,0-1.13-4.85A4.05,4.05,0,0,0,409.18,97.72Z"/><path class="cls-1" d="M441.59,95.42a6,6,0,0,1,4.55,1.67,6.74,6.74,0,0,1,1.59,4.84v12.66a.8.8,0,0,1-.17.59.92.92,0,0,1-.61.15h-1.37a.94.94,0,0,1-.61-.15.8.8,0,0,1-.16-.59v-12a5.16,5.16,0,0,0-1-3.46,3.9,3.9,0,0,0-3-1.09,4.34,4.34,0,0,0-3.38,1.41,5.47,5.47,0,0,0-1.28,3.81v11.36a.8.8,0,0,1-.17.59.92.92,0,0,1-.61.15H434a.94.94,0,0,1-.61-.15.8.8,0,0,1-.16-.59v-12a5.11,5.11,0,0,0-1-3.46,3.86,3.86,0,0,0-3-1.09,4.34,4.34,0,0,0-3.38,1.41,5.42,5.42,0,0,0-1.28,3.81v11.36a.8.8,0,0,1-.17.59.92.92,0,0,1-.61.15h-1.37a.94.94,0,0,1-.61-.15.8.8,0,0,1-.16-.59V96.68a.79.79,0,0,1,.16-.59.94.94,0,0,1,.61-.15h1.3a.94.94,0,0,1,.61.15.78.78,0,0,1,.17.59V98A6.36,6.36,0,0,1,430,95.42q4,0,5.47,3a7.13,7.13,0,0,1,2.63-2.33A7.85,7.85,0,0,1,441.59,95.42Z"/><path class="cls-1" d="M467.12,106.52H455.39v.7c0,4.08,1.65,6.11,5,6.11,2.09,0,3.49-.8,4.18-2.41a1.19,1.19,0,0,1,.33-.53,1.07,1.07,0,0,1,.52-.09h1.33a1.55,1.55,0,0,1,.67.09c.1.06.15.23.15.5a3.21,3.21,0,0,1-.41,1.33,6.63,6.63,0,0,1-.93,1.41,6.07,6.07,0,0,1-2.51,1.62,9.68,9.68,0,0,1-3.44.6,7.45,7.45,0,0,1-5.74-2.19,8.73,8.73,0,0,1-2-6.21v-2.78q0-4.44,2-6.84a7.13,7.13,0,0,1,5.79-2.41q7.62,0,7.63,8.47v1.89a.77.77,0,0,1-.17.59A.94.94,0,0,1,467.12,106.52Zm-6.85-8.8q-4.84,0-4.88,6.4h9.55a8.34,8.34,0,0,0-1.13-4.85A4.07,4.07,0,0,0,460.27,97.72Z"/><path class="cls-1" d="M481.29,95.42A6.35,6.35,0,0,1,486,97.09a6.62,6.62,0,0,1,1.64,4.84v12.66a.8.8,0,0,1-.16.59.94.94,0,0,1-.61.15h-1.37a.92.92,0,0,1-.61-.15.8.8,0,0,1-.17-.59v-12a5,5,0,0,0-1-3.46,4.21,4.21,0,0,0-3.2-1.09A4.59,4.59,0,0,0,477,99.44a5.31,5.31,0,0,0-1.33,3.79v11.36a.8.8,0,0,1-.17.59.94.94,0,0,1-.61.15h-1.37a.92.92,0,0,1-.61-.15.8.8,0,0,1-.17-.59V96.68a.78.78,0,0,1,.17-.59.92.92,0,0,1,.61-.15h1.29a.92.92,0,0,1,.61.15.74.74,0,0,1,.17.59V98A6.69,6.69,0,0,1,481.29,95.42Z"/><path class="cls-1" d="M501.2,115.33h-2a4.93,4.93,0,0,1-3.65-1.19,5.18,5.18,0,0,1-1.16-3.73v-12H492a.66.66,0,0,1-.5-.15,1,1,0,0,1-.13-.59v-1a1,1,0,0,1,.13-.59.66.66,0,0,1,.5-.15h2.41v-4.7a.8.8,0,0,1,.16-.59,1,1,0,0,1,.61-.15h1.37a.92.92,0,0,1,.61.15.8.8,0,0,1,.17.59v4.7h3.81c.27,0,.45,0,.52.15a1.1,1.1,0,0,1,.11.59v1a1.08,1.08,0,0,1-.11.59c-.07.1-.25.15-.52.15h-3.81v11.55a3.63,3.63,0,0,0,.5,2.14,1.91,1.91,0,0,0,1.65.67h1.74q.41,0,.51.15a1,1,0,0,1,.11.59v1.11a1,1,0,0,1-.11.59Q501.61,115.33,501.2,115.33Z"/><path class="cls-1" d="M171.33,18.4a1,1,0,0,1,.47,1.4q-2.56,5-5.35,10a359.22,359.22,0,0,1-51.4,70.43,1,1,0,0,1-1.52,0q-8.37-8.93-16.11-18.37a1,1,0,0,1,0-1.37,201.35,201.35,0,0,0,21.07-26.36A201.57,201.57,0,0,0,131.31,32.2l-.09,0A165.79,165.79,0,0,0,30.49,38.05a1,1,0,0,0-.64,1.2c1.72,7.44,5.7,23.39,11.87,37.75,2,4.67,4.25,9.22,4.25,9.22s4.59,9.31,10.33,18.38c5.84,9.23,24.17,31.6,53.1,57.05a1,1,0,0,1,0,1.53q-5.48,5.15-11.91,10.41-3.63,3-7.17,5.6a1,1,0,0,1-1.24,0A227.68,227.68,0,0,1,21.39,97.44,225.35,225.35,0,0,1,0,23.34a1,1,0,0,1,.53-1A182.94,182.94,0,0,1,39.18,6.66,191.37,191.37,0,0,1,89.74,0a191,191,0,0,1,52,7.05A181.87,181.87,0,0,1,171.33,18.4Z"/><path class="cls-2" d="M179,27.71c-.21,1.62-.45,3.3-.72,5a224.62,224.62,0,0,1-20.15,64.7,223.29,223.29,0,0,1-26.2,41.43c-4.31,5.42-8.67,10.35-12.92,14.84a1,1,0,0,1-1.38.11q-4.82-3.57-9.69-7.6a234.91,234.91,0,0,1-38.63-40.77,1,1,0,0,1,.19-1.43L88.72,88.61a1,1,0,0,1,1.45.15q5.3,6.52,11.43,13.35t12,12.61a1,1,0,0,0,1.48,0A376.83,376.83,0,0,0,176.5,32.27Q177.76,30,179,27.71Z"/></g></g></svg>