<svg xmlns="http://www.w3.org/2000/svg" viewBox="0 0 713.13 192.52"><defs><style>.cls-1{fill:#23a438;}.cls-2{fill:#fff;}</style></defs><g id="Ebene_2" data-name="Ebene 2"><g id="Ebene_1-2" data-name="Ebene 1"><path class="cls-1" d="M192,96.26A96.28,96.28,0,0,1,20,155.67a95.92,95.92,0,0,1-20-49H69L38.13,137.5a70.84,70.84,0,0,0,119.37-6.61H134a51.67,51.67,0,0,1-67.77,7.81l32.07-32.07h67.44a71.13,71.13,0,0,0,0-20.74h-46.7L151.86,53.1a70.83,70.83,0,0,0-118,8.53H57.37a51.68,51.68,0,0,1,65.77-9.15L114,61.63,89.73,85.89H0A95.2,95.2,0,0,1,5.86,61.63,96.27,96.27,0,0,1,192,96.26Z"/><path class="cls-2" d="M216.88,120.75l37.55-46.06h-35.8V54.87h63.2v16.9l-35.21,46.06h35.91v19.82H216.88Z"/><path class="cls-2" d="M333.48,138.24a40.41,40.41,0,0,1-17.14-3.56,41.43,41.43,0,0,1-13.23-9.56,43.16,43.16,0,0,1-8.51-13.53,42,42,0,0,1-3-15.56,40,40,0,0,1,3.15-15.74,43.31,43.31,0,0,1,8.81-13.35A40.93,40.93,0,0,1,317,57.67a41.92,41.92,0,0,1,17-3.39,40,40,0,0,1,30.32,13.18A44.54,44.54,0,0,1,372.72,81a41.76,41.76,0,0,1,3,15.45,40.46,40.46,0,0,1-3.09,15.63,42.8,42.8,0,0,1-8.74,13.35,42.36,42.36,0,0,1-13.35,9.33A41.33,41.33,0,0,1,333.48,138.24Zm-18.77-42a28,28,0,0,0,1.17,8.1,21.79,21.79,0,0,0,3.49,7,16.92,16.92,0,0,0,5.89,4.9,20.59,20.59,0,0,0,17-.06,16.18,16.18,0,0,0,5.89-5.07A23.25,23.25,0,0,0,351.5,104a29,29,0,0,0,1.11-8,27.55,27.55,0,0,0-1.17-8,22,22,0,0,0-3.5-6.94A16.28,16.28,0,0,0,342,76.2a19.19,19.19,0,0,0-8.4-1.74,18,18,0,0,0-8.45,1.86,17.34,17.34,0,0,0-5.89,5,21,21,0,0,0-3.44,7A29.13,29.13,0,0,0,314.71,96.26Z"/><path class="cls-2" d="M426.76,138.24a40.41,40.41,0,0,1-17.14-3.56,41.43,41.43,0,0,1-13.23-9.56,43.16,43.16,0,0,1-8.51-13.53,42,42,0,0,1-3-15.56,40,40,0,0,1,3.15-15.74,43.31,43.31,0,0,1,8.81-13.35,40.93,40.93,0,0,1,13.4-9.27,41.92,41.92,0,0,1,17-3.39,40,40,0,0,1,30.32,13.18A44.54,44.54,0,0,1,466,81a41.76,41.76,0,0,1,3,15.45,40.46,40.46,0,0,1-3.09,15.63,42.8,42.8,0,0,1-8.74,13.35,42.36,42.36,0,0,1-13.35,9.33A41.33,41.33,0,0,1,426.76,138.24ZM408,96.26a28,28,0,0,0,1.17,8.1,21.61,21.61,0,0,0,3.5,7,16.8,16.8,0,0,0,5.88,4.9,20.59,20.59,0,0,0,17-.06,16.18,16.18,0,0,0,5.89-5.07,23.25,23.25,0,0,0,3.38-7.12,29,29,0,0,0,1.11-8,27.55,27.55,0,0,0-1.17-8,22,22,0,0,0-3.5-6.94,16.28,16.28,0,0,0-5.94-4.84,19.16,19.16,0,0,0-8.4-1.74,18,18,0,0,0-8.45,1.86,17.34,17.34,0,0,0-5.89,5,21,21,0,0,0-3.44,7A29.13,29.13,0,0,0,408,96.26Z"/><path class="cls-2" d="M482.73,137.65V54.87h35.68a25.53,25.53,0,0,1,11.19,2.45,28.24,28.24,0,0,1,8.87,6.58,30.82,30.82,0,0,1,5.77,9.27,27.88,27.88,0,0,1,2,10.38,29.41,29.41,0,0,1-3.44,13.88,29.11,29.11,0,0,1-9.56,10.67A24.9,24.9,0,0,1,519,112.23H505.47v25.42Zm22.74-45.24h12a5,5,0,0,0,2.68-.81,6.24,6.24,0,0,0,2.16-2.8,13.23,13.23,0,0,0,.87-5.25,12.05,12.05,0,0,0-1-5.42,5.93,5.93,0,0,0-2.45-2.68,6.09,6.09,0,0,0-2.85-.76H505.47Z"/><path class="cls-2" d="M559.45,137.65V54.87h38a25.55,25.55,0,0,1,11.2,2.45,28.2,28.2,0,0,1,8.86,6.58,30.63,30.63,0,0,1,5.77,9.27,27.88,27.88,0,0,1,2,10.38,30.14,30.14,0,0,1-1.4,9.21,27.73,27.73,0,0,1-4.08,8.11,28.61,28.61,0,0,1-6.41,6.35l17.49,30.43H606L591.4,112.23h-9.21v25.42Zm22.74-45.24h14.34a4.17,4.17,0,0,0,2.68-1,7.92,7.92,0,0,0,2.16-3,11.83,11.83,0,0,0,.88-4.78,10.52,10.52,0,0,0-1-4.84,8.2,8.2,0,0,0-2.44-3,4.93,4.93,0,0,0-2.86-1H582.19Z"/><path class="cls-2" d="M661.36,54.87h25.42l26.35,82.78H690l-4.28-16.2H662.37l-4.28,16.2h-23.2Zm20.4,51.42-7.69-29.15-7.69,29.15Z"/></g></g></svg>