<svg xmlns="http://www.w3.org/2000/svg" viewBox="0 0 365.85 134.57"><defs><style>.cls-1{fill:#fff;}.cls-2{fill:#ce3e3e;}</style></defs><title>Med Dent Consult Logo Kontrast-weiß</title><g id="Ebene_2" data-name="Ebene 2"><g id="Ebene_1-2" data-name="Ebene 1"><path class="cls-1" d="M39.73,124.64a2.52,2.52,0,0,1,1.8,4.3,24.83,24.83,0,0,1-15.9,5.63,24.34,24.34,0,0,1-17.88-7.42,25.24,25.24,0,0,1,0-35.75A24.34,24.34,0,0,1,25.63,84a24.66,24.66,0,0,1,16.09,5.79,2.52,2.52,0,0,1,.73,1.8,2.53,2.53,0,0,1-4.34,1.77A19.29,19.29,0,0,0,25.63,89,19.5,19.5,0,0,0,11.32,95a20.22,20.22,0,0,0,0,28.61,19.5,19.5,0,0,0,14.31,5.93,19.36,19.36,0,0,0,12.64-4.43A2.52,2.52,0,0,1,39.73,124.64Z"/><path class="cls-1" d="M109.6,109.27a25.33,25.33,0,0,1-25.3,25.3A25.32,25.32,0,0,1,59,109.27,25.32,25.32,0,0,1,84.3,84a25.33,25.33,0,0,1,25.3,25.29ZM84.3,89A20.23,20.23,0,0,0,70,123.58a20.22,20.22,0,0,0,28.61,0A20.24,20.24,0,0,0,84.3,89Z"/><path class="cls-1" d="M133.05,132a2.54,2.54,0,0,1-2.53,2.53A2.56,2.56,0,0,1,128,132V86.51A2.54,2.54,0,0,1,130.52,84a2.56,2.56,0,0,1,2,.92l30.92,39.77V86.51A2.54,2.54,0,0,1,165.93,84a2.53,2.53,0,0,1,2.53,2.53V132a2.54,2.54,0,0,1-2.53,2.53,2.54,2.54,0,0,1-1.89-.82l-31-39.84Z"/><path class="cls-1" d="M192.36,104.88A12.72,12.72,0,0,1,202,84a12.64,12.64,0,0,1,9.61,4.52,14.17,14.17,0,0,1,1.23,1.71,2.51,2.51,0,0,1,.38,1.36,2.53,2.53,0,0,1-2.53,2.53,2.06,2.06,0,0,1-1.77-.76l-1.17-1.55a7.59,7.59,0,0,0-13.34,4.27,7.28,7.28,0,0,0,1.8,5.53,12.25,12.25,0,0,0,5.44,2.59q6.6,1.45,10.05,5.38a14.5,14.5,0,0,1,3.57,9.61c0,.49,0,1-.06,1.45a15.2,15.2,0,0,1-15,13.95,15.27,15.27,0,0,1-11.7-5.38,10.53,10.53,0,0,1-1.2-1.55,2.42,2.42,0,0,1-.51-1.51,2.46,2.46,0,0,1,.74-1.79,2.42,2.42,0,0,1,1.79-.74,2.47,2.47,0,0,1,2.15,1.17,7.3,7.3,0,0,0,.88,1.13,9.69,9.69,0,0,0,6.9,3.58,9.84,9.84,0,0,0,7.36-2.39,10.16,10.16,0,0,0,1.2-14.27q-2.34-2.62-7.3-3.93A15.86,15.86,0,0,1,192.36,104.88Z"/><path class="cls-1" d="M233.71,86.51A2.54,2.54,0,0,1,236.24,84a2.53,2.53,0,0,1,2.53,2.53v30.35a12.65,12.65,0,1,0,25.29,0V86.51A2.54,2.54,0,0,1,266.59,84a2.53,2.53,0,0,1,2.53,2.53v30.35a17.71,17.71,0,0,1-35.41,0Z"/><path class="cls-1" d="M287.52,86.51a2.53,2.53,0,1,1,5.06,0v43h25.29a2.52,2.52,0,0,1,1.79,4.31,2.43,2.43,0,0,1-1.79.75H290.05a2.54,2.54,0,0,1-2.53-2.53Z"/><path class="cls-1" d="M329.82,89a2.53,2.53,0,1,1,0-5.06H362.7a2.53,2.53,0,1,1,0,5.06H348.79v43a2.53,2.53,0,0,1-5.06,0V89Z"/><path class="cls-2" d="M354.34,13.3V55.52H338.19V13.3H326.68V0h39.17V13.3Z"/><path class="cls-1" d="M60.36,0V55.52H44.54V15.82L34.27,55.52H23.45L12.77,15.82v39.7H0V0H22.27l8.05,29.49L38,0Z"/><path class="cls-1" d="M109.27,42.26V55.52H67.5V0h41.77V12.81h-25v8.06h20.25V33.19H84.22v9.07Z"/><path class="cls-2" d="M261.76,42.26V55.52H220V0h41.77V12.81h-25v8.06H257V33.19H236.71v9.07Z"/><path class="cls-2" d="M317.3,55.52H303.44L288.23,31a93.51,93.51,0,0,1-5.9-11.47,38.91,38.91,0,0,1,1.34,9.11V55.52H269.84V0H286l12.93,20.33A79.21,79.21,0,0,1,304.74,31a80.54,80.54,0,0,1-1.3-14.56V0H317.3Z"/><path class="cls-2" d="M207.91,8.66Q201,.37,187,.37H165.49V55.88H188q11.91,0,19.38-7.78t7.46-20.24A29,29,0,0,0,207.91,8.66Zm-7.14,36.1a28.86,28.86,0,0,0,2.57-16.92,22.9,22.9,0,0,0-4-10.08,21.56,21.56,0,0,0-4.48-4.53,22.65,22.65,0,0,0-7.17-3.54A69.39,69.39,0,0,0,173.3,6.74h13.87A20.16,20.16,0,0,1,199.79,11,19.84,19.84,0,0,1,205.12,18a23.15,23.15,0,0,1,1.94,16.44A22.4,22.4,0,0,1,200.77,44.76Z"/><path class="cls-1" d="M139,.37Q125,.37,118,8.66a29,29,0,0,0-7,19.2q0,12.45,7.47,20.24t19.38,7.78h22.53V.37ZM124.84,11.69a28.8,28.8,0,0,0-2.56,16.92,22.85,22.85,0,0,0,4,10.08,21.56,21.56,0,0,0,4.48,4.53,22.65,22.65,0,0,0,7.17,3.54,69.39,69.39,0,0,0,14.37,3H138.44a20.14,20.14,0,0,1-12.61-4.29,19.7,19.7,0,0,1-5.34-6.94,23.16,23.16,0,0,1-1.94-16.43A22.48,22.48,0,0,1,124.84,11.69Z"/><line class="cls-1" y1="70.54" x2="365.85" y2="70.54"/><rect class="cls-1" y="69.04" width="365.85" height="3"/></g></g></svg>