<svg xmlns="http://www.w3.org/2000/svg" viewBox="0 0 1593.04 296.8"><defs><style>.cls-1{fill:#e51433;}.cls-2{fill:#fff;}</style></defs><g id="Ebene_2" data-name="Ebene 2"><g id="Ebene_1-2" data-name="Ebene 1"><path class="cls-1" d="M308.35,148.35V3.87c0-.66,0-1.33,0-2C308.25.45,308.92,0,310.3,0q19.49,0,39,0c1.39,0,2,.49,1.92,1.9,0,.48,0,1,0,1.45v290c0,3.39,0,3.39-3.3,3.39H311.45c-3.09,0-3.1,0-3.1-3.06Z"/><path class="cls-1" d="M42.63,148.38V293c0,.66,0,1.33,0,2,.06,1.19-.39,1.77-1.67,1.77q-19.66,0-39.33,0c-1.15,0-1.69-.45-1.62-1.61,0-.54,0-1.09,0-1.63V3.33A14,14,0,0,0,0,1.88C-.13.43.58,0,2,0q19.4,0,38.79,0c1.39,0,2,.5,1.9,1.92,0,.6,0,1.2,0,1.81Z"/><path class="cls-1" d="M211.56,202.79V112c0-3.13,0-3.13,3.09-3.13h37.16c2.52,0,2.57.05,2.58,2.5V294.24c0,2.51,0,2.54-2.52,2.54h-37.7c-2.6,0-2.61,0-2.61-2.64Z"/><path class="cls-1" d="M520.09,203V111.81c0-3,0-3,3-3h37.16c2.54,0,2.64.11,2.64,2.67v182.7c0,2.51,0,2.56-2.51,2.56h-37.7c-2.6,0-2.61,0-2.61-2.63Q520.09,248.57,520.09,203Z"/><path class="cls-1" d="M139.44,202.78v91c0,3,0,3-3,3H99.84c-3.22,0-3.22,0-3.22-3.16V112.31c0-.67,0-1.33,0-2a1.3,1.3,0,0,1,1.47-1.44l1.09,0h37.71c2.47,0,2.53.06,2.53,2.55Z"/><path class="cls-1" d="M466.13,202.83V293.3c0,.55,0,1.09,0,1.63.1,1.44-.58,2-2,1.86a14,14,0,0,0-1.45,0h-37c-2.38,0-2.44-.06-2.44-2.44q0-91.47,0-182.94c0-2.42.12-2.55,2.58-2.55h37.53c2.64,0,2.72.08,2.72,2.78Z"/><path class="cls-1" d="M616.9,202.78v-91c0-2.91,0-2.92,2.89-2.92H657c2.69,0,2.77.07,2.77,2.73V294c0,2.8,0,2.81-2.85,2.81H619.52c-2.61,0-2.62,0-2.62-2.62Z"/><path class="cls-2" d="M1107.2,66.54v60.73c0,3.62,0,3.62-3.72,3.62-3.57,0-7.15-.09-10.72,0-2.14.08-2.82-.69-2.81-2.83.07-17.79,0-35.57,0-53.36,0-3.3,0-3.31-3.33-3.31-8.93,0-17.87.06-26.8,0-2.17,0-2.78.74-2.77,2.84.07,17.64,0,35.28,0,52.92,0,3.74,0,3.74-3.85,3.74-3.64,0-7.29-.09-10.94,0-2.08.06-2.74-.81-2.71-2.77.08-4,0-8,0-12.06q0-54.58,0-109.18c0-.75,0-1.49,0-2.23-.17-1.9.57-2.67,2.55-2.62,4.09.12,8.19.13,12.28,0,2.09-.06,2.69.73,2.68,2.73-.07,11.68,0,23.37,0,35.05,0,4.69,0,9.38,0,14.07,0,1.61.5,2.24,2.18,2.23,9.52,0,19-.07,28.58,0,2.19,0,2.13-1.19,2.13-2.71q0-24,0-48c0-3.33,0-3.34,3.32-3.34,3.72,0,7.44.1,11.16,0,2.19-.09,2.77.75,2.77,2.84Q1107.15,35.74,1107.2,66.54Z"/><path class="cls-2" d="M847.7,66.45v61.18c0,3.25,0,3.25-3.19,3.26-3.73,0-7.45-.11-11.17,0-2.3.1-2.9-.78-2.89-3,.07-17.72,0-35.43,0-53.14,0-3.37,0-3.37-3.27-3.38H800.64c-3,0-3,0-3,3v53.37c0,3.08,0,3.12-3.1,3.13q-5.25,0-10.5,0c-3.61,0-3.61,0-3.61-3.73V49.45c0-14.81,0-29.62,0-44.43,0-2.22.6-3,2.89-3,3.87.16,7.75.15,11.61,0,2.18-.08,2.8.74,2.79,2.84-.07,16.08,0,32.15,0,48.23,0,3,0,3,2.93,3h27c2.9,0,2.91,0,2.91-3V5.33c0-3.21,0-3.22,3.22-3.22h10.72c3.27,0,3.27,0,3.27,3.38Z"/><path class="cls-2" d="M1289.64,66.54V5.35c0-3.23,0-3.24,3.18-3.24,3.8,0,7.6.09,11.39,0,2.08-.07,2.68.72,2.67,2.72-.06,16.08,0,32.16,0,48.24,0,3.09,0,3.1,3,3.1h26.8c3,0,3,0,3-3.12V5.23c0-3.1,0-3.12,3.11-3.12h10.94c3.16,0,3.17,0,3.17,3.27V127.74c0,3.11,0,3.14-3.09,3.15-3.8,0-7.6-.09-11.39,0-2.18.08-2.78-.78-2.78-2.87.06-17.79,0-35.58,0-53.36,0-3.26,0-3.26-3.16-3.27H1310c-3.11,0-3.12,0-3.12,3.08v53.14c0,3.23,0,3.23-3.22,3.24q-5.36,0-10.72,0c-3.26,0-3.27,0-3.27-3.4Z"/><path class="cls-2" d="M937.86,66.62c-.31,14.24-1.1,28.42-6.09,42-2.68,7.26-6.57,13.72-12.91,18.36-12.64,9.24-36.31,8.55-46.67-11.93-4.44-8.77-6.57-18.15-7.73-27.8A179.61,179.61,0,0,1,863.61,56c.71-13.36,2.47-26.52,8.85-38.62C883-2.6,905.32-2.66,917.3,4.88c6.36,4,10.41,9.89,13.34,16.63,3.74,8.63,5.4,17.77,6.31,27.06C937.53,54.57,937.88,60.59,937.86,66.62Zm-17.53-1.18A145.09,145.09,0,0,0,918.92,42c-1-6.49-2.27-12.9-5.63-18.68-3-5.15-7.31-7.81-13.37-7.64-5.87.16-9.67,3.33-12.41,8.15a37.47,37.47,0,0,0-4.11,11.51c-3.75,19.48-3.57,39-.74,58.59.88,6.12,2.53,12.1,6.18,17.29a14.11,14.11,0,0,0,22.37,1.28,26.82,26.82,0,0,0,5.45-10.88C919.88,90.17,920.39,78.44,920.33,65.44Z"/><path class="cls-2" d="M1375.84,52.64q0-23.77,0-47.55c0-2.95,0-3,3-3h10.72c3.48,0,3.49,0,3.49,3.4V67.58q0,14.63,0,29.24a38.71,38.71,0,0,0,.83,7.75c2,9.88,8.23,13.64,18.09,12.57,8.19-.88,12.39-5.68,13.45-14.43a68.76,68.76,0,0,0,.49-8.24q0-44.31,0-88.63c0-3.73,0-3.73,3.83-3.73,3.57,0,7.14.08,10.71,0,2-.06,2.73.62,2.71,2.69-.09,8.92,0,17.86,0,26.79q0,33.48,0,67a41.3,41.3,0,0,1-2.87,15.26c-3.68,9.36-10.48,15.18-20.19,17.57a43.7,43.7,0,0,1-20.12.22c-13-2.89-20.29-11.37-23.07-24.09a44,44,0,0,1-1-9.52q0-22.65,0-45.32Z"/><path class="cls-2" d="M1179.1,38c-1.94,0-3.88-.07-5.81,0-1.7.08-2.34-.59-2.48-2.3a31.66,31.66,0,0,0-3.24-12.2c-5.51-10.66-20.32-9.31-25.51-3.43-4.25,4.82-4.89,13-1.23,19.45a34.6,34.6,0,0,0,9.36,10.07c6.64,5.16,13.94,9.41,20.5,14.68,8.54,6.86,15.17,15,17.06,26.12,1.83,10.79,1.07,21.28-5.73,30.48-5.38,7.26-13.11,10.21-21.74,11.3a37.38,37.38,0,0,1-17-1.52c-10.84-3.72-17.1-11.62-20.35-22.3A56.75,56.75,0,0,1,1121,95.21c-.08-1.34.59-1.89,1.87-1.89,4.16,0,8.33,0,12.5,0,1.76,0,2.09,1,2.08,2.47a31.08,31.08,0,0,0,1.86,10.49c4.82,13.69,23.07,13.51,29.22,5.72,4.48-5.68,5.42-15.7,1.79-22.64-2.77-5.29-7.11-9.11-11.71-12.68-6.7-5.21-14-9.62-20.47-15.12-7.73-6.57-13.85-14.19-15.27-24.64-2.76-20.18,9-34.3,26.8-36.22,11-1.19,20.88,1.18,28.52,9.8,5.06,5.72,7.35,12.67,8.44,20.08.23,1.61.28,3.26.48,4.88.23,1.89-.44,2.76-2.46,2.62C1182.82,37.94,1181,38,1179.1,38Z"/><path class="cls-2" d="M1217.15,66.37c-.2,11.1.11,22.17,2.62,33.05a30.06,30.06,0,0,0,5.34,12.16c6.81,8.68,21.49,7.46,26.67-2.28,2.93-5.52,3.74-11.56,4-17.69s.18-6,6.13-6c3.13,0,6.26,0,9.38,0,1.37,0,2.09.46,2.06,1.93-.26,10.53-1.75,20.77-7.4,30s-13.83,13.8-24.37,14.88a37,37,0,0,1-14.13-1.21c-10.32-3-16.64-10.26-20.78-19.75-3.7-8.48-5.34-17.48-6.23-26.62a169.36,169.36,0,0,1-.87-21.84c.4-12.43,1.26-24.82,5.29-36.74,2.31-6.86,5.5-13.29,11.08-18.06C1233-6.5,1257.93-.61,1266.76,20c2.88,6.71,4,13.81,4.79,21,.22,2.09-.58,2.78-2.61,2.73-4-.1-8-.09-12.06,0-1.77,0-2.52-.6-2.69-2.39a59.2,59.2,0,0,0-2.29-12.71c-.34-1.06-.68-2.12-1.11-3.15-2.23-5.33-5.64-9.33-11.85-9.8-6.89-.52-12.18,2.14-15.6,8.23-2.93,5.23-4.14,11-4.91,16.83-.55,4.27-1,8.57-1.23,12.87S1217.15,62.13,1217.15,66.37Z"/><path class="cls-2" d="M967.3,66.32c-.14,10.72.22,21.2,2.34,31.53a34.24,34.24,0,0,0,5,12.81c3.68,5.35,9,7.09,15.17,6.58s10.6-3.91,13.07-9.69c2.09-4.86,2.77-10,3.13-15.22.11-1.63.08-3.28.12-4.91,0-1.12.44-1.83,1.72-1.83,4.69,0,9.38,0,14.07,0,1,0,1.65.38,1.62,1.41-.44,14.36-2.48,28.19-14.18,38.3-6.84,5.92-15.13,7.7-24,7.15-15.74-1-24.67-10.39-29.82-24.34-3.41-9.23-4.67-18.88-5.36-28.63a181.61,181.61,0,0,1,.45-31.2c1.17-11.48,3.3-22.68,9.37-32.77C967.06,3.83,979.16-.79,991.88.6c14.46,1.57,22.35,10.58,26.7,23.58A81.56,81.56,0,0,1,1021.83,41c.23,2.07-.52,2.81-2.58,2.76-3.86-.11-7.74-.16-11.61,0-2.33.11-3.2-.84-3.32-3a49.1,49.1,0,0,0-1.8-10.76,42,42,0,0,0-1.84-5.26c-2.15-4.82-5.43-8.43-11-9-6.13-.61-11.34,1.21-15,6.45s-5,11.56-5.94,17.84A158.23,158.23,0,0,0,967.3,66.32Z"/><path class="cls-2" d="M1530,66.54q0-30.6,0-61.18c0-3.24,0-3.25,3.18-3.25h54.7c3,0,3,.07,3,3,0,3.13,0,6.25,0,9.38,0,2.86-.1,3-3.07,3H1550.3c-3.12,0-3.12,0-3.13,3,0,11,0,22,0,33,0,2.06.62,2.68,2.67,2.66,8.93-.1,17.86,0,26.79-.08,2.16,0,2.88.68,2.79,2.82a95.86,95.86,0,0,0,0,9.59c.12,2.25-.64,3-2.9,3-8.78-.1-17.56,0-26.35,0-2.94,0-3,0-3,3,0,12.8,0,25.6,0,38.4,0,2.17.66,2.78,2.79,2.77,13.33-.08,26.65,0,40,0,3,0,3.12.12,3.14,3.16,0,3.27,0,6.55,0,9.82,0,1.71-.7,2.36-2.41,2.36q-29.14,0-58.27,0c-2.36,0-2.4-1.27-2.4-3Q1530,97.24,1530,66.54Z"/><path class="cls-2" d="M1462.57,66.52V5.35c0-3.23,0-3.24,3.22-3.24,3.94,0,7.89.07,11.83,0,1.88-.05,2.56.71,2.45,2.5-.08,1.18,0,2.38,0,3.57V111.52c0,4,0,4,3.93,4,11.17,0,22.33.05,33.49,0,2.25,0,3,.67,2.93,2.93a93.15,93.15,0,0,0,0,9.6c.13,2.34-.82,2.89-3,2.88-17.26-.07-34.53,0-51.79,0-3,0-3.06-.06-3.06-3.19Z"/><path class="cls-2" d="M1162,196.23q-5.51,18.15-11,36.3c-3.6,11.9-7.23,23.78-10.75,35.7-.59,2-1.56,2.77-3.64,2.61a45.27,45.27,0,0,0-6.69,0c-1.83.12-2.63-.6-3.14-2.32-3.68-12.33-7.45-24.64-11.18-37q-5.27-17.42-10.51-34.83a9.37,9.37,0,0,0-.51-1V199q0,46.77,0,93.56c0,4.55.38,4.14-4.26,4.16-3.28,0-6.55,0-9.83,0-1.52,0-2.21-.59-2.14-2.11,0-.51,0-1,0-1.56V171.77c0-3.86,0-3.87,3.8-3.87,5.88,0,11.76.12,17.64-.05,2.5-.08,3.66.69,4.36,3.19,6.13,21.77,12.4,43.5,18.63,65.24.22.78.49,1.54.94,2.95,1.17-4,2.18-7.49,3.15-10.95,5.38-19.27,10.79-38.54,16.1-57.84.54-1.95,1.43-2.61,3.41-2.58q9.71.15,19.42,0c2.16,0,2.84.78,2.84,2.88q-.06,61.63,0,123.27c0,2-.66,2.77-2.72,2.69q-5.47-.21-10.94,0c-2.12.08-2.65-.78-2.64-2.75,0-17.34,0-34.68,0-52V196.19Z"/><path class="cls-2" d="M1575.54,250.43v-79.5c0-2.93.09-3,3-3,3.87,0,7.75.05,11.61,0,1.87,0,2.65.52,2.64,2.54q-.06,61.86,0,123.72c0,2-.65,2.61-2.58,2.56q-6.48-.15-13,0c-1.73,0-2.48-.67-3-2.23q-14.07-39.66-28.22-79.29c-2.16-6.08-4.35-12.14-6.85-18.15v96.17c0,3.45,0,3.46-3.41,3.46-3.79,0-7.59-.06-11.38,0-1.77,0-2.37-.68-2.35-2.37,0-5.88,0-11.77,0-17.65v-105c0-3.81,0-3.82,3.85-3.82,5.88,0,11.77.08,17.64,0,2.06,0,3,.67,3.69,2.62q13.24,38.19,26.63,76.31c.43,1.25.91,2.49,1.36,3.74Z"/><path class="cls-2" d="M963.15,232.19V171c0-3.05.06-3.11,3.13-3.11,9.75,0,19.5-.13,29.25,0,9.05.17,17.55,2.25,24.67,8.3,6.8,5.77,10.13,13.33,10.92,22,.69,7.52-.23,14.85-3.77,21.7a27.89,27.89,0,0,1-13.19,12.84c-2.08,1-2.2,2-1.52,4q9.71,28.19,19.27,56.4c.21.64.43,1.27.63,1.91.31,1,0,1.59-1.13,1.59-5.06,0-10.12,0-15.18,0-1.66,0-1.81-1.3-2.18-2.39q-6.27-18.5-12.53-37c-1.95-5.78-4-11.54-5.86-17.34-.55-1.71-1.42-2.39-3.22-2.26-3.41.25-6.84.39-10.26.44-2,0-1.82,1.27-1.82,2.57v34.39c0,6.33-.07,12.66,0,19,0,2.09-.72,2.72-2.72,2.67-3.87-.12-7.74,0-11.61,0-2.88,0-2.92,0-2.92-3.07V232.19Zm17.21-29.37c0,6,0,11.89,0,17.84,0,1.53.51,2.09,2.07,2.1a118,118,0,0,0,14.69-.52c6.24-.73,12.07-2.45,15-8.82a25.75,25.75,0,0,0,1.93-12c-.5-11.32-6-16.85-17.28-17.85-4.68-.41-9.35-.22-14-.39-1.9-.07-2.4.69-2.38,2.48C980.41,191.38,980.36,197.1,980.36,202.82Z"/><path class="cls-2" d="M1294.1,232.19V171c0-3.08,0-3.17,3.11-3.12,8.92.15,17.85-.32,26.77.31,16.69,1.16,27.87,9.62,33.69,25.24a90.06,90.06,0,0,1,5,24.62,179.62,179.62,0,0,1,0,29c-.9,10.74-2.77,21.25-8,30.86-5.93,10.8-15.23,16.73-27.28,18.21-10.44,1.28-21,.32-31.44.54-1.2,0-1.79-.51-1.76-1.74,0-.74,0-1.48,0-2.23Zm17.21,0v14.51c0,10.71,0,21.42,0,32.13,0,1.92.54,2.72,2.53,2.59,2.37-.14,4.77,0,7.14-.12,8.87-.55,15.6-4.41,19.44-12.71,2.8-6,4-12.42,4.68-19a167.68,167.68,0,0,0,.41-30.06c-.57-7.57-1.48-15.1-4.51-22.18-3.22-7.53-8.69-12.31-16.93-13.56a56.11,56.11,0,0,0-9.78-.59c-2.94.06-3,0-3,3Z"/><path class="cls-2" d="M780.42,232.22V171.05c0-3.11,0-3.19,3.09-3.14,8.92.15,17.84-.32,26.77.3,16.79,1.17,28,9.73,33.78,25.44A90.49,90.49,0,0,1,849,218.28,179.2,179.2,0,0,1,849,247c-1,11.34-2.93,22.44-8.94,32.39s-15.15,15.38-26.58,16.72c-10.37,1.22-20.81.3-31.22.53-1.78,0-1.79-1.13-1.79-2.4q0-9.93,0-19.86Zm17.21.07c0,15.47,0,30.94,0,46.41,0,2.05.62,2.82,2.68,2.69,2.37-.16,4.76,0,7.13-.14,8.77-.59,15.44-4.42,19.27-12.62,2.81-6,4-12.42,4.7-18.95a166.76,166.76,0,0,0,.43-30.06c-.58-7.57-1.47-15.11-4.49-22.19-2.49-5.85-6.37-10.38-12.56-12.52-4.63-1.61-9.47-1.65-14.31-1.76-2.33-.05-2.87.75-2.85,2.95C797.67,201.5,797.63,216.89,797.63,232.29Z"/><path class="cls-2" d="M1205.77,232.41q0-30.37,0-60.73c0-3.78,0-3.78,3.65-3.78q27,0,54,0c3.21,0,3.21,0,3.22,3.24v8.7c0,3.36,0,3.37-3.28,3.37h-37.07c-3.06,0-3.06,0-3.06,3.1,0,10.94,0,21.88,0,32.82,0,2.12.63,2.84,2.79,2.82,8.78-.11,17.56,0,26.34,0,3,0,3.06.07,3.07,3,0,3.28-.08,6.55,0,9.83.06,1.95-.69,2.59-2.61,2.57-8.93-.07-17.86,0-26.79-.07-2.12,0-2.84.59-2.83,2.77q.13,19.32,0,38.63c0,2.14.67,2.82,2.81,2.81,13.17-.08,26.35,0,39.52,0,3.3,0,3.31,0,3.31,3.39,0,3.05-.11,6.1,0,9.15.09,2.14-.68,2.82-2.82,2.81-16-.07-32,0-48,0h-9.16c-3.1,0-3.14,0-3.14-3.09q0-20,0-40Z"/><path class="cls-2" d="M1433.91,232.21V171c0-3.1,0-3.14,3.09-3.14q27.46,0,54.93,0c2.77,0,2.88.12,2.89,2.92,0,3.2-.09,6.4,0,9.59.09,2.12-.64,2.85-2.81,2.84-12.57-.08-25.15,0-37.73,0-3.18,0-3.19,0-3.19,3.18v32.15c0,3.36,0,3.36,3.48,3.36,8.63,0,17.26.06,25.9,0,2.12,0,2.91.65,2.82,2.81-.14,3.27-.15,6.56,0,9.82.1,2.22-.8,2.79-2.87,2.77-8.86-.09-17.71,0-26.57-.08-2.12,0-2.82.6-2.8,2.77q.14,19.32,0,38.63c0,2.13.63,2.82,2.79,2.81,13.24-.08,26.49,0,39.74,0,3.08,0,3.09,0,3.1,3.13v8.94c0,3.23,0,3.24-3.17,3.24h-56.27c-3.35,0-3.36,0-3.36-3.28Z"/><path class="cls-2" d="M874.65,232.2V171c0-3.06.05-3.11,3.13-3.11q27.26,0,54.5,0c3.15,0,3.27.12,3.28,3.26s-.08,6.25,0,9.37c.07,2-.63,2.73-2.7,2.72-12.66-.08-25.31,0-38,0-3,0-3,0-3,3.1,0,10.95,0,21.89,0,32.83,0,2.14.62,2.83,2.78,2.81,8.64-.11,17.27,0,25.91,0,3.51,0,3.51,0,3.51,3.62,0,3-.08,6.11,0,9.16.08,1.95-.66,2.6-2.59,2.58-8.86-.07-17.72,0-26.58,0-3,0-3,0-3,2.92v38.19c0,3,0,3,3,3h39.53c3.08,0,3.11,0,3.11,3.12,0,3.28-.06,6.55,0,9.83,0,1.69-.5,2.39-2.29,2.38q-29.15-.06-58.29,0c-2.26,0-2.26-1.25-2.26-2.87q0-29.35,0-58.73Z"/><path class="cls-2" d="M1388.36,232.47V171.05c0-3.12,0-3.14,3.07-3.15,3.8,0,7.6.09,11.39,0,2.18-.07,2.79.76,2.78,2.86-.06,22,0,44.07,0,66.11q0,28.35,0,56.72c0,3.11,0,3.11-3.08,3.12-3.8,0-7.6-.1-11.39,0-2.18.09-2.78-.73-2.77-2.83Q1388.41,263.18,1388.36,232.47Z"/></g></g></svg>